<svg xmlns="http://www.w3.org/2000/svg" xmlns:xlink="http://www.w3.org/1999/xlink" width="500" zoomAndPan="magnify" viewBox="0 0 375 374.999991" height="500" preserveAspectRatio="xMidYMid meet" version="1.0"><path fill="#8899a6" d="M 291.550781 208.09375 C 285.074219 208.09375 278.792969 208.90625 272.738281 210.3125 L 164.699219 102.269531 C 166.09375 96.21875 166.90625 89.9375 166.90625 83.457031 C 166.90625 37.363281 129.542969 0 83.457031 0 C 74.0625 0 61.5625 9.542969 71.96875 19.949219 L 103.1875 51.167969 C 103.1875 51.167969 113.59375 71.980469 92.78125 92.78125 C 71.96875 113.582031 51.15625 103.175781 51.15625 103.175781 L 19.949219 71.96875 C 9.542969 61.5625 0 74.011719 0 83.457031 C 0 129.550781 37.363281 166.917969 83.457031 166.917969 C 89.9375 166.917969 96.21875 166.105469 102.269531 164.707031 L 210.300781 272.738281 C 208.894531 278.792969 208.082031 285.074219 208.082031 291.550781 C 208.082031 337.644531 245.457031 375 291.542969 375 C 300.925781 375 313.425781 365.457031 303.019531 355.050781 L 271.800781 323.832031 C 271.800781 323.832031 261.394531 303.019531 282.207031 282.21875 C 303.019531 261.417969 323.824219 271.8125 323.824219 271.8125 L 355.042969 303.03125 C 365.457031 313.4375 375 300.988281 375 291.550781 C 375 245.457031 337.636719 208.09375 291.550781 208.09375 Z M 291.550781 208.09375 " fill-opacity="1" fill-rule="nonzero"/></svg>