<svg xmlns="http://www.w3.org/2000/svg" xmlns:xlink="http://www.w3.org/1999/xlink" width="500" zoomAndPan="magnify" viewBox="0 0 375 374.999991" height="500" preserveAspectRatio="xMidYMid meet" version="1.0"><path fill="#ffdc5d" d="M 101.914062 197.734375 C 104.597656 207.75 98.660156 218.046875 88.640625 220.738281 L 84.890625 221.746094 C 74.875 224.425781 64.574219 218.492188 61.890625 208.476562 L 28.695312 84.652344 C 26.023438 74.636719 31.96875 64.328125 41.988281 61.644531 L 45.730469 60.640625 C 55.746094 57.949219 66.046875 63.894531 68.738281 73.910156 Z M 151.59375 177.640625 C 153.242188 188.234375 145.976562 198.167969 135.390625 199.804688 L 132.820312 200.210938 C 122.222656 201.847656 112.296875 194.59375 110.648438 184 L 86.40625 27.898438 C 84.746094 17.300781 92.019531 7.378906 102.609375 5.730469 L 105.179688 5.328125 C 115.777344 3.679688 125.710938 10.941406 127.359375 21.539062 Z M 199.925781 176.425781 C 199.324219 186.898438 190.339844 194.894531 179.855469 194.304688 L 177.328125 194.148438 C 166.832031 193.539062 158.835938 184.570312 159.4375 174.085938 L 168.316406 19.769531 C 168.925781 9.296875 177.910156 1.277344 188.394531 1.878906 L 190.921875 2.023438 C 201.40625 2.625 209.394531 11.617188 208.816406 22.097656 Z M 247.5 196.71875 C 245.230469 206.464844 235.515625 212.546875 225.734375 210.289062 L 220.699219 209.128906 C 210.9375 206.859375 204.867188 197.132812 207.117188 187.375 L 241.027344 41.0625 C 243.292969 31.316406 253.023438 25.238281 262.78125 27.496094 L 267.828125 28.664062 C 277.589844 30.933594 283.648438 40.671875 281.402344 50.417969 Z M 286.238281 283.925781 C 280.832031 293.277344 268.863281 296.488281 259.5 291.082031 L 257.519531 289.933594 C 248.152344 284.527344 244.941406 272.5625 250.359375 263.207031 L 308.472656 162.546875 C 313.882812 153.191406 325.859375 149.972656 335.222656 155.378906 L 337.203125 156.527344 C 346.570312 161.925781 349.769531 173.910156 344.363281 183.261719 Z M 286.238281 283.925781 " fill-opacity="1" fill-rule="nonzero"/><path fill="#ffdc5d" d="M 50.597656 166.339844 C 55.570312 190.609375 48.703125 220.046875 48.703125 249.132812 C 48.703125 278.21875 70.71875 373.433594 173.027344 373.433594 C 275.339844 373.433594 281.816406 288.140625 297.355469 262.949219 C 312.898438 237.757812 293.53125 195.464844 278.574219 214.222656 C 258.296875 239.632812 242.664062 235.488281 251.160156 186.359375 C 257.488281 149.722656 220.449219 132.042969 213.828125 165.105469 C 208.722656 190.660156 200.371094 185.324219 201.542969 157.078125 C 202.960938 123.070312 163.425781 119.363281 161.394531 158.019531 C 159.921875 186.058594 150.527344 174.085938 147.699219 155.191406 C 145.273438 139.003906 102.226562 127.007812 106.121094 151.886719 C 112.265625 191.09375 104.234375 201.949219 91.015625 159.378906 C 82.664062 132.496094 45.613281 142.066406 50.597656 166.339844 Z M 50.597656 166.339844 " fill-opacity="1" fill-rule="nonzero"/><path fill="#ef9645" d="M 255.550781 228.964844 C 252.441406 227.699219 250.265625 223.929688 249.34375 217.425781 C 229.742188 220.109375 203.800781 225.402344 183.390625 245.339844 C 156.910156 271.226562 152.390625 299.203125 152.609375 317.921875 C 152.785156 333.015625 161.019531 340.160156 163.433594 317.796875 C 166.480469 289.550781 186.675781 233.605469 255.550781 228.964844 Z M 255.550781 228.964844 " fill-opacity="1" fill-rule="nonzero"/></svg>