<svg xmlns="http://www.w3.org/2000/svg" xmlns:xlink="http://www.w3.org/1999/xlink" width="500" zoomAndPan="magnify" viewBox="0 0 375 374.999991" height="500" preserveAspectRatio="xMidYMid meet" version="1.0"><defs><clipPath id="63d3a8440f"><path d="M 83 192 L 209 192 L 209 317.113281 L 83 317.113281 Z M 83 192 " clip-rule="nonzero"/></clipPath><clipPath id="abc1ea9971"><path d="M 270 57.613281 L 375 57.613281 L 375 307 L 270 307 Z M 270 57.613281 " clip-rule="nonzero"/></clipPath></defs><g clip-path="url(#63d3a8440f)"><path fill="#3b88c3" d="M 145.9375 192.554688 C 111.5 192.554688 83.59375 220.445312 83.59375 254.832031 C 83.59375 289.222656 111.5 317.113281 145.9375 317.113281 C 180.371094 317.113281 208.28125 289.222656 208.28125 254.832031 C 208.28125 220.445312 180.363281 192.554688 145.9375 192.554688 Z M 145.9375 296.355469 C 122.984375 296.355469 104.375 277.761719 104.375 254.832031 C 104.375 231.902344 122.984375 213.3125 145.9375 213.3125 C 168.890625 213.3125 187.5 231.902344 187.5 254.832031 C 187.5 277.761719 168.890625 296.355469 145.9375 296.355469 Z M 145.9375 296.355469 " fill-opacity="1" fill-rule="nonzero"/></g><path fill="#55acee" d="M 18.992188 140.890625 L 18.992188 141.101562 C 8.589844 143.382812 0.464844 160.78125 0.464844 182.171875 C 0.464844 203.566406 8.589844 220.964844 18.992188 223.238281 L 18.992188 223.453125 L 317.21875 306.203125 L 317.21875 58.277344 Z M 18.992188 140.890625 " fill-opacity="1" fill-rule="nonzero"/><g clip-path="url(#abc1ea9971)"><path fill="#226699" d="M 374.535156 182.171875 C 374.535156 184.210938 374.511719 186.25 374.472656 188.285156 C 374.429688 190.320312 374.367188 192.355469 374.285156 194.382812 C 374.199219 196.410156 374.097656 198.433594 373.972656 200.449219 C 373.847656 202.46875 373.703125 204.476562 373.535156 206.472656 C 373.371094 208.472656 373.183594 210.460938 372.976562 212.4375 C 372.769531 214.417969 372.542969 216.378906 372.296875 218.332031 C 372.050781 220.28125 371.785156 222.21875 371.496094 224.136719 C 371.210938 226.054688 370.90625 227.957031 370.578125 229.839844 C 370.253906 231.722656 369.910156 233.585938 369.546875 235.429688 C 369.183594 237.273438 368.800781 239.09375 368.398438 240.890625 C 368 242.6875 367.578125 244.460938 367.140625 246.210938 C 366.707031 247.957031 366.25 249.679688 365.777344 251.375 C 365.304688 253.070312 364.816406 254.738281 364.308594 256.375 C 363.804688 258.011719 363.28125 259.617188 362.742188 261.195312 C 362.203125 262.769531 361.644531 264.3125 361.074219 265.824219 C 360.503906 267.332031 359.917969 268.808594 359.316406 270.25 C 358.714844 271.691406 358.101562 273.097656 357.46875 274.464844 C 356.839844 275.835938 356.195312 277.167969 355.539062 278.460938 C 354.882812 279.753906 354.210938 281.007812 353.527344 282.222656 C 352.847656 283.433594 352.152344 284.609375 351.445312 285.742188 C 350.738281 286.875 350.019531 287.964844 349.289062 289.011719 C 348.558594 290.058594 347.820312 291.066406 347.070312 292.027344 C 346.320312 292.988281 345.5625 293.902344 344.792969 294.773438 C 344.023438 295.644531 343.246094 296.472656 342.460938 297.253906 C 341.675781 298.03125 340.882812 298.765625 340.082031 299.453125 C 339.28125 300.140625 338.476562 300.777344 337.660156 301.371094 C 336.847656 301.960938 336.027344 302.503906 335.203125 303 C 334.378906 303.496094 333.550781 303.941406 332.714844 304.339844 C 331.882812 304.738281 331.042969 305.085938 330.203125 305.386719 C 329.363281 305.683594 328.519531 305.933594 327.671875 306.132812 C 326.828125 306.332031 325.980469 306.484375 325.128906 306.582031 C 324.28125 306.683594 323.429688 306.734375 322.582031 306.734375 C 321.730469 306.734375 320.878906 306.683594 320.03125 306.582031 C 319.183594 306.484375 318.332031 306.332031 317.488281 306.132812 C 316.640625 305.933594 315.796875 305.683594 314.957031 305.386719 C 314.117188 305.085938 313.277344 304.738281 312.445312 304.339844 C 311.609375 303.941406 310.78125 303.496094 309.957031 303 C 309.132812 302.503906 308.3125 301.960938 307.5 301.371094 C 306.683594 300.777344 305.878906 300.140625 305.078125 299.453125 C 304.277344 298.765625 303.484375 298.03125 302.699219 297.253906 C 301.914062 296.472656 301.136719 295.644531 300.367188 294.773438 C 299.597656 293.902344 298.839844 292.988281 298.089844 292.027344 C 297.339844 291.066406 296.601562 290.058594 295.871094 289.011719 C 295.140625 287.964844 294.421875 286.875 293.714844 285.742188 C 293.007812 284.609375 292.3125 283.433594 291.632812 282.222656 C 290.949219 281.007812 290.277344 279.753906 289.621094 278.460938 C 288.964844 277.167969 288.320312 275.835938 287.691406 274.464844 C 287.058594 273.097656 286.445312 271.691406 285.84375 270.25 C 285.242188 268.808594 284.65625 267.332031 284.085938 265.824219 C 283.515625 264.3125 282.957031 262.769531 282.417969 261.195312 C 281.878906 259.617188 281.355469 258.011719 280.851562 256.375 C 280.34375 254.738281 279.855469 253.070312 279.382812 251.375 C 278.910156 249.679688 278.453125 247.957031 278.019531 246.210938 C 277.582031 244.460938 277.160156 242.6875 276.761719 240.890625 C 276.359375 239.09375 275.976562 237.273438 275.613281 235.429688 C 275.25 233.585938 274.90625 231.722656 274.582031 229.839844 C 274.253906 227.957031 273.949219 226.054688 273.664062 224.136719 C 273.375 222.21875 273.109375 220.28125 272.863281 218.332031 C 272.617188 216.378906 272.390625 214.417969 272.183594 212.4375 C 271.976562 210.460938 271.789062 208.472656 271.625 206.472656 C 271.457031 204.476562 271.3125 202.46875 271.1875 200.449219 C 271.0625 198.433594 270.960938 196.410156 270.875 194.382812 C 270.792969 192.355469 270.730469 190.320312 270.6875 188.285156 C 270.648438 186.25 270.625 184.210938 270.625 182.171875 C 270.625 180.136719 270.648438 178.097656 270.6875 176.0625 C 270.730469 174.027344 270.792969 171.992188 270.875 169.964844 C 270.960938 167.9375 271.0625 165.914062 271.1875 163.898438 C 271.3125 161.878906 271.457031 159.871094 271.625 157.875 C 271.789062 155.875 271.976562 153.886719 272.183594 151.90625 C 272.390625 149.929688 272.617188 147.964844 272.863281 146.015625 C 273.109375 144.066406 273.375 142.128906 273.664062 140.210938 C 273.949219 138.292969 274.253906 136.390625 274.582031 134.507812 C 274.90625 132.625 275.25 130.761719 275.613281 128.917969 C 275.976562 127.074219 276.359375 125.253906 276.761719 123.457031 C 277.160156 121.660156 277.582031 119.886719 278.019531 118.136719 C 278.453125 116.386719 278.910156 114.667969 279.382812 112.972656 C 279.855469 111.277344 280.34375 109.609375 280.851562 107.972656 C 281.355469 106.335938 281.878906 104.730469 282.417969 103.152344 C 282.957031 101.578125 283.515625 100.035156 284.085938 98.523438 C 284.65625 97.015625 285.242188 95.539062 285.84375 94.097656 C 286.445312 92.65625 287.058594 91.25 287.691406 89.878906 C 288.320312 88.511719 288.964844 87.179688 289.621094 85.886719 C 290.277344 84.59375 290.949219 83.339844 291.632812 82.125 C 292.3125 80.910156 293.007812 79.738281 293.714844 78.605469 C 294.421875 77.472656 295.140625 76.382812 295.871094 75.335938 C 296.601562 74.285156 297.339844 73.28125 298.089844 72.320312 C 298.839844 71.359375 299.597656 70.445312 300.367188 69.574219 C 301.136719 68.703125 301.914062 67.875 302.699219 67.09375 C 303.484375 66.316406 304.277344 65.582031 305.078125 64.894531 C 305.878906 64.207031 306.683594 63.570312 307.5 62.976562 C 308.3125 62.386719 309.132812 61.84375 309.957031 61.347656 C 310.78125 60.851562 311.609375 60.40625 312.445312 60.007812 C 313.277344 59.609375 314.117188 59.261719 314.957031 58.960938 C 315.796875 58.664062 316.640625 58.414062 317.488281 58.214844 C 318.332031 58.015625 319.179688 57.863281 320.03125 57.765625 C 320.878906 57.664062 321.730469 57.613281 322.582031 57.613281 C 323.429688 57.613281 324.28125 57.664062 325.128906 57.765625 C 325.980469 57.863281 326.828125 58.015625 327.671875 58.214844 C 328.519531 58.414062 329.363281 58.664062 330.203125 58.960938 C 331.042969 59.261719 331.882812 59.609375 332.714844 60.007812 C 333.550781 60.40625 334.378906 60.851562 335.203125 61.347656 C 336.027344 61.84375 336.847656 62.386719 337.660156 62.976562 C 338.476562 63.570312 339.28125 64.207031 340.082031 64.894531 C 340.882812 65.582031 341.675781 66.316406 342.460938 67.09375 C 343.246094 67.875 344.023438 68.703125 344.792969 69.574219 C 345.5625 70.445312 346.320312 71.359375 347.070312 72.320312 C 347.820312 73.28125 348.558594 74.285156 349.289062 75.335938 C 350.019531 76.382812 350.738281 77.472656 351.445312 78.605469 C 352.152344 79.738281 352.847656 80.910156 353.527344 82.125 C 354.210938 83.339844 354.882812 84.59375 355.539062 85.886719 C 356.195312 87.179688 356.839844 88.511719 357.46875 89.878906 C 358.101562 91.25 358.714844 92.65625 359.316406 94.097656 C 359.917969 95.539062 360.503906 97.015625 361.074219 98.523438 C 361.644531 100.035156 362.203125 101.578125 362.742188 103.152344 C 363.28125 104.730469 363.804688 106.335938 364.308594 107.972656 C 364.816406 109.609375 365.304688 111.277344 365.777344 112.972656 C 366.25 114.667969 366.707031 116.386719 367.140625 118.136719 C 367.578125 119.886719 368 121.660156 368.398438 123.457031 C 368.800781 125.253906 369.183594 127.074219 369.546875 128.917969 C 369.910156 130.761719 370.253906 132.625 370.578125 134.507812 C 370.90625 136.390625 371.210938 138.292969 371.496094 140.210938 C 371.785156 142.128906 372.050781 144.066406 372.296875 146.015625 C 372.542969 147.964844 372.769531 149.929688 372.976562 151.90625 C 373.183594 153.886719 373.371094 155.875 373.535156 157.875 C 373.703125 159.871094 373.847656 161.878906 373.972656 163.898438 C 374.097656 165.914062 374.199219 167.9375 374.285156 169.964844 C 374.367188 171.992188 374.429688 174.027344 374.472656 176.0625 C 374.511719 178.097656 374.535156 180.136719 374.535156 182.171875 Z M 374.535156 182.171875 " fill-opacity="1" fill-rule="nonzero"/></g></svg>