<svg xmlns="http://www.w3.org/2000/svg" xmlns:xlink="http://www.w3.org/1999/xlink" width="500" zoomAndPan="magnify" viewBox="0 0 375 374.999991" height="500" preserveAspectRatio="xMidYMid meet" version="1.0"><path fill="#be1931" d="M 142.359375 328.621094 C 139.554688 351.078125 119.074219 359.121094 96.625 359.121094 C 74.175781 359.121094 58.253906 340.914062 61.058594 318.453125 L 71.21875 226.949219 C 74.023438 204.492188 94.503906 186.28125 116.953125 186.28125 C 139.402344 186.28125 182.683594 186.28125 152.519531 226.949219 C 122.359375 267.617188 142.359375 328.621094 142.359375 328.621094 Z M 142.359375 328.621094 " fill-opacity="1" fill-rule="nonzero"/><path fill="#ccd6dd" d="M 375.253906 165.949219 C 375.253906 236.121094 359.5625 293.035156 340.191406 293.035156 C 320.832031 293.035156 132.367188 236.121094 132.367188 165.949219 C 132.367188 95.765625 320.832031 38.859375 340.191406 38.859375 C 359.5625 38.859375 375.253906 95.765625 375.253906 165.949219 Z M 375.253906 165.949219 " fill-opacity="1" fill-rule="nonzero"/><path fill="#66757f" d="M 375.253906 165.949219 C 375.253906 168.027344 375.238281 170.105469 375.210938 172.183594 C 375.183594 174.261719 375.140625 176.335938 375.085938 178.40625 C 375.027344 180.476562 374.957031 182.539062 374.875 184.597656 C 374.789062 186.652344 374.691406 188.703125 374.582031 190.742188 C 374.46875 192.78125 374.34375 194.8125 374.203125 196.828125 C 374.0625 198.847656 373.910156 200.851562 373.746094 202.839844 C 373.578125 204.832031 373.398438 206.804688 373.203125 208.761719 C 373.011719 210.722656 372.804688 212.660156 372.585938 214.582031 C 372.367188 216.503906 372.132812 218.40625 371.886719 220.285156 C 371.640625 222.167969 371.382812 224.023438 371.113281 225.859375 C 370.84375 227.691406 370.5625 229.5 370.265625 231.285156 C 369.972656 233.070312 369.664062 234.824219 369.34375 236.554688 C 369.027344 238.285156 368.695312 239.984375 368.355469 241.65625 C 368.011719 243.324219 367.660156 244.964844 367.296875 246.574219 C 366.929688 248.179688 366.558594 249.753906 366.171875 251.296875 C 365.785156 252.835938 365.390625 254.34375 364.984375 255.8125 C 364.578125 257.285156 364.164062 258.71875 363.738281 260.113281 C 363.3125 261.511719 362.878906 262.871094 362.433594 264.1875 C 361.992188 265.507812 361.539062 266.789062 361.078125 268.027344 C 360.617188 269.265625 360.148438 270.460938 359.671875 271.617188 C 359.195312 272.773438 358.710938 273.886719 358.21875 274.957031 C 357.726562 276.023438 357.226562 277.050781 356.71875 278.03125 C 356.214844 279.011719 355.703125 279.945312 355.183594 280.835938 C 354.664062 281.722656 354.140625 282.566406 353.609375 283.363281 C 353.082031 284.160156 352.546875 284.90625 352.003906 285.609375 C 351.464844 286.308594 350.917969 286.960938 350.371094 287.5625 C 349.820312 288.167969 349.269531 288.722656 348.710938 289.226562 C 348.15625 289.734375 347.597656 290.1875 347.03125 290.59375 C 346.46875 291 345.90625 291.355469 345.335938 291.660156 C 344.769531 291.964844 344.199219 292.222656 343.628906 292.425781 C 343.058594 292.628906 342.488281 292.78125 341.914062 292.882812 C 341.339844 292.984375 340.765625 293.035156 340.191406 293.035156 C 339.621094 293.035156 339.046875 292.984375 338.472656 292.882812 C 337.898438 292.78125 337.328125 292.628906 336.757812 292.425781 C 336.183594 292.222656 335.617188 291.964844 335.046875 291.660156 C 334.480469 291.355469 333.914062 291 333.351562 290.59375 C 332.789062 290.1875 332.230469 289.734375 331.675781 289.226562 C 331.117188 288.722656 330.5625 288.167969 330.015625 287.5625 C 329.464844 286.960938 328.921875 286.308594 328.382812 285.609375 C 327.839844 284.90625 327.304688 284.160156 326.777344 283.363281 C 326.246094 282.566406 325.722656 281.722656 325.203125 280.835938 C 324.683594 279.945312 324.171875 279.011719 323.664062 278.03125 C 323.160156 277.050781 322.660156 276.023438 322.167969 274.957031 C 321.675781 273.886719 321.191406 272.773438 320.714844 271.617188 C 320.238281 270.460938 319.769531 269.265625 319.308594 268.027344 C 318.847656 266.789062 318.394531 265.507812 317.949219 264.1875 C 317.507812 262.871094 317.074219 261.511719 316.648438 260.113281 C 316.222656 258.71875 315.808594 257.285156 315.402344 255.8125 C 314.996094 254.34375 314.601562 252.835938 314.214844 251.296875 C 313.828125 249.753906 313.453125 248.179688 313.089844 246.574219 C 312.726562 244.964844 312.375 243.324219 312.03125 241.65625 C 311.691406 239.984375 311.359375 238.285156 311.039062 236.554688 C 310.722656 234.824219 310.414062 233.070312 310.121094 231.285156 C 309.824219 229.5 309.542969 227.691406 309.273438 225.859375 C 309 224.023438 308.742188 222.167969 308.5 220.285156 C 308.253906 218.40625 308.019531 216.503906 307.800781 214.582031 C 307.582031 212.660156 307.375 210.722656 307.179688 208.761719 C 306.988281 206.804688 306.808594 204.832031 306.640625 202.839844 C 306.476562 200.851562 306.320312 198.847656 306.183594 196.828125 C 306.042969 194.8125 305.917969 192.78125 305.804688 190.742188 C 305.695312 188.703125 305.59375 186.652344 305.511719 184.597656 C 305.425781 182.539062 305.355469 180.476562 305.300781 178.40625 C 305.246094 176.335938 305.203125 174.261719 305.175781 172.183594 C 305.144531 170.105469 305.132812 168.027344 305.132812 165.949219 C 305.132812 163.867188 305.144531 161.789062 305.175781 159.714844 C 305.203125 157.636719 305.246094 155.5625 305.300781 153.492188 C 305.355469 151.421875 305.425781 149.359375 305.511719 147.300781 C 305.597656 145.242188 305.695312 143.195312 305.804688 141.15625 C 305.917969 139.117188 306.042969 137.085938 306.183594 135.070312 C 306.320312 133.050781 306.476562 131.046875 306.640625 129.058594 C 306.808594 127.066406 306.988281 125.09375 307.179688 123.132812 C 307.375 121.175781 307.582031 119.234375 307.800781 117.316406 C 308.019531 115.394531 308.253906 113.492188 308.5 111.613281 C 308.742188 109.730469 309 107.875 309.273438 106.039062 C 309.542969 104.207031 309.824219 102.398438 310.121094 100.613281 C 310.414062 98.828125 310.722656 97.070312 311.039062 95.34375 C 311.359375 93.613281 311.691406 91.914062 312.03125 90.242188 C 312.375 88.570312 312.726562 86.933594 313.089844 85.324219 C 313.453125 83.71875 313.828125 82.144531 314.214844 80.601562 C 314.601562 79.0625 314.996094 77.554688 315.402344 76.085938 C 315.808594 74.613281 316.222656 73.179688 316.648438 71.78125 C 317.074219 70.386719 317.507812 69.027344 317.949219 67.707031 C 318.394531 66.390625 318.847656 65.109375 319.308594 63.871094 C 319.769531 62.632812 320.238281 61.433594 320.714844 60.28125 C 321.191406 59.125 321.675781 58.011719 322.167969 56.941406 C 322.660156 55.871094 323.160156 54.847656 323.664062 53.867188 C 324.171875 52.886719 324.683594 51.953125 325.203125 51.0625 C 325.722656 50.171875 326.246094 49.332031 326.777344 48.535156 C 327.304688 47.738281 327.839844 46.992188 328.382812 46.289062 C 328.921875 45.589844 329.464844 44.9375 330.015625 44.332031 C 330.5625 43.730469 331.117188 43.175781 331.675781 42.667969 C 332.230469 42.164062 332.789062 41.707031 333.351562 41.304688 C 333.914062 40.898438 334.480469 40.542969 335.046875 40.238281 C 335.617188 39.929688 336.183594 39.675781 336.757812 39.472656 C 337.328125 39.269531 337.898438 39.117188 338.472656 39.015625 C 339.046875 38.914062 339.621094 38.859375 340.191406 38.859375 C 340.765625 38.859375 341.339844 38.914062 341.914062 39.015625 C 342.488281 39.117188 343.058594 39.269531 343.628906 39.472656 C 344.199219 39.675781 344.769531 39.929688 345.335938 40.238281 C 345.90625 40.542969 346.46875 40.898438 347.03125 41.304688 C 347.597656 41.707031 348.15625 42.164062 348.710938 42.667969 C 349.269531 43.175781 349.820312 43.730469 350.371094 44.332031 C 350.917969 44.9375 351.464844 45.589844 352.003906 46.289062 C 352.546875 46.992188 353.082031 47.738281 353.609375 48.535156 C 354.140625 49.332031 354.664062 50.171875 355.183594 51.0625 C 355.703125 51.953125 356.214844 52.886719 356.71875 53.867188 C 357.226562 54.847656 357.726562 55.871094 358.21875 56.941406 C 358.710938 58.011719 359.195312 59.125 359.671875 60.28125 C 360.148438 61.433594 360.617188 62.632812 361.078125 63.871094 C 361.539062 65.109375 361.992188 66.390625 362.433594 67.707031 C 362.878906 69.027344 363.3125 70.386719 363.738281 71.78125 C 364.164062 73.179688 364.578125 74.613281 364.984375 76.085938 C 365.390625 77.554688 365.785156 79.0625 366.171875 80.601562 C 366.558594 82.144531 366.929688 83.71875 367.296875 85.324219 C 367.660156 86.933594 368.011719 88.570312 368.355469 90.242188 C 368.695312 91.914062 369.027344 93.613281 369.34375 95.34375 C 369.664062 97.070312 369.972656 98.828125 370.265625 100.613281 C 370.5625 102.398438 370.84375 104.207031 371.113281 106.039062 C 371.382812 107.875 371.640625 109.730469 371.886719 111.613281 C 372.132812 113.492188 372.367188 115.394531 372.585938 117.316406 C 372.804688 119.234375 373.011719 121.175781 373.203125 123.132812 C 373.398438 125.09375 373.578125 127.066406 373.746094 129.058594 C 373.910156 131.046875 374.0625 133.050781 374.203125 135.070312 C 374.34375 137.085938 374.46875 139.117188 374.582031 141.15625 C 374.691406 143.195312 374.789062 145.242188 374.875 147.300781 C 374.957031 149.359375 375.027344 151.421875 375.085938 153.492188 C 375.140625 155.5625 375.183594 157.636719 375.210938 159.714844 C 375.238281 161.789062 375.253906 163.867188 375.253906 165.949219 Z M 375.253906 165.949219 " fill-opacity="1" fill-rule="nonzero"/><path fill="#dd2e44" d="M 193.34375 237.117188 L 51.066406 226.949219 C 0.253906 226.949219 0.253906 104.945312 51.066406 104.945312 L 193.34375 94.78125 C 162.855469 125.28125 162.855469 206.617188 193.34375 237.117188 Z M 193.34375 237.117188 " fill-opacity="1" fill-rule="nonzero"/><path fill="#99aab5" d="M 344.765625 165.949219 C 344.765625 167.398438 344.742188 168.839844 344.691406 170.28125 C 344.644531 171.722656 344.570312 173.152344 344.472656 174.574219 C 344.375 175.992188 344.253906 177.394531 344.109375 178.78125 C 343.964844 180.167969 343.796875 181.527344 343.605469 182.867188 C 343.414062 184.203125 343.203125 185.511719 342.964844 186.789062 C 342.730469 188.0625 342.472656 189.304688 342.195312 190.507812 C 341.917969 191.710938 341.621094 192.875 341.304688 193.992188 C 340.988281 195.113281 340.65625 196.183594 340.300781 197.207031 C 339.949219 198.230469 339.578125 199.203125 339.191406 200.121094 C 338.808594 201.039062 338.40625 201.902344 337.992188 202.703125 C 337.578125 203.507812 337.148438 204.253906 336.707031 204.933594 C 336.269531 205.617188 335.816406 206.234375 335.355469 206.789062 C 334.894531 207.34375 334.425781 207.832031 333.949219 208.25 C 333.46875 208.671875 332.984375 209.023438 332.496094 209.304688 C 332.007812 209.589844 331.511719 209.800781 331.015625 209.941406 C 330.519531 210.085938 330.023438 210.15625 329.523438 210.15625 C 329.023438 210.15625 328.523438 210.085938 328.027344 209.941406 C 327.53125 209.800781 327.039062 209.589844 326.546875 209.304688 C 326.058594 209.023438 325.574219 208.671875 325.097656 208.25 C 324.621094 207.832031 324.148438 207.34375 323.6875 206.789062 C 323.226562 206.234375 322.777344 205.617188 322.335938 204.933594 C 321.894531 204.253906 321.46875 203.507812 321.054688 202.703125 C 320.636719 201.902344 320.238281 201.039062 319.851562 200.121094 C 319.464844 199.203125 319.097656 198.230469 318.742188 197.207031 C 318.390625 196.183594 318.054688 195.113281 317.738281 193.992188 C 317.421875 192.875 317.125 191.710938 316.847656 190.507812 C 316.570312 189.304688 316.3125 188.0625 316.078125 186.789062 C 315.84375 185.511719 315.628906 184.203125 315.4375 182.867188 C 315.246094 181.527344 315.078125 180.167969 314.933594 178.78125 C 314.789062 177.394531 314.667969 175.992188 314.570312 174.574219 C 314.472656 173.152344 314.402344 171.722656 314.351562 170.28125 C 314.304688 168.839844 314.277344 167.398438 314.277344 165.949219 C 314.277344 164.5 314.304688 163.058594 314.351562 161.617188 C 314.402344 160.175781 314.472656 158.746094 314.570312 157.324219 C 314.667969 155.90625 314.789062 154.5 314.933594 153.117188 C 315.078125 151.730469 315.246094 150.371094 315.4375 149.03125 C 315.628906 147.695312 315.84375 146.386719 316.078125 145.109375 C 316.3125 143.832031 316.570312 142.59375 316.847656 141.390625 C 317.125 140.183594 317.421875 139.023438 317.738281 137.90625 C 318.054688 136.785156 318.390625 135.714844 318.742188 134.691406 C 319.097656 133.667969 319.464844 132.695312 319.851562 131.777344 C 320.238281 130.859375 320.636719 129.996094 321.054688 129.191406 C 321.46875 128.386719 321.894531 127.644531 322.335938 126.960938 C 322.777344 126.28125 323.226562 125.660156 323.6875 125.109375 C 324.148438 124.554688 324.621094 124.066406 325.097656 123.644531 C 325.574219 123.226562 326.058594 122.875 326.546875 122.59375 C 327.039062 122.308594 327.53125 122.097656 328.027344 121.957031 C 328.523438 121.8125 329.023438 121.742188 329.523438 121.742188 C 330.023438 121.742188 330.519531 121.8125 331.015625 121.957031 C 331.511719 122.097656 332.007812 122.308594 332.496094 122.59375 C 332.984375 122.875 333.46875 123.226562 333.949219 123.644531 C 334.425781 124.066406 334.894531 124.554688 335.355469 125.109375 C 335.816406 125.660156 336.269531 126.28125 336.707031 126.960938 C 337.148438 127.644531 337.578125 128.386719 337.992188 129.191406 C 338.40625 129.996094 338.808594 130.859375 339.191406 131.777344 C 339.578125 132.695312 339.949219 133.667969 340.300781 134.691406 C 340.65625 135.714844 340.988281 136.785156 341.304688 137.90625 C 341.621094 139.023438 341.917969 140.183594 342.195312 141.390625 C 342.472656 142.59375 342.730469 143.832031 342.964844 145.109375 C 343.203125 146.386719 343.414062 147.695312 343.605469 149.03125 C 343.796875 150.371094 343.964844 151.730469 344.109375 153.117188 C 344.253906 154.5 344.375 155.90625 344.472656 157.324219 C 344.570312 158.746094 344.644531 160.175781 344.691406 161.617188 C 344.742188 163.058594 344.765625 164.5 344.765625 165.949219 Z M 344.765625 165.949219 " fill-opacity="1" fill-rule="nonzero"/></svg>