<svg xmlns="http://www.w3.org/2000/svg" xmlns:xlink="http://www.w3.org/1999/xlink" width="500" zoomAndPan="magnify" viewBox="0 0 375 374.999991" height="500" preserveAspectRatio="xMidYMid meet" version="1.0"><path fill="#a0041e" d="M 1.070312 182.15625 L 86.539062 107.371094 L 257.480469 118.054688 L 268.164062 288.996094 L 193.375 374.464844 C 193.375 374.464844 193.386719 310.375 129.273438 246.261719 C 65.160156 182.148438 1.070312 182.15625 1.070312 182.15625 Z M 1.070312 182.15625 " fill-opacity="1" fill-rule="nonzero"/><path fill="#ffac33" d="M 0.78125 374.464844 C 0.78125 374.464844 0.394531 289.21875 32.671875 256.945312 C 64.945312 224.667969 150.640625 226.890625 150.640625 226.890625 C 150.640625 226.890625 150.628906 310.363281 118.578125 342.414062 C 86.527344 374.464844 0.78125 374.464844 0.78125 374.464844 Z M 0.78125 374.464844 " fill-opacity="1" fill-rule="nonzero"/><path fill="#ffcc4d" d="M 129.261719 288.996094 C 129.261719 290.394531 129.195312 291.792969 129.058594 293.183594 C 128.917969 294.578125 128.714844 295.960938 128.441406 297.332031 C 128.167969 298.707031 127.828125 300.0625 127.421875 301.402344 C 127.015625 302.742188 126.546875 304.054688 126.011719 305.351562 C 125.472656 306.644531 124.875 307.90625 124.214844 309.140625 C 123.558594 310.375 122.839844 311.574219 122.0625 312.738281 C 121.28125 313.902344 120.449219 315.023438 119.5625 316.105469 C 118.675781 317.1875 117.734375 318.222656 116.746094 319.214844 C 115.757812 320.203125 114.71875 321.140625 113.636719 322.03125 C 112.558594 322.917969 111.433594 323.75 110.269531 324.527344 C 109.105469 325.304688 107.90625 326.023438 106.671875 326.683594 C 105.4375 327.34375 104.175781 327.941406 102.882812 328.476562 C 101.589844 329.011719 100.273438 329.484375 98.933594 329.890625 C 97.59375 330.296875 96.238281 330.636719 94.863281 330.910156 C 93.492188 331.183594 92.109375 331.386719 90.714844 331.523438 C 89.324219 331.664062 87.925781 331.730469 86.527344 331.730469 C 85.128906 331.730469 83.730469 331.664062 82.339844 331.523438 C 80.945312 331.386719 79.5625 331.183594 78.191406 330.910156 C 76.816406 330.636719 75.460938 330.296875 74.121094 329.890625 C 72.78125 329.484375 71.46875 329.011719 70.171875 328.476562 C 68.878906 327.941406 67.617188 327.34375 66.382812 326.683594 C 65.148438 326.023438 63.949219 325.304688 62.785156 324.527344 C 61.621094 323.75 60.5 322.917969 59.417969 322.03125 C 58.335938 321.140625 57.300781 320.203125 56.308594 319.214844 C 55.320312 318.222656 54.382812 317.1875 53.492188 316.105469 C 52.605469 315.023438 51.773438 313.902344 50.996094 312.738281 C 50.21875 311.574219 49.5 310.375 48.839844 309.140625 C 48.179688 307.90625 47.582031 306.644531 47.046875 305.351562 C 46.511719 304.054688 46.039062 302.742188 45.632812 301.402344 C 45.226562 300.0625 44.886719 298.707031 44.613281 297.332031 C 44.339844 295.960938 44.136719 294.578125 44 293.183594 C 43.863281 291.792969 43.792969 290.394531 43.792969 288.996094 C 43.792969 287.597656 43.863281 286.199219 44 284.808594 C 44.136719 283.414062 44.339844 282.03125 44.613281 280.660156 C 44.886719 279.285156 45.226562 277.929688 45.632812 276.589844 C 46.039062 275.25 46.511719 273.933594 47.046875 272.640625 C 47.582031 271.347656 48.179688 270.085938 48.839844 268.851562 C 49.5 267.617188 50.21875 266.417969 50.996094 265.253906 C 51.773438 264.089844 52.605469 262.96875 53.492188 261.886719 C 54.382812 260.804688 55.320312 259.765625 56.308594 258.777344 C 57.300781 257.789062 58.335938 256.847656 59.417969 255.960938 C 60.5 255.074219 61.621094 254.242188 62.785156 253.460938 C 63.949219 252.683594 65.148438 251.964844 66.382812 251.308594 C 67.617188 250.648438 68.878906 250.050781 70.171875 249.511719 C 71.46875 248.976562 72.78125 248.507812 74.121094 248.101562 C 75.460938 247.695312 76.816406 247.355469 78.191406 247.082031 C 79.5625 246.808594 80.945312 246.605469 82.339844 246.464844 C 83.730469 246.328125 85.128906 246.261719 86.527344 246.261719 C 87.925781 246.261719 89.324219 246.328125 90.714844 246.464844 C 92.109375 246.605469 93.492188 246.808594 94.863281 247.082031 C 96.238281 247.355469 97.59375 247.695312 98.933594 248.101562 C 100.273438 248.507812 101.589844 248.976562 102.882812 249.511719 C 104.175781 250.050781 105.4375 250.648438 106.671875 251.308594 C 107.90625 251.964844 109.105469 252.683594 110.269531 253.460938 C 111.433594 254.242188 112.558594 255.074219 113.636719 255.960938 C 114.71875 256.847656 115.757812 257.789062 116.746094 258.777344 C 117.734375 259.765625 118.675781 260.804688 119.5625 261.886719 C 120.449219 262.96875 121.28125 264.089844 122.0625 265.253906 C 122.839844 266.417969 123.558594 267.617188 124.214844 268.851562 C 124.875 270.085938 125.472656 271.347656 126.011719 272.640625 C 126.546875 273.933594 127.015625 275.25 127.421875 276.589844 C 127.828125 277.929688 128.167969 279.285156 128.441406 280.660156 C 128.714844 282.03125 128.917969 283.414062 129.058594 284.808594 C 129.195312 286.199219 129.261719 287.597656 129.261719 288.996094 Z M 129.261719 288.996094 " fill-opacity="1" fill-rule="nonzero"/><path fill="#55acee" d="M 374.988281 0.535156 C 374.988281 0.535156 268.152344 0.535156 139.945312 107.371094 C 75.84375 160.789062 75.84375 256.945312 97.210938 278.3125 C 118.578125 299.679688 214.734375 299.679688 268.152344 235.578125 C 374.988281 107.371094 374.988281 0.535156 374.988281 0.535156 Z M 374.988281 0.535156 " fill-opacity="1" fill-rule="nonzero"/><path fill="#000000" d="M 278.835938 53.953125 C 261.496094 53.953125 246.644531 64.328125 239.9375 79.167969 C 245.300781 76.742188 251.207031 75.320312 257.46875 75.320312 C 281.070312 75.320312 300.203125 94.457031 300.203125 118.054688 C 300.203125 124.316406 298.78125 130.222656 296.367188 135.578125 C 311.207031 128.878906 321.570312 114.027344 321.570312 96.6875 C 321.570312 73.085938 302.4375 53.953125 278.835938 53.953125 Z M 278.835938 53.953125 " fill-opacity="1" fill-rule="nonzero"/><path fill="#a0041e" d="M 75.855469 299.679688 C 75.855469 299.679688 75.855469 256.945312 86.539062 246.261719 C 97.222656 235.578125 225.4375 128.75 236.109375 139.421875 C 246.785156 150.097656 139.945312 278.3125 129.261719 288.996094 C 118.578125 299.679688 75.855469 299.679688 75.855469 299.679688 Z M 75.855469 299.679688 " fill-opacity="1" fill-rule="nonzero"/></svg>