<svg xmlns="http://www.w3.org/2000/svg" xmlns:xlink="http://www.w3.org/1999/xlink" width="500" zoomAndPan="magnify" viewBox="0 0 375 374.999991" height="500" preserveAspectRatio="xMidYMid meet" version="1.0"><defs><clipPath id="8406b7b9e7"><path d="M 104 0 L 271.226562 0 L 271.226562 167 L 104 167 Z M 104 0 " clip-rule="nonzero"/></clipPath></defs><path fill="#292f33" d="M 229.320312 359.375 C 229.320312 359.886719 229.253906 360.398438 229.121094 360.90625 C 228.988281 361.414062 228.785156 361.921875 228.519531 362.421875 C 228.253906 362.925781 227.921875 363.421875 227.523438 363.910156 C 227.128906 364.398438 226.667969 364.882812 226.144531 365.355469 C 225.621094 365.828125 225.039062 366.289062 224.394531 366.742188 C 223.75 367.191406 223.050781 367.628906 222.289062 368.054688 C 221.53125 368.480469 220.71875 368.890625 219.851562 369.289062 C 218.984375 369.683594 218.070312 370.0625 217.101562 370.421875 C 216.136719 370.785156 215.125 371.128906 214.070312 371.453125 C 213.011719 371.777344 211.917969 372.082031 210.78125 372.367188 C 209.644531 372.652344 208.472656 372.914062 207.269531 373.15625 C 206.0625 373.394531 204.828125 373.613281 203.566406 373.8125 C 202.304688 374.007812 201.019531 374.179688 199.710938 374.328125 C 198.40625 374.476562 197.082031 374.601562 195.742188 374.699219 C 194.402344 374.800781 193.050781 374.875 191.691406 374.925781 C 190.332031 374.976562 188.96875 375 187.601562 375 C 186.234375 375 184.871094 374.976562 183.511719 374.925781 C 182.152344 374.875 180.804688 374.800781 179.464844 374.699219 C 178.125 374.601562 176.800781 374.476562 175.492188 374.328125 C 174.183594 374.179688 172.898438 374.007812 171.636719 373.8125 C 170.375 373.613281 169.140625 373.394531 167.9375 373.15625 C 166.730469 372.914062 165.558594 372.652344 164.425781 372.367188 C 163.289062 372.082031 162.191406 371.777344 161.136719 371.453125 C 160.078125 371.128906 159.070312 370.785156 158.101562 370.421875 C 157.136719 370.0625 156.21875 369.683594 155.351562 369.289062 C 154.484375 368.890625 153.671875 368.480469 152.914062 368.054688 C 152.15625 367.628906 151.453125 367.191406 150.808594 366.742188 C 150.164062 366.289062 149.582031 365.828125 149.058594 365.355469 C 148.535156 364.882812 148.074219 364.398438 147.679688 363.910156 C 147.28125 363.421875 146.949219 362.925781 146.683594 362.421875 C 146.417969 361.921875 146.21875 361.414062 146.082031 360.90625 C 145.949219 360.398438 145.882812 359.886719 145.882812 359.375 C 145.882812 358.863281 145.949219 358.351562 146.082031 357.84375 C 146.21875 357.335938 146.417969 356.828125 146.683594 356.328125 C 146.949219 355.824219 147.28125 355.328125 147.679688 354.839844 C 148.074219 354.347656 148.535156 353.867188 149.058594 353.394531 C 149.582031 352.921875 150.164062 352.460938 150.808594 352.007812 C 151.453125 351.558594 152.15625 351.121094 152.914062 350.695312 C 153.671875 350.269531 154.484375 349.859375 155.351562 349.460938 C 156.21875 349.066406 157.136719 348.6875 158.101562 348.328125 C 159.070312 347.964844 160.078125 347.621094 161.136719 347.296875 C 162.191406 346.972656 163.289062 346.667969 164.425781 346.382812 C 165.558594 346.097656 166.730469 345.835938 167.9375 345.59375 C 169.140625 345.355469 170.375 345.136719 171.636719 344.9375 C 172.898438 344.742188 174.183594 344.570312 175.492188 344.421875 C 176.800781 344.273438 178.125 344.148438 179.464844 344.050781 C 180.804688 343.949219 182.152344 343.875 183.511719 343.824219 C 184.871094 343.773438 186.234375 343.75 187.601562 343.75 C 188.96875 343.75 190.332031 343.773438 191.691406 343.824219 C 193.050781 343.875 194.402344 343.949219 195.742188 344.050781 C 197.082031 344.148438 198.40625 344.273438 199.710938 344.421875 C 201.019531 344.570312 202.304688 344.742188 203.566406 344.9375 C 204.828125 345.136719 206.0625 345.355469 207.269531 345.59375 C 208.472656 345.835938 209.644531 346.097656 210.78125 346.382812 C 211.917969 346.667969 213.011719 346.972656 214.070312 347.296875 C 215.125 347.621094 216.136719 347.964844 217.101562 348.328125 C 218.070312 348.6875 218.984375 349.066406 219.851562 349.460938 C 220.71875 349.859375 221.53125 350.269531 222.289062 350.695312 C 223.050781 351.121094 223.75 351.558594 224.394531 352.007812 C 225.039062 352.460938 225.621094 352.921875 226.144531 353.394531 C 226.667969 353.867188 227.128906 354.347656 227.523438 354.839844 C 227.921875 355.328125 228.253906 355.824219 228.519531 356.328125 C 228.785156 356.828125 228.988281 357.335938 229.121094 357.84375 C 229.253906 358.351562 229.320312 358.863281 229.320312 359.375 Z M 229.320312 359.375 " fill-opacity="1" fill-rule="nonzero"/><path fill="#99aab5" d="M 149.417969 111.71875 C 149.417969 111.71875 176.066406 364.5625 187.613281 364.582031 C 199.148438 364.59375 225.785156 111.71875 225.785156 111.71875 Z M 149.417969 111.71875 " fill-opacity="1" fill-rule="nonzero"/><g clip-path="url(#8406b7b9e7)"><path fill="#dd2e44" d="M 271.039062 83.332031 C 271.039062 84.695312 271.007812 86.058594 270.941406 87.421875 C 270.875 88.785156 270.773438 90.144531 270.640625 91.5 C 270.503906 92.859375 270.339844 94.210938 270.136719 95.5625 C 269.9375 96.910156 269.703125 98.253906 269.4375 99.589844 C 269.171875 100.929688 268.871094 102.257812 268.539062 103.582031 C 268.207031 104.90625 267.84375 106.21875 267.449219 107.523438 C 267.050781 108.828125 266.625 110.125 266.164062 111.40625 C 265.703125 112.691406 265.210938 113.964844 264.6875 115.222656 C 264.167969 116.484375 263.613281 117.730469 263.03125 118.964844 C 262.445312 120.195312 261.832031 121.414062 261.1875 122.617188 C 260.542969 123.820312 259.871094 125.003906 259.167969 126.175781 C 258.46875 127.34375 257.738281 128.496094 256.980469 129.628906 C 256.21875 130.765625 255.433594 131.878906 254.621094 132.976562 C 253.808594 134.070312 252.96875 135.144531 252.101562 136.199219 C 251.234375 137.253906 250.34375 138.285156 249.425781 139.296875 C 248.507812 140.308594 247.566406 141.292969 246.601562 142.257812 C 245.636719 143.222656 244.648438 144.164062 243.636719 145.078125 C 242.625 145.996094 241.589844 146.886719 240.535156 147.75 C 239.480469 148.617188 238.402344 149.453125 237.304688 150.265625 C 236.210938 151.078125 235.09375 151.863281 233.957031 152.621094 C 232.824219 153.378906 231.667969 154.109375 230.5 154.8125 C 229.328125 155.511719 228.140625 156.183594 226.933594 156.828125 C 225.730469 157.46875 224.511719 158.082031 223.277344 158.664062 C 222.042969 159.25 220.792969 159.800781 219.53125 160.324219 C 218.269531 160.84375 216.996094 161.335938 215.710938 161.796875 C 214.425781 162.253906 213.128906 162.683594 211.824219 163.078125 C 210.515625 163.472656 209.199219 163.835938 207.875 164.167969 C 206.550781 164.5 205.21875 164.800781 203.878906 165.066406 C 202.539062 165.332031 201.195312 165.566406 199.84375 165.765625 C 198.496094 165.964844 197.140625 166.132812 195.78125 166.265625 C 194.421875 166.398438 193.058594 166.5 191.695312 166.566406 C 190.332031 166.632812 188.96875 166.667969 187.601562 166.667969 C 186.238281 166.667969 184.871094 166.632812 183.507812 166.566406 C 182.144531 166.5 180.78125 166.398438 179.425781 166.265625 C 178.066406 166.132812 176.710938 165.964844 175.359375 165.765625 C 174.007812 165.566406 172.664062 165.332031 171.324219 165.066406 C 169.984375 164.800781 168.652344 164.5 167.328125 164.167969 C 166.003906 163.835938 164.6875 163.472656 163.382812 163.078125 C 162.074219 162.683594 160.777344 162.253906 159.492188 161.796875 C 158.207031 161.335938 156.933594 160.84375 155.671875 160.324219 C 154.410156 159.800781 153.160156 159.25 151.925781 158.664062 C 150.691406 158.082031 149.472656 157.46875 148.269531 156.828125 C 147.066406 156.183594 145.878906 155.511719 144.707031 154.8125 C 143.535156 154.109375 142.382812 153.378906 141.246094 152.621094 C 140.109375 151.863281 138.996094 151.078125 137.898438 150.265625 C 136.800781 149.453125 135.726562 148.617188 134.667969 147.75 C 133.613281 146.886719 132.582031 145.996094 131.566406 145.078125 C 130.554688 144.164062 129.566406 143.222656 128.601562 142.257812 C 127.636719 141.292969 126.695312 140.308594 125.777344 139.296875 C 124.859375 138.285156 123.96875 137.253906 123.101562 136.199219 C 122.238281 135.144531 121.398438 134.070312 120.582031 132.976562 C 119.769531 131.878906 118.984375 130.765625 118.226562 129.628906 C 117.46875 128.496094 116.738281 127.34375 116.035156 126.175781 C 115.332031 125.003906 114.660156 123.820312 114.015625 122.617188 C 113.371094 121.414062 112.757812 120.195312 112.175781 118.964844 C 111.589844 117.730469 111.039062 116.484375 110.515625 115.222656 C 109.992188 113.964844 109.5 112.691406 109.042969 111.40625 C 108.582031 110.125 108.152344 108.828125 107.757812 107.523438 C 107.359375 106.21875 106.996094 104.90625 106.664062 103.582031 C 106.332031 102.257812 106.035156 100.929688 105.765625 99.589844 C 105.5 98.253906 105.265625 96.910156 105.066406 95.5625 C 104.867188 94.210938 104.699219 92.859375 104.566406 91.5 C 104.429688 90.144531 104.332031 88.785156 104.265625 87.421875 C 104.195312 86.058594 104.164062 84.695312 104.164062 83.332031 C 104.164062 81.96875 104.195312 80.605469 104.265625 79.246094 C 104.332031 77.882812 104.429688 76.523438 104.566406 75.164062 C 104.699219 73.808594 104.867188 72.453125 105.066406 71.105469 C 105.265625 69.757812 105.5 68.414062 105.765625 67.074219 C 106.035156 65.738281 106.332031 64.40625 106.664062 63.085938 C 106.996094 61.761719 107.359375 60.449219 107.757812 59.144531 C 108.152344 57.835938 108.582031 56.542969 109.042969 55.257812 C 109.5 53.976562 109.992188 52.703125 110.515625 51.441406 C 111.039062 50.183594 111.589844 48.9375 112.175781 47.703125 C 112.757812 46.472656 113.371094 45.253906 114.015625 44.050781 C 114.660156 42.847656 115.332031 41.660156 116.035156 40.492188 C 116.738281 39.320312 117.46875 38.167969 118.226562 37.035156 C 118.984375 35.902344 119.769531 34.789062 120.582031 33.691406 C 121.398438 32.597656 122.238281 31.519531 123.101562 30.46875 C 123.96875 29.414062 124.859375 28.378906 125.777344 27.371094 C 126.695312 26.359375 127.636719 25.371094 128.601562 24.40625 C 129.566406 23.445312 130.554688 22.503906 131.566406 21.585938 C 132.582031 20.671875 133.613281 19.78125 134.667969 18.914062 C 135.726562 18.050781 136.800781 17.210938 137.898438 16.398438 C 138.996094 15.585938 140.109375 14.800781 141.246094 14.042969 C 142.382812 13.285156 143.535156 12.558594 144.707031 11.855469 C 145.878906 11.15625 147.066406 10.484375 148.269531 9.839844 C 149.472656 9.195312 150.691406 8.585938 151.925781 8 C 153.160156 7.417969 154.410156 6.867188 155.671875 6.34375 C 156.933594 5.820312 158.207031 5.332031 159.492188 4.871094 C 160.777344 4.410156 162.074219 3.984375 163.382812 3.589844 C 164.6875 3.191406 166.003906 2.828125 167.328125 2.496094 C 168.652344 2.167969 169.984375 1.867188 171.324219 1.601562 C 172.664062 1.335938 174.007812 1.101562 175.359375 0.902344 C 176.710938 0.703125 178.066406 0.535156 179.425781 0.402344 C 180.78125 0.269531 182.144531 0.167969 183.507812 0.101562 C 184.871094 0.0351562 186.238281 0 187.601562 0 C 188.96875 0 190.332031 0.0351562 191.695312 0.101562 C 193.058594 0.167969 194.421875 0.269531 195.78125 0.402344 C 197.140625 0.535156 198.496094 0.703125 199.84375 0.902344 C 201.195312 1.101562 202.539062 1.335938 203.878906 1.601562 C 205.21875 1.867188 206.550781 2.167969 207.875 2.496094 C 209.199219 2.828125 210.515625 3.191406 211.824219 3.589844 C 213.128906 3.984375 214.425781 4.410156 215.710938 4.871094 C 216.996094 5.332031 218.269531 5.820312 219.53125 6.34375 C 220.792969 6.867188 222.042969 7.417969 223.277344 8 C 224.511719 8.585938 225.730469 9.195312 226.933594 9.839844 C 228.140625 10.484375 229.328125 11.15625 230.5 11.855469 C 231.667969 12.558594 232.824219 13.285156 233.957031 14.042969 C 235.09375 14.800781 236.210938 15.585938 237.304688 16.398438 C 238.402344 17.210938 239.480469 18.050781 240.535156 18.914062 C 241.589844 19.78125 242.625 20.671875 243.636719 21.585938 C 244.648438 22.503906 245.636719 23.445312 246.601562 24.40625 C 247.566406 25.371094 248.507812 26.359375 249.425781 27.371094 C 250.34375 28.378906 251.234375 29.414062 252.101562 30.46875 C 252.96875 31.519531 253.808594 32.597656 254.621094 33.691406 C 255.433594 34.789062 256.21875 35.902344 256.980469 37.035156 C 257.738281 38.167969 258.46875 39.320312 259.167969 40.492188 C 259.871094 41.660156 260.542969 42.847656 261.1875 44.050781 C 261.832031 45.253906 262.445312 46.472656 263.03125 47.703125 C 263.613281 48.9375 264.167969 50.183594 264.6875 51.441406 C 265.210938 52.703125 265.703125 53.976562 266.164062 55.257812 C 266.625 56.542969 267.050781 57.835938 267.449219 59.144531 C 267.84375 60.449219 268.207031 61.761719 268.539062 63.085938 C 268.871094 64.40625 269.171875 65.738281 269.4375 67.074219 C 269.703125 68.414062 269.9375 69.757812 270.136719 71.105469 C 270.339844 72.453125 270.503906 73.808594 270.640625 75.164062 C 270.773438 76.523438 270.875 77.882812 270.941406 79.246094 C 271.007812 80.605469 271.039062 81.96875 271.039062 83.332031 Z M 271.039062 83.332031 " fill-opacity="1" fill-rule="nonzero"/></g></svg>