<svg xmlns="http://www.w3.org/2000/svg" xmlns:xlink="http://www.w3.org/1999/xlink" width="500" zoomAndPan="magnify" viewBox="0 0 375 374.999991" height="500" preserveAspectRatio="xMidYMid meet" version="1.0"><path fill="#be1931" d="M 246.453125 239.808594 L 135.183594 128.535156 L 230.570312 49.054688 L 325.945312 144.429688 Z M 246.453125 239.808594 " fill-opacity="1" fill-rule="nonzero"/><path fill="#dd2e44" d="M 357.722656 144.429688 C 340.171875 162.003906 311.707031 162.003906 294.15625 144.429688 L 230.570312 80.855469 C 212.996094 63.304688 212.996094 34.816406 230.570312 17.257812 C 248.109375 -0.292969 276.585938 -0.292969 294.15625 17.257812 L 357.722656 80.855469 C 375.285156 98.40625 375.285156 126.878906 357.722656 144.429688 Z M 357.722656 144.429688 " fill-opacity="1" fill-rule="nonzero"/><path fill="#99aab5" d="M 148.375 184.175781 C 148.375 184.175781 0.0703125 359.035156 8.007812 367.003906 C 15.957031 374.960938 190.824219 226.625 190.824219 226.625 Z M 148.375 184.175781 " fill-opacity="1" fill-rule="nonzero"/><path fill="#dd2e44" d="M 262.347656 287.511719 C 244.808594 305.082031 216.332031 305.082031 198.75 287.511719 L 87.488281 176.230469 C 69.9375 158.667969 69.9375 130.214844 87.488281 112.652344 C 105.050781 95.082031 133.527344 95.082031 151.085938 112.652344 L 262.347656 223.921875 C 279.910156 241.492188 279.910156 269.9375 262.347656 287.511719 Z M 262.347656 287.511719 " fill-opacity="1" fill-rule="nonzero"/></svg>