<svg xmlns="http://www.w3.org/2000/svg" xmlns:xlink="http://www.w3.org/1999/xlink" width="500" zoomAndPan="magnify" viewBox="0 0 375 374.999991" height="500" preserveAspectRatio="xMidYMid meet" version="1.0"><defs><clipPath id="aeac2f19ad"><path d="M 107 9.886719 L 277 9.886719 L 277 95 L 107 95 Z M 107 9.886719 " clip-rule="nonzero"/></clipPath></defs><g clip-path="url(#aeac2f19ad)"><path fill="#292f33" d="M 266.164062 94.058594 C 230.632812 94.058594 204.121094 77.738281 187.113281 45.484375 C 171.023438 77.363281 147.355469 94.058594 117.742188 94.058594 C 112.28125 94.058594 107.847656 89.621094 107.847656 84.15625 C 107.847656 78.6875 112.28125 74.253906 117.742188 74.253906 C 144.746094 74.253906 164.890625 54.875 177.613281 16.660156 C 178.972656 12.609375 182.742188 9.886719 187.003906 9.886719 C 191.269531 9.886719 195.039062 12.609375 196.394531 16.660156 C 209.476562 55.941406 231.648438 74.253906 266.164062 74.253906 C 271.632812 74.253906 276.058594 78.6875 276.058594 84.15625 C 276.058594 89.621094 271.632812 94.058594 266.164062 94.058594 Z M 266.164062 94.058594 " fill-opacity="1" fill-rule="nonzero"/></g><path fill="#ffac33" d="M 154.460938 100.535156 C 187.746094 133.867188 159.390625 159.492188 126.082031 192.816406 C 92.789062 226.136719 67.171875 254.527344 33.875 221.214844 C 0.570312 187.882812 0.570312 133.855469 33.875 100.535156 C 67.179688 67.203125 121.15625 67.203125 154.460938 100.535156 Z M 154.460938 100.535156 " fill-opacity="1" fill-rule="nonzero"/><path fill="#be1931" d="M 162.683594 113.585938 C 178.355469 129.28125 165.136719 167.910156 133.167969 199.90625 C 101.199219 231.902344 62.597656 245.140625 46.917969 229.433594 C 31.242188 213.75 44.460938 175.109375 76.421875 143.113281 C 108.402344 111.128906 147.011719 97.898438 162.683594 113.585938 Z M 162.683594 113.585938 " fill-opacity="1" fill-rule="nonzero"/><path fill="#ffac33" d="M 219.550781 100.535156 C 186.273438 133.867188 214.621094 159.492188 247.925781 192.816406 C 281.222656 226.136719 306.839844 254.527344 340.136719 221.214844 C 373.429688 187.882812 373.429688 133.855469 340.136719 100.535156 C 306.839844 67.203125 252.863281 67.203125 219.546875 100.535156 Z M 219.550781 100.535156 " fill-opacity="1" fill-rule="nonzero"/><path fill="#be1931" d="M 211.335938 113.585938 C 195.652344 129.28125 208.871094 167.910156 240.84375 199.90625 C 272.800781 231.902344 311.421875 245.140625 327.09375 229.433594 C 342.765625 213.75 329.546875 175.109375 297.578125 143.113281 C 265.617188 111.128906 227 97.898438 211.335938 113.585938 Z M 211.335938 113.585938 " fill-opacity="1" fill-rule="nonzero"/><path fill="#aa8dd8" d="M 230.640625 185.367188 C 232.609375 183.785156 235.183594 182.953125 237.902344 183.238281 C 246.480469 184.171875 253.714844 187.160156 258.769531 191.882812 C 264.125 196.886719 266.757812 203.597656 266.035156 210.324219 C 264.757812 222.117188 252.933594 232.949219 232.757812 230.773438 C 224.910156 229.929688 221.417969 232.453125 221.300781 233.652344 C 221.160156 234.851562 224.039062 238.070312 231.886719 238.921875 C 240.464844 239.851562 247.699219 242.84375 252.753906 247.566406 C 258.109375 252.566406 260.761719 259.28125 260.019531 266.003906 C 258.742188 277.808594 246.917969 288.632812 226.761719 286.464844 C 221.042969 285.847656 218.023438 287.027344 216.75 287.789062 C 215.730469 288.414062 215.324219 289.019531 215.285156 289.355469 C 215.164062 290.542969 218.003906 293.761719 225.871094 294.613281 C 231.304688 295.207031 235.242188 300.089844 234.648438 305.527344 C 234.0625 310.960938 229.195312 314.894531 223.742188 314.308594 C 203.589844 312.140625 194.328125 299.039062 195.605469 287.226562 C 196.878906 275.421875 208.703125 264.597656 228.878906 266.777344 C 234.597656 267.402344 237.597656 266.210938 238.875 265.449219 C 239.902344 264.835938 240.308594 264.230469 240.335938 263.894531 C 240.476562 262.699219 237.617188 259.480469 229.75 258.628906 C 209.59375 256.449219 200.332031 243.359375 201.609375 231.542969 C 202.886719 219.742188 214.710938 208.90625 234.867188 211.105469 C 240.585938 211.71875 243.601562 210.53125 244.878906 209.769531 C 245.898438 209.15625 246.304688 208.550781 246.34375 208.214844 C 246.460938 207.015625 243.601562 203.796875 235.757812 202.945312 C 230.324219 202.363281 226.386719 197.46875 226.980469 192.03125 C 227.296875 189.300781 228.671875 186.964844 230.640625 185.367188 Z M 230.640625 185.367188 " fill-opacity="1" fill-rule="nonzero"/><path fill="#77b255" d="M 159.953125 359.722656 C 140.429688 365.238281 126.964844 356.535156 123.757812 345.097656 C 120.550781 333.667969 127.5 319.199219 147.011719 313.707031 C 154.628906 311.566406 156.914062 307.921875 156.609375 306.761719 C 156.273438 305.585938 152.402344 303.675781 144.804688 305.8125 C 125.292969 311.320312 111.824219 302.605469 108.621094 291.167969 C 105.394531 279.730469 112.359375 265.28125 131.882812 259.785156 C 139.492188 257.636719 141.785156 253.984375 141.449219 252.824219 C 141.125 251.675781 137.265625 249.746094 129.65625 251.882812 C 124.410156 253.359375 118.929688 250.308594 117.457031 245.050781 C 115.992188 239.773438 119.046875 234.316406 124.3125 232.832031 C 143.816406 227.335938 157.292969 236.019531 160.515625 247.476562 C 163.722656 258.90625 156.765625 273.351562 137.246094 278.867188 C 129.625 281.007812 127.339844 284.652344 127.675781 285.808594 C 127.992188 286.96875 131.851562 288.898438 139.453125 286.761719 C 158.984375 281.253906 172.441406 289.949219 175.65625 301.40625 C 178.871094 312.824219 171.914062 327.273438 152.382812 332.789062 C 144.785156 334.917969 142.5 338.589844 142.816406 339.730469 C 143.152344 340.898438 147 342.820312 154.609375 340.6875 C 159.875 339.195312 165.324219 342.265625 166.808594 347.523438 C 168.285156 352.78125 165.21875 358.257812 159.953125 359.722656 Z M 159.953125 359.722656 " fill-opacity="1" fill-rule="nonzero"/><path fill="#5c913b" d="M 48.480469 277.253906 C 48.480469 278.230469 48.386719 279.195312 48.195312 280.152344 C 48.003906 281.109375 47.722656 282.039062 47.351562 282.9375 C 46.976562 283.839844 46.519531 284.695312 45.980469 285.507812 C 45.4375 286.316406 44.820312 287.066406 44.132812 287.757812 C 43.445312 288.445312 42.695312 289.0625 41.882812 289.605469 C 41.074219 290.144531 40.21875 290.605469 39.316406 290.976562 C 38.417969 291.351562 37.488281 291.632812 36.535156 291.824219 C 35.578125 292.011719 34.613281 292.109375 33.636719 292.109375 C 32.664062 292.109375 31.699219 292.011719 30.742188 291.824219 C 29.785156 291.632812 28.859375 291.351562 27.957031 290.976562 C 27.058594 290.605469 26.203125 290.144531 25.390625 289.605469 C 24.582031 289.0625 23.832031 288.445312 23.144531 287.757812 C 22.453125 287.066406 21.839844 286.316406 21.296875 285.507812 C 20.753906 284.695312 20.296875 283.839844 19.925781 282.9375 C 19.550781 282.039062 19.269531 281.109375 19.082031 280.152344 C 18.890625 279.195312 18.796875 278.230469 18.796875 277.253906 C 18.796875 276.277344 18.890625 275.3125 19.082031 274.355469 C 19.269531 273.398438 19.550781 272.472656 19.925781 271.570312 C 20.296875 270.667969 20.753906 269.8125 21.296875 269 C 21.839844 268.191406 22.453125 267.441406 23.144531 266.75 C 23.832031 266.0625 24.582031 265.445312 25.390625 264.902344 C 26.203125 264.363281 27.058594 263.902344 27.957031 263.53125 C 28.859375 263.15625 29.785156 262.875 30.742188 262.6875 C 31.699219 262.496094 32.664062 262.398438 33.636719 262.398438 C 34.613281 262.398438 35.578125 262.496094 36.535156 262.6875 C 37.488281 262.875 38.417969 263.15625 39.316406 263.53125 C 40.21875 263.902344 41.074219 264.363281 41.882812 264.902344 C 42.695312 265.445312 43.445312 266.0625 44.132812 266.75 C 44.820312 267.441406 45.4375 268.191406 45.980469 269 C 46.519531 269.8125 46.976562 270.667969 47.351562 271.570312 C 47.722656 272.472656 48.003906 273.398438 48.195312 274.355469 C 48.386719 275.3125 48.480469 276.277344 48.480469 277.253906 Z M 48.480469 277.253906 " fill-opacity="1" fill-rule="nonzero"/><path fill="#9266cc" d="M 97.953125 311.914062 C 97.953125 312.5625 97.921875 313.207031 97.859375 313.855469 C 97.792969 314.5 97.699219 315.140625 97.574219 315.777344 C 97.445312 316.414062 97.289062 317.042969 97.101562 317.660156 C 96.914062 318.28125 96.695312 318.890625 96.445312 319.492188 C 96.199219 320.089844 95.921875 320.675781 95.617188 321.25 C 95.3125 321.820312 94.976562 322.375 94.617188 322.914062 C 94.257812 323.457031 93.871094 323.976562 93.460938 324.476562 C 93.050781 324.976562 92.617188 325.457031 92.15625 325.917969 C 91.699219 326.375 91.21875 326.8125 90.71875 327.222656 C 90.21875 327.632812 89.695312 328.019531 89.160156 328.378906 C 88.621094 328.742188 88.0625 329.074219 87.492188 329.378906 C 86.921875 329.683594 86.335938 329.960938 85.738281 330.210938 C 85.136719 330.457031 84.527344 330.675781 83.910156 330.863281 C 83.289062 331.054688 82.660156 331.210938 82.023438 331.335938 C 81.390625 331.464844 80.75 331.558594 80.105469 331.621094 C 79.457031 331.6875 78.8125 331.71875 78.164062 331.71875 C 77.515625 331.71875 76.871094 331.6875 76.222656 331.621094 C 75.578125 331.558594 74.9375 331.464844 74.304688 331.335938 C 73.667969 331.210938 73.039062 331.054688 72.417969 330.863281 C 71.800781 330.675781 71.191406 330.457031 70.589844 330.210938 C 69.992188 329.960938 69.40625 329.683594 68.835938 329.378906 C 68.261719 329.074219 67.707031 328.742188 67.167969 328.378906 C 66.628906 328.019531 66.109375 327.632812 65.609375 327.222656 C 65.109375 326.8125 64.628906 326.375 64.171875 325.917969 C 63.710938 325.457031 63.277344 324.976562 62.867188 324.476562 C 62.457031 323.976562 62.070312 323.457031 61.710938 322.914062 C 61.347656 322.375 61.015625 321.820312 60.710938 321.25 C 60.40625 320.675781 60.128906 320.089844 59.882812 319.492188 C 59.632812 318.890625 59.414062 318.28125 59.226562 317.660156 C 59.039062 317.042969 58.882812 316.414062 58.753906 315.777344 C 58.628906 315.140625 58.535156 314.5 58.46875 313.855469 C 58.40625 313.207031 58.375 312.5625 58.375 311.914062 C 58.375 311.265625 58.40625 310.617188 58.46875 309.972656 C 58.535156 309.324219 58.628906 308.683594 58.753906 308.050781 C 58.882812 307.414062 59.039062 306.785156 59.226562 306.164062 C 59.414062 305.542969 59.632812 304.933594 59.882812 304.332031 C 60.128906 303.734375 60.40625 303.148438 60.710938 302.578125 C 61.015625 302.003906 61.347656 301.449219 61.710938 300.910156 C 62.070312 300.371094 62.457031 299.851562 62.867188 299.347656 C 63.277344 298.847656 63.710938 298.367188 64.171875 297.910156 C 64.628906 297.449219 65.109375 297.015625 65.609375 296.601562 C 66.109375 296.191406 66.628906 295.804688 67.167969 295.445312 C 67.707031 295.085938 68.261719 294.753906 68.835938 294.445312 C 69.40625 294.140625 69.992188 293.863281 70.589844 293.617188 C 71.191406 293.367188 71.800781 293.148438 72.417969 292.960938 C 73.039062 292.773438 73.667969 292.613281 74.304688 292.488281 C 74.9375 292.363281 75.578125 292.265625 76.222656 292.203125 C 76.871094 292.140625 77.515625 292.109375 78.164062 292.109375 C 78.8125 292.109375 79.457031 292.140625 80.105469 292.203125 C 80.75 292.265625 81.390625 292.363281 82.023438 292.488281 C 82.660156 292.613281 83.289062 292.773438 83.910156 292.960938 C 84.527344 293.148438 85.136719 293.367188 85.738281 293.617188 C 86.335938 293.863281 86.921875 294.140625 87.492188 294.445312 C 88.0625 294.753906 88.621094 295.085938 89.160156 295.445312 C 89.695312 295.804688 90.21875 296.191406 90.71875 296.601562 C 91.21875 297.015625 91.699219 297.449219 92.15625 297.910156 C 92.617188 298.367188 93.050781 298.847656 93.460938 299.347656 C 93.871094 299.851562 94.257812 300.371094 94.617188 300.910156 C 94.976562 301.449219 95.3125 302.003906 95.617188 302.578125 C 95.921875 303.148438 96.199219 303.734375 96.445312 304.332031 C 96.695312 304.933594 96.914062 305.542969 97.101562 306.164062 C 97.289062 306.785156 97.445312 307.414062 97.574219 308.050781 C 97.699219 308.683594 97.792969 309.324219 97.859375 309.972656 C 97.921875 310.617188 97.953125 311.265625 97.953125 311.914062 Z M 97.953125 311.914062 " fill-opacity="1" fill-rule="nonzero"/><path fill="#9266cc" d="M 325.53125 272.304688 C 325.53125 272.953125 325.5 273.597656 325.433594 274.242188 C 325.371094 274.890625 325.277344 275.53125 325.148438 276.167969 C 325.023438 276.800781 324.867188 277.429688 324.679688 278.050781 C 324.492188 278.671875 324.273438 279.28125 324.023438 279.882812 C 323.777344 280.480469 323.5 281.066406 323.195312 281.640625 C 322.886719 282.210938 322.554688 282.765625 322.195312 283.304688 C 321.835938 283.84375 321.449219 284.367188 321.039062 284.867188 C 320.628906 285.367188 320.191406 285.847656 319.734375 286.308594 C 319.277344 286.765625 318.796875 287.199219 318.296875 287.613281 C 317.792969 288.023438 317.273438 288.410156 316.734375 288.769531 C 316.195312 289.128906 315.640625 289.464844 315.070312 289.769531 C 314.5 290.074219 313.914062 290.351562 313.3125 290.601562 C 312.714844 290.847656 312.105469 291.066406 311.484375 291.253906 C 310.867188 291.441406 310.238281 291.601562 309.601562 291.726562 C 308.964844 291.855469 308.324219 291.949219 307.679688 292.011719 C 307.035156 292.074219 306.390625 292.109375 305.742188 292.109375 C 305.09375 292.109375 304.445312 292.074219 303.800781 292.011719 C 303.15625 291.949219 302.515625 291.855469 301.878906 291.726562 C 301.246094 291.601562 300.617188 291.441406 299.996094 291.253906 C 299.375 291.066406 298.765625 290.847656 298.167969 290.601562 C 297.570312 290.351562 296.984375 290.074219 296.414062 289.769531 C 295.839844 289.464844 295.285156 289.128906 294.746094 288.769531 C 294.207031 288.410156 293.6875 288.023438 293.1875 287.613281 C 292.6875 287.199219 292.207031 286.765625 291.75 286.308594 C 291.289062 285.847656 290.855469 285.367188 290.445312 284.867188 C 290.03125 284.367188 289.648438 283.84375 289.285156 283.304688 C 288.925781 282.765625 288.59375 282.210938 288.289062 281.640625 C 287.984375 281.066406 287.707031 280.480469 287.457031 279.882812 C 287.210938 279.28125 286.992188 278.671875 286.804688 278.050781 C 286.617188 277.429688 286.457031 276.800781 286.332031 276.167969 C 286.207031 275.53125 286.109375 274.890625 286.046875 274.242188 C 285.984375 273.597656 285.953125 272.953125 285.953125 272.304688 C 285.953125 271.652344 285.984375 271.007812 286.046875 270.363281 C 286.109375 269.714844 286.207031 269.074219 286.332031 268.4375 C 286.457031 267.804688 286.617188 267.175781 286.804688 266.554688 C 286.992188 265.933594 287.210938 265.324219 287.457031 264.722656 C 287.707031 264.125 287.984375 263.539062 288.289062 262.964844 C 288.59375 262.394531 288.925781 261.839844 289.285156 261.300781 C 289.648438 260.761719 290.03125 260.238281 290.445312 259.738281 C 290.855469 259.238281 291.289062 258.757812 291.75 258.296875 C 292.207031 257.839844 292.6875 257.40625 293.1875 256.992188 C 293.6875 256.582031 294.207031 256.195312 294.746094 255.835938 C 295.285156 255.476562 295.839844 255.140625 296.414062 254.835938 C 296.984375 254.53125 297.570312 254.253906 298.167969 254.003906 C 298.765625 253.757812 299.375 253.539062 299.996094 253.351562 C 300.617188 253.164062 301.246094 253.003906 301.878906 252.878906 C 302.515625 252.75 303.15625 252.65625 303.800781 252.59375 C 304.445312 252.53125 305.09375 252.496094 305.742188 252.496094 C 306.390625 252.496094 307.035156 252.53125 307.679688 252.59375 C 308.324219 252.65625 308.964844 252.75 309.601562 252.878906 C 310.238281 253.003906 310.867188 253.164062 311.484375 253.351562 C 312.105469 253.539062 312.714844 253.757812 313.3125 254.003906 C 313.914062 254.253906 314.5 254.53125 315.070312 254.835938 C 315.640625 255.140625 316.195312 255.476562 316.734375 255.835938 C 317.273438 256.195312 317.792969 256.582031 318.296875 256.992188 C 318.796875 257.40625 319.277344 257.839844 319.734375 258.296875 C 320.191406 258.757812 320.628906 259.238281 321.039062 259.738281 C 321.449219 260.238281 321.835938 260.761719 322.195312 261.300781 C 322.554688 261.839844 322.886719 262.394531 323.195312 262.964844 C 323.5 263.539062 323.777344 264.125 324.023438 264.722656 C 324.273438 265.324219 324.492188 265.933594 324.679688 266.554688 C 324.867188 267.175781 325.023438 267.804688 325.152344 268.4375 C 325.277344 269.074219 325.371094 269.714844 325.433594 270.363281 C 325.5 271.007812 325.53125 271.652344 325.53125 272.304688 Z M 325.53125 272.304688 " fill-opacity="1" fill-rule="nonzero"/><path fill="#5c913b" d="M 276.058594 316.863281 C 276.058594 317.839844 275.960938 318.804688 275.773438 319.761719 C 275.582031 320.71875 275.300781 321.648438 274.925781 322.546875 C 274.554688 323.449219 274.097656 324.304688 273.554688 325.117188 C 273.015625 325.925781 272.398438 326.675781 271.710938 327.367188 C 271.019531 328.058594 270.269531 328.671875 269.460938 329.214844 C 268.652344 329.757812 267.796875 330.214844 266.894531 330.585938 C 265.996094 330.960938 265.066406 331.242188 264.109375 331.433594 C 263.15625 331.621094 262.191406 331.71875 261.214844 331.71875 C 260.242188 331.71875 259.277344 331.621094 258.320312 331.433594 C 257.363281 331.242188 256.4375 330.960938 255.535156 330.585938 C 254.636719 330.214844 253.78125 329.757812 252.96875 329.214844 C 252.160156 328.671875 251.410156 328.058594 250.71875 327.367188 C 250.03125 326.675781 249.417969 325.925781 248.875 325.117188 C 248.332031 324.304688 247.875 323.449219 247.503906 322.546875 C 247.128906 321.648438 246.847656 320.71875 246.660156 319.761719 C 246.46875 318.804688 246.375 317.839844 246.375 316.863281 C 246.375 315.890625 246.46875 314.921875 246.660156 313.964844 C 246.847656 313.007812 247.128906 312.082031 247.503906 311.179688 C 247.875 310.277344 248.332031 309.421875 248.875 308.613281 C 249.417969 307.800781 250.03125 307.050781 250.71875 306.359375 C 251.410156 305.671875 252.160156 305.054688 252.96875 304.511719 C 253.78125 303.972656 254.636719 303.515625 255.535156 303.140625 C 256.4375 302.769531 257.363281 302.484375 258.320312 302.296875 C 259.277344 302.105469 260.242188 302.011719 261.214844 302.011719 C 262.191406 302.011719 263.15625 302.105469 264.109375 302.296875 C 265.066406 302.484375 265.996094 302.769531 266.894531 303.140625 C 267.796875 303.515625 268.652344 303.972656 269.460938 304.511719 C 270.269531 305.054688 271.019531 305.671875 271.710938 306.359375 C 272.398438 307.050781 273.015625 307.800781 273.554688 308.613281 C 274.097656 309.421875 274.554688 310.277344 274.925781 311.179688 C 275.300781 312.082031 275.582031 313.007812 275.773438 313.964844 C 275.960938 314.921875 276.058594 315.890625 276.058594 316.863281 Z M 276.058594 316.863281 " fill-opacity="1" fill-rule="nonzero"/><path fill="#5c913b" d="M 196.898438 198.035156 C 196.898438 199.007812 196.804688 199.976562 196.613281 200.933594 C 196.425781 201.886719 196.144531 202.816406 195.769531 203.71875 C 195.398438 204.621094 194.941406 205.476562 194.398438 206.285156 C 193.855469 207.097656 193.242188 207.847656 192.554688 208.539062 C 191.863281 209.226562 191.113281 209.84375 190.304688 210.382812 C 189.492188 210.925781 188.636719 211.382812 187.738281 211.757812 C 186.835938 212.128906 185.910156 212.410156 184.953125 212.601562 C 183.996094 212.792969 183.03125 212.886719 182.058594 212.886719 C 181.082031 212.886719 180.117188 212.792969 179.164062 212.601562 C 178.207031 212.410156 177.277344 212.128906 176.378906 211.757812 C 175.476562 211.382812 174.621094 210.925781 173.8125 210.382812 C 173 209.84375 172.253906 209.226562 171.5625 208.539062 C 170.875 207.847656 170.257812 207.097656 169.71875 206.285156 C 169.175781 205.476562 168.71875 204.621094 168.34375 203.71875 C 167.972656 202.816406 167.691406 201.886719 167.5 200.933594 C 167.3125 199.976562 167.214844 199.007812 167.214844 198.035156 C 167.214844 197.058594 167.3125 196.09375 167.5 195.136719 C 167.691406 194.179688 167.972656 193.25 168.34375 192.351562 C 168.71875 191.449219 169.175781 190.59375 169.71875 189.78125 C 170.257812 188.96875 170.875 188.21875 171.5625 187.53125 C 172.253906 186.839844 173 186.226562 173.8125 185.683594 C 174.621094 185.140625 175.476562 184.683594 176.378906 184.3125 C 177.277344 183.9375 178.207031 183.65625 179.164062 183.464844 C 180.117188 183.273438 181.082031 183.179688 182.058594 183.179688 C 183.03125 183.179688 183.996094 183.273438 184.953125 183.464844 C 185.910156 183.65625 186.835938 183.9375 187.738281 184.3125 C 188.636719 184.683594 189.492188 185.140625 190.304688 185.683594 C 191.113281 186.226562 191.863281 186.839844 192.554688 187.53125 C 193.242188 188.21875 193.855469 188.96875 194.398438 189.78125 C 194.941406 190.59375 195.398438 191.449219 195.769531 192.351562 C 196.144531 193.25 196.425781 194.179688 196.613281 195.136719 C 196.804688 196.09375 196.898438 197.058594 196.898438 198.035156 Z M 196.898438 198.035156 " fill-opacity="1" fill-rule="nonzero"/><path fill="#ffcc4d" d="M 97.953125 232.691406 C 97.953125 233.339844 97.921875 233.988281 97.859375 234.632812 C 97.792969 235.28125 97.699219 235.921875 97.574219 236.554688 C 97.445312 237.191406 97.289062 237.820312 97.101562 238.441406 C 96.914062 239.0625 96.695312 239.671875 96.445312 240.273438 C 96.199219 240.871094 95.921875 241.457031 95.617188 242.027344 C 95.3125 242.601562 94.976562 243.15625 94.617188 243.695312 C 94.257812 244.234375 93.871094 244.753906 93.460938 245.257812 C 93.050781 245.757812 92.617188 246.238281 92.15625 246.695312 C 91.699219 247.15625 91.21875 247.589844 90.71875 248.003906 C 90.21875 248.414062 89.695312 248.800781 89.160156 249.160156 C 88.621094 249.519531 88.0625 249.851562 87.492188 250.160156 C 86.921875 250.464844 86.335938 250.742188 85.738281 250.988281 C 85.136719 251.238281 84.527344 251.457031 83.910156 251.644531 C 83.289062 251.832031 82.660156 251.992188 82.023438 252.117188 C 81.390625 252.242188 80.75 252.339844 80.105469 252.402344 C 79.457031 252.464844 78.8125 252.496094 78.164062 252.496094 C 77.515625 252.496094 76.871094 252.464844 76.222656 252.402344 C 75.578125 252.339844 74.9375 252.242188 74.304688 252.117188 C 73.667969 251.992188 73.039062 251.832031 72.417969 251.644531 C 71.800781 251.457031 71.191406 251.238281 70.589844 250.988281 C 69.992188 250.742188 69.40625 250.464844 68.835938 250.160156 C 68.261719 249.851562 67.707031 249.519531 67.167969 249.160156 C 66.628906 248.800781 66.109375 248.414062 65.609375 248.003906 C 65.109375 247.589844 64.628906 247.15625 64.171875 246.695312 C 63.710938 246.238281 63.277344 245.757812 62.867188 245.257812 C 62.457031 244.753906 62.070312 244.234375 61.710938 243.695312 C 61.347656 243.15625 61.015625 242.601562 60.710938 242.027344 C 60.40625 241.457031 60.128906 240.871094 59.882812 240.273438 C 59.632812 239.671875 59.414062 239.0625 59.226562 238.441406 C 59.039062 237.820312 58.882812 237.191406 58.753906 236.554688 C 58.628906 235.921875 58.535156 235.28125 58.46875 234.632812 C 58.40625 233.988281 58.375 233.339844 58.375 232.691406 C 58.375 232.042969 58.40625 231.398438 58.46875 230.75 C 58.535156 230.105469 58.628906 229.464844 58.753906 228.828125 C 58.882812 228.191406 59.039062 227.5625 59.226562 226.945312 C 59.414062 226.324219 59.632812 225.714844 59.882812 225.113281 C 60.128906 224.515625 60.40625 223.929688 60.710938 223.355469 C 61.015625 222.785156 61.347656 222.230469 61.710938 221.691406 C 62.070312 221.148438 62.457031 220.628906 62.867188 220.128906 C 63.277344 219.628906 63.710938 219.148438 64.171875 218.6875 C 64.628906 218.230469 65.109375 217.792969 65.609375 217.382812 C 66.109375 216.972656 66.628906 216.585938 67.167969 216.226562 C 67.707031 215.863281 68.261719 215.53125 68.835938 215.226562 C 69.40625 214.921875 69.992188 214.644531 70.589844 214.394531 C 71.191406 214.148438 71.800781 213.929688 72.417969 213.742188 C 73.039062 213.550781 73.667969 213.394531 74.304688 213.269531 C 74.9375 213.140625 75.578125 213.046875 76.222656 212.984375 C 76.871094 212.917969 77.515625 212.886719 78.164062 212.886719 C 78.8125 212.886719 79.457031 212.917969 80.105469 212.984375 C 80.75 213.046875 81.390625 213.140625 82.023438 213.269531 C 82.660156 213.394531 83.289062 213.550781 83.910156 213.742188 C 84.527344 213.929688 85.136719 214.148438 85.738281 214.394531 C 86.335938 214.644531 86.921875 214.921875 87.492188 215.226562 C 88.0625 215.53125 88.621094 215.863281 89.160156 216.226562 C 89.695312 216.585938 90.21875 216.972656 90.71875 217.382812 C 91.21875 217.792969 91.699219 218.230469 92.15625 218.6875 C 92.617188 219.148438 93.050781 219.628906 93.460938 220.128906 C 93.871094 220.628906 94.257812 221.148438 94.617188 221.691406 C 94.976562 222.230469 95.3125 222.785156 95.617188 223.355469 C 95.921875 223.929688 96.199219 224.515625 96.445312 225.113281 C 96.695312 225.714844 96.914062 226.324219 97.101562 226.945312 C 97.289062 227.5625 97.445312 228.191406 97.574219 228.828125 C 97.699219 229.464844 97.792969 230.105469 97.859375 230.75 C 97.921875 231.398438 97.953125 232.042969 97.953125 232.691406 Z M 97.953125 232.691406 " fill-opacity="1" fill-rule="nonzero"/><path fill="#ffcc4d" d="M 295.847656 168.328125 C 295.847656 169.300781 295.75 170.269531 295.5625 171.222656 C 295.371094 172.179688 295.089844 173.109375 294.71875 174.011719 C 294.34375 174.910156 293.886719 175.769531 293.34375 176.578125 C 292.804688 177.390625 292.1875 178.140625 291.5 178.828125 C 290.808594 179.519531 290.0625 180.136719 289.25 180.675781 C 288.441406 181.21875 287.585938 181.675781 286.683594 182.050781 C 285.785156 182.421875 284.855469 182.703125 283.898438 182.894531 C 282.945312 183.085938 281.980469 183.179688 281.003906 183.179688 C 280.03125 183.179688 279.066406 183.085938 278.109375 182.894531 C 277.152344 182.703125 276.226562 182.421875 275.324219 182.050781 C 274.425781 181.675781 273.570312 181.21875 272.757812 180.675781 C 271.949219 180.136719 271.199219 179.519531 270.507812 178.828125 C 269.820312 178.140625 269.207031 177.390625 268.664062 176.578125 C 268.121094 175.769531 267.664062 174.910156 267.292969 174.011719 C 266.917969 173.109375 266.636719 172.179688 266.449219 171.222656 C 266.257812 170.269531 266.164062 169.300781 266.164062 168.328125 C 266.164062 167.351562 266.257812 166.386719 266.449219 165.429688 C 266.636719 164.472656 266.917969 163.542969 267.292969 162.640625 C 267.664062 161.742188 268.121094 160.886719 268.664062 160.074219 C 269.207031 159.261719 269.820312 158.511719 270.507812 157.824219 C 271.199219 157.132812 271.949219 156.519531 272.757812 155.976562 C 273.570312 155.433594 274.425781 154.976562 275.324219 154.601562 C 276.226562 154.230469 277.152344 153.949219 278.109375 153.757812 C 279.066406 153.566406 280.03125 153.472656 281.003906 153.472656 C 281.980469 153.472656 282.945312 153.566406 283.898438 153.757812 C 284.855469 153.949219 285.785156 154.230469 286.683594 154.601562 C 287.585938 154.976562 288.441406 155.433594 289.25 155.976562 C 290.0625 156.519531 290.808594 157.132812 291.5 157.824219 C 292.1875 158.511719 292.804688 159.261719 293.34375 160.074219 C 293.886719 160.886719 294.34375 161.742188 294.71875 162.640625 C 295.089844 163.542969 295.371094 164.472656 295.5625 165.429688 C 295.75 166.386719 295.847656 167.351562 295.847656 168.328125 Z M 295.847656 168.328125 " fill-opacity="1" fill-rule="nonzero"/><path fill="#ffcc4d" d="M 147.425781 148.519531 C 147.425781 149.496094 147.332031 150.460938 147.140625 151.417969 C 146.953125 152.375 146.667969 153.304688 146.296875 154.207031 C 145.925781 155.105469 145.464844 155.960938 144.925781 156.773438 C 144.382812 157.585938 143.769531 158.335938 143.078125 159.023438 C 142.390625 159.714844 141.640625 160.328125 140.832031 160.871094 C 140.019531 161.414062 139.164062 161.871094 138.265625 162.246094 C 137.363281 162.617188 136.4375 162.898438 135.480469 163.089844 C 134.523438 163.28125 133.558594 163.375 132.585938 163.375 C 131.609375 163.375 130.644531 163.28125 129.6875 163.089844 C 128.734375 162.898438 127.804688 162.617188 126.90625 162.246094 C 126.003906 161.871094 125.148438 161.414062 124.339844 160.871094 C 123.527344 160.328125 122.777344 159.714844 122.089844 159.023438 C 121.402344 158.335938 120.785156 157.585938 120.242188 156.773438 C 119.703125 155.960938 119.246094 155.105469 118.871094 154.207031 C 118.5 153.304688 118.21875 152.375 118.027344 151.417969 C 117.835938 150.460938 117.742188 149.496094 117.742188 148.519531 C 117.742188 147.546875 117.835938 146.582031 118.027344 145.625 C 118.21875 144.667969 118.5 143.738281 118.871094 142.835938 C 119.246094 141.9375 119.703125 141.078125 120.242188 140.269531 C 120.785156 139.457031 121.402344 138.707031 122.089844 138.019531 C 122.777344 137.328125 123.527344 136.710938 124.339844 136.171875 C 125.148438 135.628906 126.003906 135.171875 126.90625 134.796875 C 127.804688 134.425781 128.734375 134.144531 129.6875 133.953125 C 130.644531 133.761719 131.609375 133.667969 132.585938 133.667969 C 133.558594 133.667969 134.523438 133.761719 135.480469 133.953125 C 136.4375 134.144531 137.363281 134.425781 138.265625 134.796875 C 139.164062 135.171875 140.019531 135.628906 140.832031 136.171875 C 141.640625 136.710938 142.390625 137.328125 143.078125 138.019531 C 143.769531 138.707031 144.382812 139.457031 144.925781 140.269531 C 145.464844 141.078125 145.925781 141.9375 146.296875 142.835938 C 146.667969 143.738281 146.953125 144.667969 147.140625 145.625 C 147.332031 146.582031 147.425781 147.546875 147.425781 148.519531 Z M 147.425781 148.519531 " fill-opacity="1" fill-rule="nonzero"/></svg>