<svg xmlns="http://www.w3.org/2000/svg" xmlns:xlink="http://www.w3.org/1999/xlink" width="500" zoomAndPan="magnify" viewBox="0 0 375 374.999991" height="500" preserveAspectRatio="xMidYMid meet" version="1.0"><path fill="#3b88c3" d="M 375 333.332031 C 375 356.34375 356.34375 375 333.332031 375 L 41.667969 375 C 18.65625 375 0 356.34375 0 333.332031 L 0 41.667969 C 0 18.65625 18.65625 0 41.667969 0 L 333.332031 0 C 356.34375 0 375 18.65625 375 41.667969 Z M 375 333.332031 " fill-opacity="1" fill-rule="nonzero"/><path fill="#ffffff" d="M 314.582031 104.167969 L 239.582031 41.667969 L 239.582031 83.332031 L 156.25 83.332031 C 98.71875 83.332031 52.082031 129.96875 52.082031 187.5 C 52.082031 202.230469 55.175781 216.230469 60.699219 228.9375 L 95.074219 200.292969 C 94.207031 196.15625 93.75 191.886719 93.75 187.5 C 93.75 152.980469 121.730469 125 156.25 125 L 239.582031 125 L 239.582031 166.667969 Z M 314.3125 146.074219 L 279.925781 174.71875 C 280.792969 178.84375 281.25 183.113281 281.25 187.5 C 281.25 222.011719 253.261719 250 218.75 250 L 135.417969 250 L 135.417969 208.332031 L 60.417969 270.832031 L 135.417969 333.332031 L 135.417969 291.667969 L 218.75 291.667969 C 276.269531 291.667969 322.917969 245.019531 322.917969 187.5 C 322.917969 172.769531 319.824219 158.769531 314.3125 146.074219 Z M 314.3125 146.074219 " fill-opacity="1" fill-rule="nonzero"/></svg>