<svg xmlns="http://www.w3.org/2000/svg" xmlns:xlink="http://www.w3.org/1999/xlink" width="500" zoomAndPan="magnify" viewBox="0 0 375 374.999991" height="500" preserveAspectRatio="xMidYMid meet" version="1.0"><defs><clipPath id="66b9e1b0f0"><path d="M 0 125 L 375 125 L 375 364.566406 L 0 364.566406 Z M 0 125 " clip-rule="nonzero"/></clipPath></defs><path fill="#292f33" d="M 291.269531 281.519531 C 291.269531 283.21875 291.1875 284.914062 291.019531 286.605469 C 290.855469 288.296875 290.605469 289.976562 290.273438 291.644531 C 289.941406 293.3125 289.53125 294.957031 289.035156 296.585938 C 288.542969 298.210938 287.972656 299.8125 287.320312 301.382812 C 286.671875 302.953125 285.945312 304.488281 285.144531 305.988281 C 284.34375 307.484375 283.472656 308.941406 282.527344 310.355469 C 281.582031 311.769531 280.570312 313.132812 279.492188 314.445312 C 278.414062 315.761719 277.277344 317.019531 276.074219 318.222656 C 274.871094 319.421875 273.613281 320.5625 272.300781 321.640625 C 270.988281 322.71875 269.625 323.730469 268.210938 324.675781 C 266.796875 325.621094 265.34375 326.492188 263.84375 327.296875 C 262.34375 328.097656 260.8125 328.824219 259.242188 329.472656 C 257.671875 330.125 256.074219 330.695312 254.445312 331.1875 C 252.820312 331.683594 251.175781 332.09375 249.507812 332.425781 C 247.839844 332.757812 246.164062 333.007812 244.472656 333.175781 C 242.78125 333.339844 241.085938 333.425781 239.386719 333.425781 C 237.6875 333.425781 235.992188 333.339844 234.300781 333.175781 C 232.609375 333.007812 230.929688 332.757812 229.261719 332.425781 C 227.597656 332.09375 225.949219 331.683594 224.324219 331.1875 C 222.699219 330.695312 221.101562 330.125 219.53125 329.472656 C 217.960938 328.824219 216.425781 328.097656 214.925781 327.296875 C 213.429688 326.492188 211.972656 325.621094 210.558594 324.675781 C 209.148438 323.730469 207.785156 322.71875 206.46875 321.640625 C 205.15625 320.5625 203.898438 319.421875 202.695312 318.222656 C 201.496094 317.019531 200.355469 315.761719 199.277344 314.445312 C 198.199219 313.132812 197.1875 311.769531 196.246094 310.355469 C 195.300781 308.941406 194.425781 307.484375 193.625 305.988281 C 192.824219 304.488281 192.101562 302.953125 191.449219 301.382812 C 190.800781 299.8125 190.226562 298.210938 189.734375 296.585938 C 189.242188 294.957031 188.828125 293.3125 188.496094 291.644531 C 188.164062 289.976562 187.917969 288.296875 187.75 286.605469 C 187.582031 284.914062 187.5 283.21875 187.5 281.519531 C 187.5 279.816406 187.582031 278.121094 187.75 276.429688 C 187.917969 274.738281 188.164062 273.058594 188.496094 271.390625 C 188.828125 269.722656 189.242188 268.078125 189.734375 266.449219 C 190.226562 264.824219 190.800781 263.226562 191.449219 261.65625 C 192.101562 260.085938 192.824219 258.550781 193.625 257.050781 C 194.425781 255.550781 195.300781 254.09375 196.246094 252.679688 C 197.1875 251.265625 198.199219 249.902344 199.277344 248.589844 C 200.355469 247.273438 201.496094 246.015625 202.695312 244.816406 C 203.898438 243.613281 205.15625 242.472656 206.46875 241.394531 C 207.785156 240.316406 209.148438 239.304688 210.558594 238.359375 C 211.972656 237.414062 213.429688 236.542969 214.925781 235.742188 C 216.425781 234.941406 217.960938 234.214844 219.53125 233.5625 C 221.101562 232.914062 222.699219 232.339844 224.324219 231.847656 C 225.949219 231.355469 227.597656 230.941406 229.261719 230.609375 C 230.929688 230.277344 232.609375 230.027344 234.300781 229.863281 C 235.992188 229.695312 237.6875 229.613281 239.386719 229.613281 C 241.085938 229.613281 242.78125 229.695312 244.472656 229.863281 C 246.164062 230.027344 247.839844 230.277344 249.507812 230.609375 C 251.175781 230.941406 252.820312 231.355469 254.445312 231.847656 C 256.074219 232.339844 257.671875 232.914062 259.242188 233.5625 C 260.8125 234.214844 262.34375 234.941406 263.84375 235.742188 C 265.34375 236.542969 266.796875 237.414062 268.210938 238.359375 C 269.625 239.304688 270.988281 240.316406 272.300781 241.394531 C 273.613281 242.472656 274.871094 243.613281 276.074219 244.816406 C 277.277344 246.015625 278.414062 247.273438 279.492188 248.589844 C 280.570312 249.902344 281.582031 251.265625 282.527344 252.679688 C 283.472656 254.09375 284.34375 255.550781 285.144531 257.050781 C 285.945312 258.550781 286.671875 260.085938 287.320312 261.65625 C 287.972656 263.226562 288.542969 264.824219 289.035156 266.449219 C 289.53125 268.078125 289.941406 269.722656 290.273438 271.390625 C 290.605469 273.058594 290.855469 274.738281 291.019531 276.429688 C 291.1875 278.121094 291.269531 279.816406 291.269531 281.519531 Z M 291.269531 281.519531 " fill-opacity="1" fill-rule="nonzero"/><path fill="#292f33" d="M 187.5 281.519531 C 187.5 283.21875 187.417969 284.914062 187.25 286.605469 C 187.082031 288.296875 186.835938 289.976562 186.503906 291.644531 C 186.171875 293.3125 185.757812 294.957031 185.265625 296.585938 C 184.773438 298.210938 184.199219 299.8125 183.550781 301.382812 C 182.898438 302.953125 182.175781 304.488281 181.375 305.988281 C 180.574219 307.484375 179.699219 308.941406 178.753906 310.355469 C 177.8125 311.769531 176.800781 313.132812 175.722656 314.445312 C 174.644531 315.761719 173.503906 317.019531 172.304688 318.222656 C 171.101562 319.421875 169.84375 320.5625 168.53125 321.640625 C 167.214844 322.71875 165.851562 323.730469 164.441406 324.675781 C 163.027344 325.621094 161.570312 326.492188 160.074219 327.296875 C 158.574219 328.097656 157.039062 328.824219 155.46875 329.472656 C 153.898438 330.125 152.300781 330.695312 150.675781 331.1875 C 149.050781 331.683594 147.402344 332.09375 145.738281 332.425781 C 144.070312 332.757812 142.390625 333.007812 140.699219 333.175781 C 139.007812 333.339844 137.3125 333.425781 135.613281 333.425781 C 133.914062 333.425781 132.21875 333.339844 130.527344 333.175781 C 128.835938 333.007812 127.160156 332.757812 125.492188 332.425781 C 123.824219 332.09375 122.179688 331.683594 120.554688 331.1875 C 118.925781 330.695312 117.328125 330.125 115.757812 329.472656 C 114.1875 328.824219 112.65625 328.097656 111.15625 327.296875 C 109.65625 326.492188 108.203125 325.621094 106.789062 324.675781 C 105.375 323.730469 104.011719 322.71875 102.699219 321.640625 C 101.386719 320.5625 100.128906 319.421875 98.925781 318.222656 C 97.722656 317.019531 96.585938 315.761719 95.507812 314.445312 C 94.429688 313.132812 93.417969 311.769531 92.472656 310.355469 C 91.527344 308.941406 90.65625 307.484375 89.855469 305.988281 C 89.054688 304.488281 88.328125 302.953125 87.679688 301.382812 C 87.027344 299.8125 86.457031 298.210938 85.964844 296.585938 C 85.46875 294.957031 85.058594 293.3125 84.726562 291.644531 C 84.394531 289.976562 84.144531 288.296875 83.980469 286.605469 C 83.8125 284.914062 83.730469 283.21875 83.730469 281.519531 C 83.730469 279.816406 83.8125 278.121094 83.980469 276.429688 C 84.144531 274.738281 84.394531 273.058594 84.726562 271.390625 C 85.058594 269.722656 85.46875 268.078125 85.964844 266.449219 C 86.457031 264.824219 87.027344 263.226562 87.679688 261.65625 C 88.328125 260.085938 89.054688 258.550781 89.855469 257.050781 C 90.65625 255.550781 91.527344 254.09375 92.472656 252.679688 C 93.417969 251.265625 94.429688 249.902344 95.507812 248.589844 C 96.585938 247.273438 97.722656 246.015625 98.925781 244.816406 C 100.128906 243.613281 101.386719 242.472656 102.699219 241.394531 C 104.011719 240.316406 105.375 239.304688 106.789062 238.359375 C 108.203125 237.414062 109.65625 236.542969 111.15625 235.742188 C 112.65625 234.941406 114.1875 234.214844 115.757812 233.5625 C 117.328125 232.914062 118.925781 232.339844 120.554688 231.847656 C 122.179688 231.355469 123.824219 230.941406 125.492188 230.609375 C 127.160156 230.277344 128.835938 230.027344 130.527344 229.863281 C 132.21875 229.695312 133.914062 229.613281 135.613281 229.613281 C 137.3125 229.613281 139.007812 229.695312 140.699219 229.863281 C 142.390625 230.027344 144.070312 230.277344 145.738281 230.609375 C 147.402344 230.941406 149.050781 231.355469 150.675781 231.847656 C 152.300781 232.339844 153.898438 232.914062 155.46875 233.5625 C 157.039062 234.214844 158.574219 234.941406 160.074219 235.742188 C 161.570312 236.542969 163.027344 237.414062 164.441406 238.359375 C 165.851562 239.304688 167.214844 240.316406 168.53125 241.394531 C 169.84375 242.472656 171.101562 243.613281 172.304688 244.816406 C 173.503906 246.015625 174.644531 247.273438 175.722656 248.589844 C 176.800781 249.902344 177.8125 251.265625 178.753906 252.679688 C 179.699219 254.09375 180.574219 255.550781 181.375 257.050781 C 182.175781 258.550781 182.898438 260.085938 183.550781 261.65625 C 184.199219 263.226562 184.773438 264.824219 185.265625 266.449219 C 185.757812 268.078125 186.171875 269.722656 186.503906 271.390625 C 186.835938 273.058594 187.082031 274.738281 187.25 276.429688 C 187.417969 278.121094 187.5 279.816406 187.5 281.519531 Z M 187.5 281.519531 " fill-opacity="1" fill-rule="nonzero"/><path fill="#292f33" d="M 104.484375 125.800781 L 270.515625 125.800781 L 270.515625 291.898438 L 104.484375 291.898438 Z M 104.484375 125.800781 " fill-opacity="1" fill-rule="nonzero"/><g clip-path="url(#66b9e1b0f0)"><path fill="#292f33" d="M 187.5 208.847656 C 187.5 162.984375 150.328125 125.800781 104.484375 125.800781 C 61.824219 125.800781 26.71875 158.003906 22.035156 199.433594 L 22.007812 199.414062 L 1.25 327.726562 L 1.292969 327.757812 C 0.941406 329.605469 0.710938 331.472656 0.710938 333.425781 C 0.710938 350.625 14.648438 364.566406 31.84375 364.566406 C 38.898438 364.566406 45.332031 362.140625 50.554688 358.171875 L 50.648438 358.234375 L 156.046875 273.867188 C 156.667969 273.378906 157.292969 272.902344 157.894531 272.394531 L 158.632812 271.789062 L 158.578125 271.761719 C 176.261719 256.539062 187.5 234.023438 187.5 208.847656 Z M 187.5 208.847656 C 187.5 162.984375 224.671875 125.800781 270.515625 125.800781 C 313.175781 125.800781 348.28125 158.003906 352.964844 199.433594 L 353.003906 199.414062 L 373.757812 327.726562 L 373.71875 327.757812 C 374.058594 329.605469 374.289062 331.472656 374.289062 333.425781 C 374.289062 350.625 360.351562 364.566406 343.15625 364.566406 C 336.101562 364.566406 329.667969 362.140625 324.445312 358.171875 L 324.34375 358.234375 L 218.953125 273.867188 C 218.332031 273.378906 217.71875 272.902344 217.105469 272.394531 L 216.367188 271.789062 L 216.421875 271.761719 C 198.75 256.539062 187.5 234.023438 187.5 208.847656 Z M 187.5 208.847656 " fill-opacity="1" fill-rule="nonzero"/></g><path fill="#f18f26" d="M 332.78125 198.46875 C 332.78125 200.167969 332.695312 201.863281 332.53125 203.554688 C 332.363281 205.246094 332.113281 206.925781 331.78125 208.59375 C 331.449219 210.261719 331.039062 211.910156 330.546875 213.535156 C 330.050781 215.164062 329.480469 216.761719 328.828125 218.332031 C 328.179688 219.902344 327.453125 221.4375 326.652344 222.9375 C 325.851562 224.4375 324.980469 225.890625 324.035156 227.304688 C 323.089844 228.71875 322.078125 230.082031 321.003906 231.398438 C 319.925781 232.710938 318.785156 233.96875 317.582031 235.171875 C 316.382812 236.375 315.125 237.515625 313.808594 238.59375 C 312.496094 239.671875 311.132812 240.683594 309.71875 241.625 C 308.308594 242.570312 306.851562 243.445312 305.351562 244.246094 C 303.855469 245.046875 302.320312 245.773438 300.75 246.421875 C 299.179688 247.074219 297.582031 247.644531 295.957031 248.140625 C 294.328125 248.632812 292.683594 249.046875 291.015625 249.378906 C 289.351562 249.707031 287.671875 249.957031 285.980469 250.125 C 284.289062 250.292969 282.59375 250.375 280.894531 250.375 C 279.195312 250.375 277.5 250.292969 275.808594 250.125 C 274.117188 249.957031 272.4375 249.707031 270.773438 249.378906 C 269.105469 249.046875 267.457031 248.632812 265.832031 248.140625 C 264.207031 247.644531 262.609375 247.074219 261.039062 246.421875 C 259.46875 245.773438 257.933594 245.046875 256.433594 244.246094 C 254.9375 243.445312 253.480469 242.570312 252.066406 241.625 C 250.65625 240.683594 249.292969 239.671875 247.976562 238.59375 C 246.664062 237.515625 245.40625 236.375 244.207031 235.171875 C 243.003906 233.96875 241.863281 232.710938 240.785156 231.398438 C 239.707031 230.082031 238.695312 228.71875 237.753906 227.304688 C 236.808594 225.890625 235.9375 224.4375 235.136719 222.9375 C 234.332031 221.4375 233.609375 219.902344 232.957031 218.332031 C 232.308594 216.761719 231.734375 215.164062 231.242188 213.535156 C 230.75 211.910156 230.335938 210.261719 230.003906 208.59375 C 229.675781 206.925781 229.425781 205.246094 229.257812 203.554688 C 229.089844 201.863281 229.007812 200.167969 229.007812 198.46875 C 229.007812 196.769531 229.089844 195.074219 229.257812 193.378906 C 229.425781 191.6875 229.675781 190.007812 230.003906 188.34375 C 230.335938 186.675781 230.75 185.027344 231.242188 183.402344 C 231.734375 181.773438 232.308594 180.175781 232.957031 178.605469 C 233.609375 177.035156 234.332031 175.5 235.136719 174 C 235.9375 172.5 236.808594 171.042969 237.753906 169.628906 C 238.695312 168.21875 239.707031 166.855469 240.785156 165.539062 C 241.863281 164.226562 243.003906 162.96875 244.207031 161.765625 C 245.40625 160.5625 246.664062 159.421875 247.976562 158.34375 C 249.292969 157.265625 250.65625 156.253906 252.066406 155.308594 C 253.480469 154.367188 254.9375 153.492188 256.433594 152.691406 C 257.933594 151.890625 259.46875 151.164062 261.039062 150.511719 C 262.609375 149.863281 264.207031 149.289062 265.832031 148.796875 C 267.457031 148.304688 269.105469 147.890625 270.773438 147.558594 C 272.4375 147.226562 274.117188 146.980469 275.808594 146.8125 C 277.5 146.644531 279.195312 146.5625 280.894531 146.5625 C 282.59375 146.5625 284.289062 146.644531 285.980469 146.8125 C 287.671875 146.980469 289.351562 147.226562 291.015625 147.558594 C 292.683594 147.890625 294.328125 148.304688 295.957031 148.796875 C 297.582031 149.289062 299.179688 149.863281 300.75 150.511719 C 302.320312 151.164062 303.855469 151.890625 305.351562 152.691406 C 306.851562 153.492188 308.308594 154.367188 309.71875 155.308594 C 311.132812 156.253906 312.496094 157.265625 313.808594 158.34375 C 315.125 159.421875 316.382812 160.5625 317.582031 161.765625 C 318.785156 162.96875 319.925781 164.226562 321.003906 165.539062 C 322.078125 166.855469 323.089844 168.21875 324.035156 169.628906 C 324.980469 171.042969 325.851562 172.5 326.652344 174 C 327.453125 175.5 328.179688 177.035156 328.828125 178.605469 C 329.480469 180.175781 330.050781 181.773438 330.546875 183.402344 C 331.039062 185.027344 331.449219 186.675781 331.78125 188.34375 C 332.113281 190.007812 332.363281 191.6875 332.53125 193.378906 C 332.695312 195.074219 332.78125 196.769531 332.78125 198.46875 Z M 332.78125 198.46875 " fill-opacity="1" fill-rule="nonzero"/><path fill="#67757f" d="M 270.515625 281.519531 C 270.515625 282.539062 270.46875 283.554688 270.367188 284.570312 C 270.265625 285.585938 270.117188 286.59375 269.917969 287.59375 C 269.71875 288.59375 269.472656 289.582031 269.175781 290.558594 C 268.878906 291.535156 268.539062 292.492188 268.148438 293.4375 C 267.757812 294.378906 267.320312 295.300781 266.839844 296.199219 C 266.359375 297.097656 265.835938 297.972656 265.269531 298.820312 C 264.703125 299.667969 264.097656 300.488281 263.449219 301.277344 C 262.804688 302.0625 262.121094 302.820312 261.398438 303.539062 C 260.675781 304.261719 259.921875 304.945312 259.136719 305.59375 C 258.347656 306.238281 257.527344 306.847656 256.679688 307.414062 C 255.832031 307.980469 254.960938 308.503906 254.0625 308.984375 C 253.160156 309.464844 252.242188 309.902344 251.300781 310.292969 C 250.355469 310.679688 249.398438 311.023438 248.421875 311.320312 C 247.445312 311.617188 246.457031 311.863281 245.457031 312.0625 C 244.457031 312.261719 243.453125 312.410156 242.4375 312.511719 C 241.421875 312.613281 240.40625 312.660156 239.386719 312.660156 C 238.367188 312.660156 237.347656 312.613281 236.335938 312.511719 C 235.320312 312.410156 234.3125 312.261719 233.3125 312.0625 C 232.3125 311.863281 231.324219 311.617188 230.347656 311.320312 C 229.371094 311.023438 228.414062 310.679688 227.472656 310.292969 C 226.53125 309.902344 225.609375 309.464844 224.710938 308.984375 C 223.8125 308.503906 222.9375 307.980469 222.089844 307.414062 C 221.242188 306.847656 220.425781 306.238281 219.636719 305.59375 C 218.847656 304.945312 218.09375 304.261719 217.371094 303.539062 C 216.652344 302.820312 215.96875 302.0625 215.320312 301.277344 C 214.675781 300.488281 214.066406 299.667969 213.5 298.820312 C 212.933594 297.972656 212.410156 297.097656 211.929688 296.199219 C 211.449219 295.300781 211.015625 294.378906 210.625 293.4375 C 210.234375 292.492188 209.890625 291.535156 209.59375 290.558594 C 209.296875 289.582031 209.050781 288.59375 208.851562 287.59375 C 208.652344 286.59375 208.503906 285.585938 208.402344 284.570312 C 208.304688 283.554688 208.253906 282.539062 208.253906 281.519531 C 208.253906 280.5 208.304688 279.480469 208.402344 278.464844 C 208.503906 277.449219 208.652344 276.441406 208.851562 275.441406 C 209.050781 274.441406 209.296875 273.453125 209.59375 272.476562 C 209.890625 271.5 210.234375 270.542969 210.625 269.601562 C 211.015625 268.65625 211.449219 267.738281 211.929688 266.835938 C 212.410156 265.9375 212.933594 265.0625 213.5 264.214844 C 214.066406 263.367188 214.675781 262.550781 215.320312 261.761719 C 215.96875 260.972656 216.652344 260.21875 217.371094 259.496094 C 218.09375 258.773438 218.847656 258.089844 219.636719 257.445312 C 220.425781 256.796875 221.242188 256.191406 222.089844 255.625 C 222.9375 255.054688 223.8125 254.53125 224.710938 254.050781 C 225.609375 253.570312 226.53125 253.136719 227.472656 252.746094 C 228.414062 252.355469 229.371094 252.011719 230.347656 251.714844 C 231.324219 251.417969 232.3125 251.171875 233.3125 250.972656 C 234.3125 250.773438 235.320312 250.625 236.335938 250.523438 C 237.347656 250.425781 238.367188 250.375 239.386719 250.375 C 240.40625 250.375 241.421875 250.425781 242.4375 250.523438 C 243.453125 250.625 244.457031 250.773438 245.457031 250.972656 C 246.457031 251.171875 247.445312 251.417969 248.421875 251.714844 C 249.398438 252.011719 250.355469 252.355469 251.300781 252.746094 C 252.242188 253.136719 253.160156 253.570312 254.0625 254.050781 C 254.960938 254.53125 255.832031 255.054688 256.679688 255.625 C 257.527344 256.191406 258.347656 256.796875 259.136719 257.445312 C 259.921875 258.089844 260.675781 258.773438 261.398438 259.496094 C 262.121094 260.21875 262.804688 260.972656 263.449219 261.761719 C 264.097656 262.550781 264.703125 263.367188 265.269531 264.214844 C 265.835938 265.0625 266.359375 265.9375 266.839844 266.835938 C 267.320312 267.738281 267.757812 268.65625 268.148438 269.601562 C 268.539062 270.542969 268.878906 271.5 269.175781 272.476562 C 269.472656 273.453125 269.71875 274.441406 269.917969 275.441406 C 270.117188 276.441406 270.265625 277.449219 270.367188 278.464844 C 270.46875 279.480469 270.515625 280.5 270.515625 281.519531 Z M 270.515625 281.519531 " fill-opacity="1" fill-rule="nonzero"/><path fill="#67757f" d="M 166.746094 281.519531 C 166.746094 282.539062 166.695312 283.554688 166.597656 284.570312 C 166.496094 285.585938 166.347656 286.59375 166.148438 287.59375 C 165.949219 288.59375 165.703125 289.582031 165.40625 290.558594 C 165.109375 291.535156 164.765625 292.492188 164.375 293.4375 C 163.984375 294.378906 163.550781 295.300781 163.070312 296.199219 C 162.589844 297.097656 162.066406 297.972656 161.5 298.820312 C 160.933594 299.667969 160.324219 300.488281 159.679688 301.277344 C 159.03125 302.0625 158.347656 302.820312 157.628906 303.539062 C 156.90625 304.261719 156.152344 304.945312 155.363281 305.59375 C 154.574219 306.238281 153.757812 306.847656 152.910156 307.414062 C 152.0625 307.980469 151.1875 308.503906 150.289062 308.984375 C 149.390625 309.464844 148.46875 309.902344 147.527344 310.292969 C 146.585938 310.679688 145.628906 311.023438 144.652344 311.320312 C 143.675781 311.617188 142.6875 311.863281 141.6875 312.0625 C 140.6875 312.261719 139.679688 312.410156 138.664062 312.511719 C 137.652344 312.613281 136.632812 312.660156 135.613281 312.660156 C 134.59375 312.660156 133.578125 312.613281 132.5625 312.511719 C 131.546875 312.410156 130.542969 312.261719 129.542969 312.0625 C 128.542969 311.863281 127.554688 311.617188 126.578125 311.320312 C 125.601562 311.023438 124.644531 310.679688 123.699219 310.292969 C 122.757812 309.902344 121.839844 309.464844 120.9375 308.984375 C 120.039062 308.503906 119.167969 307.980469 118.320312 307.414062 C 117.472656 306.847656 116.652344 306.238281 115.863281 305.59375 C 115.078125 304.945312 114.320312 304.261719 113.601562 303.539062 C 112.878906 302.820312 112.195312 302.0625 111.550781 301.277344 C 110.902344 300.488281 110.296875 299.667969 109.730469 298.820312 C 109.164062 297.972656 108.640625 297.097656 108.160156 296.199219 C 107.679688 295.300781 107.242188 294.378906 106.851562 293.4375 C 106.460938 292.492188 106.121094 291.535156 105.824219 290.558594 C 105.527344 289.582031 105.28125 288.59375 105.082031 287.59375 C 104.882812 286.59375 104.734375 285.585938 104.632812 284.570312 C 104.53125 283.554688 104.484375 282.539062 104.484375 281.519531 C 104.484375 280.5 104.53125 279.480469 104.632812 278.464844 C 104.734375 277.449219 104.882812 276.441406 105.082031 275.441406 C 105.28125 274.441406 105.527344 273.453125 105.824219 272.476562 C 106.121094 271.5 106.460938 270.542969 106.851562 269.601562 C 107.242188 268.65625 107.679688 267.738281 108.160156 266.835938 C 108.640625 265.9375 109.164062 265.0625 109.730469 264.214844 C 110.296875 263.367188 110.902344 262.550781 111.550781 261.761719 C 112.195312 260.972656 112.878906 260.21875 113.601562 259.496094 C 114.320312 258.773438 115.078125 258.089844 115.863281 257.445312 C 116.652344 256.796875 117.472656 256.191406 118.320312 255.625 C 119.167969 255.054688 120.039062 254.53125 120.9375 254.050781 C 121.839844 253.570312 122.757812 253.136719 123.699219 252.746094 C 124.644531 252.355469 125.601562 252.011719 126.578125 251.714844 C 127.554688 251.417969 128.542969 251.171875 129.542969 250.972656 C 130.542969 250.773438 131.546875 250.625 132.5625 250.523438 C 133.578125 250.425781 134.59375 250.375 135.613281 250.375 C 136.632812 250.375 137.652344 250.425781 138.664062 250.523438 C 139.679688 250.625 140.6875 250.773438 141.6875 250.972656 C 142.6875 251.171875 143.675781 251.417969 144.652344 251.714844 C 145.628906 252.011719 146.585938 252.355469 147.527344 252.746094 C 148.46875 253.136719 149.390625 253.570312 150.289062 254.050781 C 151.1875 254.53125 152.0625 255.054688 152.910156 255.625 C 153.757812 256.191406 154.574219 256.796875 155.363281 257.445312 C 156.152344 258.089844 156.90625 258.773438 157.628906 259.496094 C 158.347656 260.21875 159.03125 260.972656 159.679688 261.761719 C 160.324219 262.550781 160.933594 263.367188 161.5 264.214844 C 162.066406 265.0625 162.589844 265.9375 163.070312 266.835938 C 163.550781 267.738281 163.984375 268.65625 164.375 269.601562 C 164.765625 270.542969 165.109375 271.5 165.40625 272.476562 C 165.703125 273.453125 165.949219 274.441406 166.148438 275.441406 C 166.347656 276.441406 166.496094 277.449219 166.597656 278.464844 C 166.695312 279.480469 166.746094 280.5 166.746094 281.519531 Z M 166.746094 281.519531 " fill-opacity="1" fill-rule="nonzero"/><path fill="#67757f" d="M 145.992188 198.46875 C 145.992188 200.167969 145.910156 201.863281 145.742188 203.554688 C 145.574219 205.246094 145.324219 206.925781 144.996094 208.59375 C 144.664062 210.261719 144.25 211.910156 143.757812 213.535156 C 143.265625 215.164062 142.691406 216.761719 142.042969 218.332031 C 141.390625 219.902344 140.667969 221.4375 139.863281 222.9375 C 139.0625 224.4375 138.191406 225.890625 137.246094 227.304688 C 136.304688 228.71875 135.292969 230.082031 134.214844 231.398438 C 133.136719 232.710938 131.996094 233.96875 130.792969 235.171875 C 129.59375 236.375 128.335938 237.515625 127.023438 238.59375 C 125.707031 239.671875 124.34375 240.683594 122.933594 241.625 C 121.519531 242.570312 120.0625 243.445312 118.566406 244.246094 C 117.066406 245.046875 115.53125 245.773438 113.960938 246.421875 C 112.390625 247.074219 110.792969 247.644531 109.167969 248.140625 C 107.542969 248.632812 105.894531 249.046875 104.226562 249.378906 C 102.5625 249.707031 100.882812 249.957031 99.191406 250.125 C 97.5 250.292969 95.804688 250.375 94.105469 250.375 C 92.40625 250.375 90.710938 250.292969 89.019531 250.125 C 87.328125 249.957031 85.648438 249.707031 83.984375 249.378906 C 82.316406 249.046875 80.671875 248.632812 79.042969 248.140625 C 77.417969 247.644531 75.820312 247.074219 74.25 246.421875 C 72.679688 245.773438 71.144531 245.046875 69.648438 244.246094 C 68.148438 243.445312 66.691406 242.570312 65.28125 241.625 C 63.867188 240.683594 62.503906 239.671875 61.191406 238.59375 C 59.875 237.515625 58.617188 236.375 57.417969 235.171875 C 56.214844 233.96875 55.074219 232.710938 53.996094 231.398438 C 52.921875 230.082031 51.910156 228.71875 50.964844 227.304688 C 50.019531 225.890625 49.148438 224.4375 48.347656 222.9375 C 47.546875 221.4375 46.820312 219.902344 46.171875 218.332031 C 45.519531 216.761719 44.949219 215.164062 44.453125 213.535156 C 43.960938 211.910156 43.550781 210.261719 43.21875 208.59375 C 42.886719 206.925781 42.636719 205.246094 42.46875 203.554688 C 42.304688 201.863281 42.21875 200.167969 42.21875 198.46875 C 42.21875 196.769531 42.304688 195.074219 42.46875 193.378906 C 42.636719 191.6875 42.886719 190.007812 43.21875 188.34375 C 43.550781 186.675781 43.960938 185.027344 44.453125 183.402344 C 44.949219 181.773438 45.519531 180.175781 46.171875 178.605469 C 46.820312 177.035156 47.546875 175.5 48.347656 174 C 49.148438 172.5 50.019531 171.042969 50.964844 169.628906 C 51.910156 168.21875 52.921875 166.855469 53.996094 165.539062 C 55.074219 164.226562 56.214844 162.96875 57.417969 161.765625 C 58.617188 160.5625 59.875 159.421875 61.191406 158.34375 C 62.503906 157.265625 63.867188 156.253906 65.28125 155.308594 C 66.691406 154.367188 68.148438 153.492188 69.648438 152.691406 C 71.144531 151.890625 72.679688 151.164062 74.25 150.511719 C 75.820312 149.863281 77.417969 149.289062 79.042969 148.796875 C 80.671875 148.304688 82.316406 147.890625 83.984375 147.558594 C 85.648438 147.226562 87.328125 146.980469 89.019531 146.8125 C 90.710938 146.644531 92.40625 146.5625 94.105469 146.5625 C 95.804688 146.5625 97.5 146.644531 99.191406 146.8125 C 100.882812 146.980469 102.5625 147.226562 104.226562 147.558594 C 105.894531 147.890625 107.542969 148.304688 109.167969 148.796875 C 110.792969 149.289062 112.390625 149.863281 113.960938 150.511719 C 115.53125 151.164062 117.066406 151.890625 118.566406 152.691406 C 120.0625 153.492188 121.519531 154.367188 122.933594 155.308594 C 124.34375 156.253906 125.707031 157.265625 127.023438 158.34375 C 128.335938 159.421875 129.59375 160.5625 130.792969 161.765625 C 131.996094 162.96875 133.136719 164.226562 134.214844 165.539062 C 135.292969 166.855469 136.304688 168.21875 137.246094 169.628906 C 138.191406 171.042969 139.0625 172.5 139.863281 174 C 140.667969 175.5 141.390625 177.035156 142.042969 178.605469 C 142.691406 180.175781 143.265625 181.773438 143.757812 183.402344 C 144.25 185.027344 144.664062 186.675781 144.996094 188.34375 C 145.324219 190.007812 145.574219 191.6875 145.742188 193.378906 C 145.910156 195.074219 145.992188 196.769531 145.992188 198.46875 Z M 145.992188 198.46875 " fill-opacity="1" fill-rule="nonzero"/><path fill="#f18f26" d="M 291.269531 172.515625 C 291.269531 173.539062 291.171875 174.550781 290.972656 175.554688 C 290.773438 176.554688 290.476562 177.53125 290.085938 178.472656 C 289.695312 179.417969 289.214844 180.316406 288.648438 181.167969 C 288.078125 182.015625 287.433594 182.804688 286.710938 183.527344 C 285.988281 184.25 285.203125 184.894531 284.351562 185.460938 C 283.503906 186.03125 282.605469 186.511719 281.660156 186.902344 C 280.71875 187.292969 279.746094 187.589844 278.742188 187.789062 C 277.738281 187.988281 276.726562 188.085938 275.707031 188.085938 C 274.683594 188.085938 273.671875 187.988281 272.667969 187.789062 C 271.667969 187.589844 270.691406 187.292969 269.75 186.902344 C 268.804688 186.511719 267.90625 186.03125 267.058594 185.460938 C 266.207031 184.894531 265.421875 184.25 264.699219 183.527344 C 263.976562 182.804688 263.332031 182.015625 262.761719 181.167969 C 262.195312 180.316406 261.714844 179.417969 261.324219 178.472656 C 260.933594 177.53125 260.636719 176.554688 260.4375 175.554688 C 260.238281 174.550781 260.140625 173.539062 260.140625 172.515625 C 260.140625 171.492188 260.238281 170.480469 260.4375 169.476562 C 260.636719 168.472656 260.933594 167.5 261.324219 166.554688 C 261.714844 165.613281 262.195312 164.714844 262.761719 163.863281 C 263.332031 163.015625 263.976562 162.226562 264.699219 161.503906 C 265.421875 160.78125 266.207031 160.136719 267.058594 159.566406 C 267.90625 159 268.804688 158.519531 269.75 158.128906 C 270.691406 157.738281 271.667969 157.441406 272.667969 157.242188 C 273.671875 157.042969 274.683594 156.945312 275.707031 156.945312 C 276.726562 156.945312 277.738281 157.042969 278.742188 157.242188 C 279.746094 157.441406 280.71875 157.738281 281.660156 158.128906 C 282.605469 158.519531 283.503906 159 284.351562 159.566406 C 285.203125 160.136719 285.988281 160.78125 286.710938 161.503906 C 287.433594 162.226562 288.078125 163.015625 288.648438 163.863281 C 289.214844 164.714844 289.695312 165.613281 290.085938 166.554688 C 290.476562 167.5 290.773438 168.472656 290.972656 169.476562 C 291.171875 170.480469 291.269531 171.492188 291.269531 172.515625 Z M 291.269531 172.515625 " fill-opacity="1" fill-rule="nonzero"/><path fill="#f18f26" d="M 322.402344 203.660156 C 322.402344 204.679688 322.300781 205.695312 322.101562 206.695312 C 321.902344 207.699219 321.609375 208.671875 321.21875 209.617188 C 320.828125 210.5625 320.347656 211.460938 319.777344 212.308594 C 319.210938 213.160156 318.566406 213.945312 317.84375 214.671875 C 317.121094 215.394531 316.335938 216.039062 315.484375 216.605469 C 314.632812 217.175781 313.738281 217.652344 312.792969 218.046875 C 311.847656 218.4375 310.875 218.730469 309.875 218.929688 C 308.871094 219.132812 307.859375 219.230469 306.835938 219.230469 C 305.816406 219.230469 304.800781 219.132812 303.800781 218.929688 C 302.796875 218.730469 301.824219 218.4375 300.878906 218.046875 C 299.9375 217.652344 299.039062 217.175781 298.1875 216.605469 C 297.339844 216.039062 296.554688 215.394531 295.832031 214.671875 C 295.105469 213.945312 294.460938 213.160156 293.894531 212.308594 C 293.328125 211.460938 292.847656 210.5625 292.457031 209.617188 C 292.066406 208.671875 291.769531 207.699219 291.570312 206.695312 C 291.371094 205.695312 291.269531 204.679688 291.269531 203.660156 C 291.269531 202.636719 291.371094 201.625 291.570312 200.621094 C 291.769531 199.617188 292.066406 198.644531 292.457031 197.699219 C 292.847656 196.753906 293.328125 195.859375 293.894531 195.007812 C 294.460938 194.15625 295.105469 193.371094 295.832031 192.648438 C 296.554688 191.925781 297.339844 191.28125 298.1875 190.710938 C 299.039062 190.144531 299.9375 189.664062 300.878906 189.273438 C 301.824219 188.882812 302.796875 188.585938 303.800781 188.386719 C 304.800781 188.1875 305.816406 188.085938 306.835938 188.085938 C 307.859375 188.085938 308.871094 188.1875 309.875 188.386719 C 310.875 188.585938 311.847656 188.882812 312.792969 189.273438 C 313.738281 189.664062 314.632812 190.144531 315.484375 190.710938 C 316.335938 191.28125 317.121094 191.925781 317.84375 192.648438 C 318.566406 193.371094 319.210938 194.15625 319.777344 195.007812 C 320.347656 195.859375 320.828125 196.753906 321.21875 197.699219 C 321.609375 198.644531 321.902344 199.617188 322.101562 200.621094 C 322.300781 201.625 322.402344 202.636719 322.402344 203.660156 Z M 322.402344 203.660156 " fill-opacity="1" fill-rule="nonzero"/><path fill="#292f33" d="M 187.5 125.800781 C 181.773438 125.800781 177.121094 121.148438 177.121094 115.417969 C 177.121094 94.398438 171.46875 86.402344 166.007812 78.667969 C 161.496094 72.285156 156.367188 65.046875 156.367188 53.140625 C 156.367188 26.273438 181.773438 13.246094 182.851562 12.707031 C 187.96875 10.121094 194.191406 12.21875 196.777344 17.347656 C 199.339844 22.476562 197.265625 28.703125 192.136719 31.277344 C 192.046875 31.320312 177.121094 39.199219 177.121094 53.140625 C 177.121094 58.238281 178.90625 60.980469 182.953125 66.699219 C 189.253906 75.605469 197.878906 87.804688 197.878906 115.417969 C 197.886719 121.160156 193.238281 125.800781 187.5 125.800781 Z M 187.5 125.800781 " fill-opacity="1" fill-rule="nonzero"/><path fill="#292f33" d="M 249.761719 125.800781 C 249.761719 137.261719 240.464844 146.5625 229.007812 146.5625 L 145.992188 146.5625 C 134.535156 146.5625 125.238281 137.261719 125.238281 125.800781 C 125.238281 114.339844 134.535156 105.039062 145.992188 105.039062 L 229.007812 105.039062 C 240.464844 105.039062 249.761719 114.339844 249.761719 125.800781 Z M 249.761719 125.800781 " fill-opacity="1" fill-rule="nonzero"/></svg>