<svg xmlns="http://www.w3.org/2000/svg" xmlns:xlink="http://www.w3.org/1999/xlink" width="500" zoomAndPan="magnify" viewBox="0 0 375 374.999991" height="500" preserveAspectRatio="xMidYMid meet" version="1.0"><path fill="#ffdc5d" d="M 189.28125 278.480469 C 192.113281 279.433594 194.375 276.820312 195.410156 275.328125 C 198.324219 271.097656 199.820312 261.652344 195.449219 252.066406 C 191.027344 242.382812 188.109375 230.421875 177.777344 212.152344 C 176.574219 210.019531 172.613281 183.46875 164.792969 166.671875 C 162.679688 162.128906 149.160156 159.527344 143.785156 161.144531 C 138.417969 162.753906 143.835938 171.382812 144.171875 172.992188 C 147.769531 190.238281 157.816406 215.578125 159.332031 218.992188 C 167.699219 237.859375 179.878906 243.949219 180.988281 257.707031 C 181.5625 264.914062 183.132812 271.136719 187.261719 270.53125 C 188.226562 274.210938 188.234375 278.136719 189.28125 278.480469 Z M 34.28125 280.613281 C 31.59375 281.929688 29.011719 279.632812 27.796875 278.292969 C 24.347656 274.480469 21.617188 265.320312 24.703125 255.230469 C 27.808594 245.046875 29.136719 232.8125 36.980469 213.34375 C 37.890625 211.074219 38.328125 184.230469 43.878906 166.554688 C 45.375 161.78125 58.4375 157.417969 63.976562 158.316406 C 69.511719 159.214844 65.273438 168.46875 65.148438 170.109375 C 63.851562 187.675781 57.222656 214.117188 56.167969 217.699219 C 50.351562 237.492188 39.082031 245.140625 39.792969 258.917969 C 40.167969 266.144531 39.4375 272.515625 35.265625 272.453125 C 34.761719 276.246094 35.265625 280.132812 34.28125 280.613281 Z M 34.28125 280.613281 " fill-opacity="1" fill-rule="nonzero"/><path fill="#5c913b" d="M 67.292969 307.101562 C 62.066406 278.542969 64.542969 239.414062 64.542969 239.414062 L 144.472656 239.414062 C 144.472656 239.414062 146.960938 278.542969 141.734375 307.101562 C 141.074219 310.695312 139.769531 342.035156 142.875 364.554688 C 143.5625 369.558594 112.695312 374.34375 113.136719 363.25 C 113.949219 342.679688 110.375 326.554688 109.707031 316.242188 C 109.339844 310.527344 107.089844 296.65625 106.109375 282.734375 C 105.992188 282.546875 103.023438 282.546875 102.910156 282.734375 C 101.925781 296.65625 99.6875 310.527344 99.3125 316.242188 C 98.640625 326.554688 95.066406 342.679688 95.882812 363.25 C 96.320312 374.34375 65.453125 369.558594 66.144531 364.554688 C 69.25 342.035156 67.941406 310.695312 67.292969 307.101562 Z M 67.292969 307.101562 " fill-opacity="1" fill-rule="nonzero"/><path fill="#292f33" d="M 56.992188 375 C 51.773438 370.757812 57.421875 362.871094 71.839844 360.355469 C 84.003906 358.234375 94.847656 360.019531 96.550781 364.011719 C 98.769531 369.160156 97.074219 375 97.074219 375 Z M 152.328125 375 C 157.542969 370.757812 151.898438 362.871094 137.476562 360.355469 C 125.316406 358.234375 114.472656 360.019531 112.769531 364.011719 C 110.550781 369.160156 112.246094 375 112.246094 375 Z M 152.328125 375 " fill-opacity="1" fill-rule="nonzero"/><path fill="#99aab5" d="M 54.304688 153.195312 C 67.050781 145.195312 83.554688 145.195312 83.554688 145.195312 L 125.378906 145.195312 C 125.378906 145.195312 141.878906 145.195312 154.628906 153.195312 C 167.1875 161.074219 171.945312 184.535156 171.945312 184.535156 L 147.128906 191.71875 L 146.03125 249.453125 L 62.902344 249.453125 L 61.804688 191.71875 L 36.988281 184.535156 C 36.988281 184.535156 41.746094 161.074219 54.304688 153.195312 Z M 54.304688 153.195312 " fill-opacity="1" fill-rule="nonzero"/><path fill="#ffac33" d="M 127.199219 4.074219 C 115.664062 0.34375 88.53125 1.359375 81.742188 10.175781 C 64.105469 10.507812 43.410156 26.4375 40.691406 47.453125 C 38.003906 68.253906 43.996094 77.902344 46.117188 93.542969 C 48.535156 111.257812 58.5 116.929688 66.476562 119.300781 C 77.949219 134.4375 90.140625 133.789062 110.605469 133.789062 C 150.582031 133.789062 169.621094 107.066406 171.304688 61.691406 C 172.320312 34.230469 156.195312 13.445312 127.199219 4.074219 Z M 127.199219 4.074219 " fill-opacity="1" fill-rule="nonzero"/><path fill="#ffdc5d" d="M 87.765625 120.113281 L 87.765625 145.789062 C 87.765625 155.242188 94.960938 174.203125 104.894531 174.203125 C 114.828125 174.203125 122.023438 155.242188 122.023438 145.789062 L 122.023438 120.113281 Z M 87.765625 120.113281 " fill-opacity="1" fill-rule="nonzero"/><path fill="#f9ca55" d="M 87.765625 142.226562 C 92.976562 148.109375 97.859375 149.582031 104.886719 149.582031 C 111.902344 149.582031 116.828125 148.097656 122.035156 142.226562 L 122.035156 135.273438 L 87.765625 135.273438 Z M 87.765625 142.226562 " fill-opacity="1" fill-rule="nonzero"/><path fill="#ffdc5d" d="M 150.058594 63.625 C 146.1875 58.277344 141.242188 53.960938 130.378906 52.4375 C 134.445312 54.296875 138.347656 60.742188 138.859375 64.292969 C 139.371094 67.855469 139.871094 70.726562 136.652344 67.175781 C 123.738281 52.917969 109.683594 58.539062 95.746094 49.824219 C 86.019531 43.746094 83.0625 37.019531 83.0625 37.019531 C 83.0625 37.019531 81.871094 46.003906 67.113281 55.152344 C 62.839844 57.804688 57.734375 63.707031 54.902344 72.441406 C 52.863281 78.707031 53.5 84.308594 53.5 93.855469 C 53.5 121.746094 76.515625 145.195312 104.894531 145.195312 C 133.273438 145.195312 156.289062 121.535156 156.289062 93.855469 C 156.289062 76.503906 154.46875 69.726562 150.058594 63.625 Z M 150.058594 63.625 " fill-opacity="1" fill-rule="nonzero"/><path fill="#c1694f" d="M 124.929688 124.304688 L 83.101562 124.304688 C 83.101562 124.304688 83.101562 134.75 104.015625 134.75 C 124.929688 134.75 124.929688 124.304688 124.929688 124.304688 Z M 124.929688 124.304688 " fill-opacity="1" fill-rule="nonzero"/><path fill="#662113" d="M 83.101562 87.742188 C 83.101562 88.085938 83.070312 88.425781 83.003906 88.761719 C 82.9375 89.097656 82.835938 89.425781 82.707031 89.742188 C 82.574219 90.058594 82.414062 90.359375 82.222656 90.644531 C 82.03125 90.929688 81.816406 91.195312 81.570312 91.4375 C 81.328125 91.679688 81.066406 91.894531 80.78125 92.085938 C 80.496094 92.277344 80.191406 92.4375 79.875 92.570312 C 79.558594 92.699219 79.230469 92.800781 78.894531 92.867188 C 78.558594 92.933594 78.21875 92.964844 77.875 92.964844 C 77.53125 92.964844 77.191406 92.933594 76.855469 92.867188 C 76.519531 92.800781 76.191406 92.699219 75.875 92.570312 C 75.558594 92.4375 75.257812 92.277344 74.96875 92.085938 C 74.683594 91.894531 74.421875 91.679688 74.179688 91.4375 C 73.933594 91.195312 73.71875 90.929688 73.527344 90.644531 C 73.335938 90.359375 73.175781 90.058594 73.042969 89.742188 C 72.914062 89.425781 72.8125 89.097656 72.746094 88.761719 C 72.679688 88.425781 72.648438 88.085938 72.648438 87.742188 C 72.648438 87.402344 72.679688 87.0625 72.746094 86.726562 C 72.8125 86.386719 72.914062 86.0625 73.042969 85.746094 C 73.175781 85.429688 73.335938 85.128906 73.527344 84.84375 C 73.71875 84.558594 73.933594 84.292969 74.179688 84.050781 C 74.421875 83.808594 74.683594 83.589844 74.96875 83.402344 C 75.253906 83.210938 75.558594 83.050781 75.875 82.917969 C 76.191406 82.789062 76.519531 82.6875 76.855469 82.621094 C 77.191406 82.554688 77.53125 82.519531 77.875 82.519531 C 78.21875 82.519531 78.558594 82.554688 78.894531 82.621094 C 79.230469 82.6875 79.558594 82.789062 79.875 82.917969 C 80.191406 83.050781 80.496094 83.210938 80.78125 83.402344 C 81.066406 83.589844 81.328125 83.808594 81.570312 84.050781 C 81.816406 84.292969 82.03125 84.558594 82.222656 84.84375 C 82.414062 85.128906 82.574219 85.429688 82.707031 85.746094 C 82.835938 86.0625 82.9375 86.386719 83.003906 86.726562 C 83.070312 87.0625 83.101562 87.402344 83.101562 87.742188 Z M 83.101562 87.742188 " fill-opacity="1" fill-rule="nonzero"/><path fill="#662113" d="M 135.386719 87.742188 C 135.386719 88.085938 135.351562 88.425781 135.285156 88.761719 C 135.21875 89.097656 135.121094 89.425781 134.988281 89.742188 C 134.859375 90.058594 134.695312 90.359375 134.503906 90.644531 C 134.316406 90.929688 134.097656 91.195312 133.855469 91.4375 C 133.613281 91.679688 133.347656 91.894531 133.0625 92.085938 C 132.777344 92.277344 132.476562 92.4375 132.160156 92.570312 C 131.84375 92.699219 131.515625 92.800781 131.179688 92.867188 C 130.84375 92.933594 130.5 92.964844 130.160156 92.964844 C 129.816406 92.964844 129.476562 92.933594 129.136719 92.867188 C 128.800781 92.800781 128.476562 92.699219 128.15625 92.570312 C 127.839844 92.4375 127.539062 92.277344 127.253906 92.085938 C 126.96875 91.894531 126.703125 91.679688 126.460938 91.4375 C 126.21875 91.195312 126.003906 90.929688 125.8125 90.644531 C 125.621094 90.359375 125.460938 90.058594 125.328125 89.742188 C 125.195312 89.425781 125.097656 89.097656 125.03125 88.761719 C 124.964844 88.425781 124.929688 88.085938 124.929688 87.742188 C 124.929688 87.402344 124.964844 87.0625 125.03125 86.726562 C 125.097656 86.386719 125.195312 86.0625 125.328125 85.746094 C 125.460938 85.429688 125.621094 85.128906 125.8125 84.84375 C 126.003906 84.558594 126.21875 84.292969 126.460938 84.050781 C 126.703125 83.808594 126.96875 83.589844 127.253906 83.402344 C 127.539062 83.210938 127.839844 83.050781 128.15625 82.917969 C 128.476562 82.789062 128.800781 82.6875 129.136719 82.621094 C 129.476562 82.554688 129.816406 82.519531 130.160156 82.519531 C 130.5 82.519531 130.84375 82.554688 131.179688 82.621094 C 131.515625 82.6875 131.84375 82.789062 132.160156 82.917969 C 132.476562 83.050781 132.777344 83.210938 133.0625 83.402344 C 133.347656 83.589844 133.613281 83.808594 133.855469 84.050781 C 134.097656 84.292969 134.316406 84.558594 134.503906 84.84375 C 134.695312 85.128906 134.859375 85.429688 134.988281 85.746094 C 135.121094 86.0625 135.21875 86.386719 135.285156 86.726562 C 135.351562 87.0625 135.386719 87.402344 135.386719 87.742188 Z M 135.386719 87.742188 " fill-opacity="1" fill-rule="nonzero"/><path fill="#c1694f" d="M 93.558594 103.414062 L 114.472656 103.414062 C 114.472656 103.414062 114.472656 113.859375 104.015625 113.859375 C 93.558594 113.859375 93.558594 103.414062 93.558594 103.414062 Z M 93.558594 103.414062 " fill-opacity="1" fill-rule="nonzero"/><path fill="#ffdc5d" d="M 188.445312 278.480469 C 185.609375 279.433594 183.351562 276.820312 182.316406 275.328125 C 179.398438 271.097656 177.902344 261.652344 182.273438 252.066406 C 186.699219 242.382812 189.617188 230.421875 199.945312 212.152344 C 201.148438 210.019531 205.113281 183.46875 212.933594 166.671875 C 215.046875 162.128906 228.566406 159.527344 233.941406 161.144531 C 239.304688 162.753906 233.890625 171.382812 233.554688 172.992188 C 229.957031 190.238281 219.910156 215.578125 218.390625 218.992188 C 210.027344 237.859375 197.84375 243.949219 196.738281 257.707031 C 196.160156 264.914062 194.59375 271.136719 190.460938 270.53125 C 189.488281 274.210938 189.480469 278.136719 188.445312 278.480469 Z M 341.058594 280.613281 C 343.746094 281.929688 346.328125 279.632812 347.542969 278.292969 C 350.992188 274.480469 353.722656 265.320312 350.636719 255.230469 C 347.53125 245.046875 346.203125 232.8125 338.363281 213.34375 C 337.453125 211.074219 337.011719 184.230469 331.460938 166.554688 C 329.964844 161.78125 316.90625 157.417969 311.363281 158.316406 C 305.832031 159.214844 310.066406 168.46875 310.191406 170.109375 C 311.488281 187.675781 318.117188 214.117188 319.175781 217.699219 C 324.988281 237.492188 336.261719 245.140625 335.550781 258.917969 C 335.171875 266.144531 335.90625 272.515625 340.078125 272.453125 C 340.578125 276.246094 340.078125 280.132812 341.058594 280.613281 Z M 341.058594 280.613281 " fill-opacity="1" fill-rule="nonzero"/><path fill="#4289c1" d="M 308.046875 307.101562 C 313.277344 278.542969 310.796875 239.414062 310.796875 239.414062 L 230.867188 239.414062 C 230.867188 239.414062 228.378906 278.542969 233.605469 307.101562 C 234.265625 310.695312 235.574219 342.035156 232.46875 364.554688 C 231.777344 369.558594 262.644531 374.34375 262.207031 363.25 C 261.390625 342.679688 264.964844 326.554688 265.636719 316.242188 C 266 310.527344 268.25 296.65625 269.234375 282.734375 C 269.347656 282.546875 272.316406 282.546875 272.433594 282.734375 C 273.414062 296.65625 275.652344 310.527344 276.03125 316.242188 C 276.699219 326.554688 280.273438 342.679688 279.460938 363.25 C 279.019531 374.34375 309.886719 369.558594 309.199219 364.554688 C 306.09375 342.035156 307.398438 310.695312 308.046875 307.101562 Z M 308.046875 307.101562 " fill-opacity="1" fill-rule="nonzero"/><path fill="#292f33" d="M 318.347656 375 C 323.566406 370.757812 317.917969 362.871094 303.5 360.355469 C 291.339844 358.234375 280.496094 360.019531 278.789062 364.011719 C 276.574219 369.160156 278.265625 375 278.265625 375 Z M 223.015625 375 C 217.796875 370.757812 223.441406 362.871094 237.863281 360.355469 C 250.023438 358.234375 260.867188 360.019531 262.570312 364.011719 C 264.789062 369.171875 263.09375 375.011719 263.09375 375.011719 Z M 223.015625 375 " fill-opacity="1" fill-rule="nonzero"/><path fill="#fa743e" d="M 321.035156 153.195312 C 308.289062 145.195312 291.789062 145.195312 291.789062 145.195312 L 249.960938 145.195312 C 249.960938 145.195312 233.460938 145.195312 220.714844 153.195312 C 208.15625 161.074219 203.398438 184.535156 203.398438 184.535156 L 228.210938 191.71875 L 229.308594 249.453125 L 312.441406 249.453125 L 313.539062 191.71875 L 338.351562 184.535156 C 338.351562 184.535156 333.59375 161.074219 321.035156 153.195312 Z M 321.035156 153.195312 " fill-opacity="1" fill-rule="nonzero"/><path fill="#ffac33" d="M 292.394531 4.074219 C 280.859375 0.34375 253.714844 1.359375 246.9375 10.175781 C 229.296875 10.507812 208.605469 26.4375 205.886719 47.453125 C 203.199219 68.253906 209.191406 77.902344 211.3125 93.542969 C 213.730469 111.257812 223.695312 116.929688 231.671875 119.300781 C 243.144531 134.4375 255.335938 133.789062 275.800781 133.789062 C 315.777344 133.789062 334.816406 107.066406 336.5 61.691406 C 337.515625 34.230469 321.390625 13.445312 292.394531 4.074219 Z M 292.394531 4.074219 " fill-opacity="1" fill-rule="nonzero"/><path fill="#ffdc5d" d="M 252.910156 120.113281 L 252.910156 145.789062 C 252.910156 155.242188 260.105469 174.203125 270.039062 174.203125 C 279.972656 174.203125 287.164062 155.242188 287.164062 145.789062 L 287.164062 120.113281 Z M 252.910156 120.113281 " fill-opacity="1" fill-rule="nonzero"/><path fill="#f9ca55" d="M 252.921875 142.226562 C 258.128906 148.109375 263.011719 149.582031 270.039062 149.582031 C 277.054688 149.582031 281.980469 148.097656 287.1875 142.226562 L 287.1875 135.273438 L 252.921875 135.273438 Z M 252.921875 142.226562 " fill-opacity="1" fill-rule="nonzero"/><path fill="#ffdc5d" d="M 315.253906 63.625 C 311.382812 58.277344 306.425781 53.960938 295.574219 52.4375 C 299.640625 54.296875 303.542969 60.742188 304.054688 64.292969 C 304.566406 67.855469 305.066406 70.726562 301.847656 67.175781 C 288.933594 52.917969 274.878906 58.539062 260.941406 49.824219 C 251.207031 43.746094 248.246094 37.019531 248.246094 37.019531 C 248.246094 37.019531 247.054688 46.003906 232.300781 55.152344 C 228.023438 57.804688 222.921875 63.707031 220.085938 72.441406 C 218.046875 78.707031 218.683594 84.308594 218.683594 93.855469 C 218.683594 121.746094 241.699219 145.195312 270.078125 145.195312 C 298.460938 145.195312 321.472656 121.535156 321.472656 93.855469 C 321.484375 76.503906 319.664062 69.726562 315.253906 63.625 Z M 315.253906 63.625 " fill-opacity="1" fill-rule="nonzero"/><path fill="#c1694f" d="M 292.238281 124.304688 L 250.410156 124.304688 C 250.410156 124.304688 250.410156 134.75 271.324219 134.75 C 292.238281 134.75 292.238281 124.304688 292.238281 124.304688 Z M 292.238281 124.304688 " fill-opacity="1" fill-rule="nonzero"/><path fill="#662113" d="M 250.410156 87.742188 C 250.410156 88.085938 250.378906 88.425781 250.308594 88.761719 C 250.242188 89.097656 250.144531 89.425781 250.011719 89.742188 C 249.882812 90.058594 249.71875 90.359375 249.53125 90.644531 C 249.339844 90.929688 249.121094 91.195312 248.878906 91.4375 C 248.636719 91.679688 248.371094 91.894531 248.085938 92.085938 C 247.800781 92.277344 247.5 92.4375 247.183594 92.570312 C 246.867188 92.699219 246.539062 92.800781 246.203125 92.867188 C 245.867188 92.933594 245.527344 92.964844 245.183594 92.964844 C 244.839844 92.964844 244.5 92.933594 244.164062 92.867188 C 243.824219 92.800781 243.5 92.699219 243.179688 92.570312 C 242.863281 92.4375 242.5625 92.277344 242.277344 92.085938 C 241.992188 91.894531 241.726562 91.679688 241.484375 91.4375 C 241.242188 91.195312 241.027344 90.929688 240.835938 90.644531 C 240.644531 90.359375 240.484375 90.058594 240.351562 89.742188 C 240.21875 89.425781 240.121094 89.097656 240.054688 88.761719 C 239.988281 88.425781 239.953125 88.085938 239.953125 87.742188 C 239.953125 87.402344 239.988281 87.0625 240.054688 86.726562 C 240.121094 86.386719 240.21875 86.0625 240.351562 85.746094 C 240.484375 85.429688 240.644531 85.128906 240.835938 84.84375 C 241.027344 84.558594 241.242188 84.292969 241.484375 84.050781 C 241.726562 83.808594 241.992188 83.589844 242.277344 83.402344 C 242.5625 83.210938 242.863281 83.050781 243.179688 82.917969 C 243.5 82.789062 243.824219 82.6875 244.164062 82.621094 C 244.5 82.554688 244.839844 82.519531 245.183594 82.519531 C 245.527344 82.519531 245.867188 82.554688 246.203125 82.621094 C 246.539062 82.6875 246.867188 82.789062 247.183594 82.917969 C 247.5 83.050781 247.800781 83.210938 248.085938 83.402344 C 248.371094 83.589844 248.636719 83.808594 248.878906 84.050781 C 249.121094 84.292969 249.339844 84.558594 249.53125 84.84375 C 249.71875 85.128906 249.882812 85.429688 250.011719 85.746094 C 250.144531 86.0625 250.242188 86.386719 250.308594 86.726562 C 250.378906 87.0625 250.410156 87.402344 250.410156 87.742188 Z M 250.410156 87.742188 " fill-opacity="1" fill-rule="nonzero"/><path fill="#662113" d="M 302.695312 87.742188 C 302.695312 88.085938 302.660156 88.425781 302.59375 88.761719 C 302.527344 89.097656 302.425781 89.425781 302.296875 89.742188 C 302.164062 90.058594 302.003906 90.359375 301.8125 90.644531 C 301.621094 90.929688 301.40625 91.195312 301.164062 91.4375 C 300.921875 91.679688 300.65625 91.894531 300.371094 92.085938 C 300.085938 92.277344 299.785156 92.4375 299.464844 92.570312 C 299.148438 92.699219 298.824219 92.800781 298.484375 92.867188 C 298.148438 92.933594 297.808594 92.964844 297.464844 92.964844 C 297.121094 92.964844 296.78125 92.933594 296.445312 92.867188 C 296.109375 92.800781 295.78125 92.699219 295.464844 92.570312 C 295.148438 92.4375 294.847656 92.277344 294.5625 92.085938 C 294.277344 91.894531 294.011719 91.679688 293.769531 91.4375 C 293.527344 91.195312 293.308594 90.929688 293.117188 90.644531 C 292.929688 90.359375 292.765625 90.058594 292.636719 89.742188 C 292.503906 89.425781 292.40625 89.097656 292.335938 88.761719 C 292.269531 88.425781 292.238281 88.085938 292.238281 87.742188 C 292.238281 87.402344 292.269531 87.0625 292.335938 86.726562 C 292.40625 86.386719 292.503906 86.0625 292.636719 85.746094 C 292.765625 85.429688 292.929688 85.128906 293.117188 84.84375 C 293.308594 84.558594 293.527344 84.292969 293.769531 84.050781 C 294.011719 83.808594 294.277344 83.589844 294.5625 83.402344 C 294.847656 83.210938 295.148438 83.050781 295.464844 82.917969 C 295.78125 82.789062 296.109375 82.6875 296.445312 82.621094 C 296.78125 82.554688 297.121094 82.519531 297.464844 82.519531 C 297.808594 82.519531 298.148438 82.554688 298.484375 82.621094 C 298.824219 82.6875 299.148438 82.789062 299.464844 82.917969 C 299.785156 83.050781 300.085938 83.210938 300.371094 83.402344 C 300.65625 83.589844 300.921875 83.808594 301.164062 84.050781 C 301.40625 84.292969 301.621094 84.558594 301.8125 84.84375 C 302.003906 85.128906 302.164062 85.429688 302.296875 85.746094 C 302.425781 86.0625 302.527344 86.386719 302.59375 86.726562 C 302.660156 87.0625 302.695312 87.402344 302.695312 87.742188 Z M 302.695312 87.742188 " fill-opacity="1" fill-rule="nonzero"/><path fill="#c1694f" d="M 260.867188 103.414062 L 281.78125 103.414062 C 281.78125 103.414062 281.78125 113.859375 271.324219 113.859375 C 260.867188 113.859375 260.867188 103.414062 260.867188 103.414062 Z M 260.867188 103.414062 " fill-opacity="1" fill-rule="nonzero"/></svg>