<svg xmlns="http://www.w3.org/2000/svg" xmlns:xlink="http://www.w3.org/1999/xlink" width="500" zoomAndPan="magnify" viewBox="0 0 375 374.999991" height="500" preserveAspectRatio="xMidYMid meet" version="1.0"><path fill="#ffac33" d="M 56.988281 54.691406 L 117.800781 54.691406 C 128.988281 54.691406 136.824219 53.636719 136.824219 64.820312 L 136.824219 44.5625 C 136.824219 33.382812 128.988281 24.308594 117.800781 24.308594 L 36.71875 24.308594 C 16.449219 24.308594 0.40625 45.828125 6.3125 74.945312 C 6.3125 74.945312 24.464844 169.894531 25.742188 175.796875 C 29.117188 191.414062 47.269531 206.605469 66.699219 206.605469 L 137.21875 206.605469 C 148.417969 206.605469 136.824219 187.402344 136.824219 176.222656 L 136.824219 155.96875 C 136.824219 167.148438 128.988281 176.222656 117.800781 176.222656 L 77.261719 176.222656 C 66.070312 176.222656 58.683594 165.671875 56.988281 155.96875 C 55.296875 146.265625 40.9375 81.703125 40.9375 81.703125 C 37.5625 62.289062 45.789062 54.691406 56.988281 54.691406 Z M 318.597656 54.691406 L 257.789062 54.691406 C 246.597656 54.691406 228.039062 53.636719 228.039062 64.820312 L 228.039062 44.5625 C 228.039062 33.382812 246.597656 24.308594 257.789062 24.308594 L 338.867188 24.308594 C 359.136719 24.308594 375.191406 45.828125 369.273438 74.945312 C 369.273438 74.945312 352.722656 170.339844 351.324219 176.222656 C 347.738281 191.414062 330.628906 206.605469 310.785156 206.605469 L 238.359375 206.605469 C 227.167969 206.605469 228.039062 187.402344 228.039062 176.222656 L 228.039062 155.96875 C 228.039062 167.148438 246.597656 176.222656 257.789062 176.222656 L 298.328125 176.222656 C 309.515625 176.222656 316.914062 165.671875 318.597656 155.96875 C 320.28125 146.265625 334.652344 81.703125 334.652344 81.703125 C 338.015625 62.289062 329.796875 54.691406 318.597656 54.691406 Z M 216.203125 226.863281 C 216.203125 156.394531 188.746094 226.863281 188.746094 226.863281 C 188.746094 226.863281 158.339844 156.394531 158.339844 226.863281 C 158.339844 297.328125 124.988281 328.136719 124.988281 328.136719 L 249.566406 328.136719 C 249.558594 328.136719 216.203125 297.328125 216.203125 226.863281 Z M 216.203125 226.863281 " fill-opacity="1" fill-rule="nonzero"/><path fill="#ffcc4d" d="M 300.234375 70.664062 C 300.234375 139.277344 231.617188 254.90625 188.746094 254.90625 C 145.863281 254.90625 77.261719 139.277344 77.261719 70.664062 C 77.261719 18.050781 87.394531 6.667969 107.664062 6.667969 C 121.589844 6.667969 168.730469 6.394531 188.746094 6.394531 L 259.691406 6.382812 C 289.257812 6.371094 300.234375 13.308594 300.234375 70.664062 Z M 300.234375 70.664062 " fill-opacity="1" fill-rule="nonzero"/><path fill="#c1694f" d="M 278.714844 338.265625 C 278.714844 349.445312 281.015625 358.519531 269.828125 358.519531 L 107.664062 358.519531 C 96.464844 358.519531 96.285156 349.445312 96.285156 338.265625 L 96.285156 328.136719 C 96.285156 316.957031 108.082031 307.882812 118.640625 307.882812 L 259.691406 307.882812 C 270.253906 307.882812 278.714844 316.957031 278.714844 328.136719 Z M 278.714844 338.265625 " fill-opacity="1" fill-rule="nonzero"/><path fill="#c1694f" d="M 298.988281 354.722656 C 298.988281 362.421875 300.660156 368.648438 286.296875 368.648438 L 91.195312 368.648438 C 78.101562 368.648438 76.011719 362.421875 76.011719 354.722656 L 76.011719 352.191406 C 76.011719 344.492188 83.492188 338.265625 91.195312 338.265625 L 286.296875 338.265625 C 293.988281 338.265625 298.988281 344.492188 298.988281 352.191406 Z M 298.988281 354.722656 " fill-opacity="1" fill-rule="nonzero"/></svg>