<svg xmlns="http://www.w3.org/2000/svg" xmlns:xlink="http://www.w3.org/1999/xlink" width="500" zoomAndPan="magnify" viewBox="0 0 375 374.999991" height="500" preserveAspectRatio="xMidYMid meet" version="1.0"><path fill="#dd2e44" d="M 121.472656 74.980469 C 120.3125 76.140625 119.429688 77.539062 118.695312 79.070312 L 118.613281 78.988281 L 2.425781 340.722656 L 2.539062 340.835938 C 0.382812 345.011719 3.988281 353.503906 11.375 360.902344 C 18.761719 368.289062 27.253906 371.890625 31.429688 369.738281 L 31.53125 369.839844 L 293.265625 253.644531 L 293.183594 253.550781 C 294.707031 252.824219 296.105469 251.945312 297.277344 250.761719 C 313.457031 234.582031 287.21875 182.113281 238.683594 133.570312 C 190.132812 85.027344 137.664062 58.796875 121.472656 74.980469 Z M 121.472656 74.980469 " fill-opacity="1" fill-rule="nonzero"/><path fill="#ea596e" d="M 135.703125 121.71875 L 5.34375 334.144531 L 2.425781 340.722656 L 2.539062 340.835938 C 0.382812 345.011719 3.988281 353.503906 11.375 360.902344 C 13.777344 363.304688 16.273438 365.128906 18.71875 366.671875 L 177.140625 173.515625 Z M 135.703125 121.71875 " fill-opacity="1" fill-rule="nonzero"/><path fill="#a0041e" d="M 239.417969 132.761719 C 287.796875 181.160156 314.65625 232.75 299.390625 247.996094 C 284.128906 263.265625 232.542969 236.414062 184.132812 188.039062 C 135.746094 139.640625 108.894531 88.03125 124.152344 72.773438 C 139.421875 57.515625 191.011719 84.363281 239.417969 132.761719 Z M 239.417969 132.761719 " fill-opacity="1" fill-rule="nonzero"/><path fill="#aa8dd8" d="M 193.613281 138.386719 C 191.550781 140.054688 188.855469 140.925781 186.007812 140.613281 C 177.015625 139.640625 169.453125 136.511719 164.160156 131.570312 C 158.554688 126.339844 155.789062 119.316406 156.546875 112.28125 C 157.871094 99.933594 170.261719 88.601562 191.382812 90.878906 C 199.597656 91.761719 203.265625 89.121094 203.390625 87.855469 C 203.535156 86.601562 200.519531 83.234375 192.304688 82.34375 C 183.316406 81.371094 175.753906 78.242188 170.449219 73.300781 C 164.84375 68.070312 162.070312 61.046875 162.835938 54.011719 C 164.179688 41.664062 176.5625 30.332031 197.664062 32.621094 C 203.648438 33.261719 206.808594 32.03125 208.144531 31.234375 C 209.210938 30.582031 209.636719 29.957031 209.679688 29.597656 C 209.804688 28.34375 206.832031 24.976562 198.59375 24.085938 C 192.90625 23.464844 188.785156 18.367188 189.417969 12.667969 C 190.027344 6.980469 195.113281 2.871094 200.820312 3.492188 C 221.921875 5.757812 231.621094 19.464844 230.28125 31.824219 C 228.9375 44.191406 216.558594 55.503906 195.433594 53.234375 C 189.449219 52.582031 186.320312 53.824219 184.972656 54.625 C 183.90625 55.265625 183.46875 55.898438 183.429688 56.25 C 183.292969 57.515625 186.289062 60.871094 194.523438 61.761719 C 215.625 64.039062 225.320312 77.734375 223.984375 90.09375 C 222.648438 102.441406 210.269531 113.773438 189.15625 111.484375 C 183.167969 110.84375 180.019531 112.085938 178.675781 112.871094 C 177.597656 113.535156 177.183594 114.15625 177.140625 114.507812 C 177.007812 115.761719 180 119.128906 188.226562 120.019531 C 193.902344 120.640625 198.035156 125.75 197.402344 131.4375 C 197.113281 134.273438 195.671875 136.730469 193.613281 138.386719 Z M 193.613281 138.386719 " fill-opacity="1" fill-rule="nonzero"/><path fill="#77b255" d="M 318.65625 234.1875 C 339.09375 228.417969 353.195312 237.535156 356.550781 249.5 C 359.90625 261.453125 352.632812 276.589844 332.207031 282.335938 C 324.230469 284.574219 321.835938 288.386719 322.15625 289.597656 C 322.511719 290.820312 326.5625 292.832031 334.515625 290.582031 C 354.945312 284.835938 369.042969 293.949219 372.398438 305.90625 C 375.777344 317.871094 368.484375 332.984375 348.046875 338.742188 C 340.078125 340.980469 337.675781 344.804688 338.027344 346.015625 C 338.371094 347.226562 342.410156 349.238281 350.375 347 C 355.867188 345.457031 361.605469 348.65625 363.148438 354.15625 C 364.683594 359.667969 361.480469 365.386719 355.96875 366.941406 C 335.550781 372.691406 321.445312 363.59375 318.066406 351.621094 C 314.710938 339.664062 321.992188 324.550781 342.441406 318.792969 C 350.417969 316.542969 352.8125 312.742188 352.457031 311.519531 C 352.128906 310.308594 348.085938 308.289062 340.132812 310.523438 C 319.683594 316.285156 305.59375 307.1875 302.226562 295.203125 C 298.859375 283.25 306.144531 268.136719 326.582031 262.367188 C 334.539062 260.136719 336.929688 256.304688 336.597656 255.105469 C 336.246094 253.882812 332.21875 251.871094 324.25 254.109375 C 318.738281 255.664062 313.03125 252.453125 311.476562 246.949219 C 309.933594 241.460938 313.144531 235.742188 318.65625 234.1875 Z M 318.65625 234.1875 " fill-opacity="1" fill-rule="nonzero"/><path fill="#aa8dd8" d="M 239.304688 206.25 C 236.261719 206.25 233.257812 204.914062 231.207031 202.367188 C 227.632812 197.890625 228.367188 191.375 232.820312 187.800781 C 235.078125 185.988281 288.945312 143.679688 365.074219 154.566406 C 370.742188 155.375 374.679688 160.617188 373.871094 166.285156 C 373.0625 171.941406 367.863281 175.917969 362.144531 175.070312 C 294.882812 165.519531 246.257812 203.597656 245.78125 203.980469 C 243.855469 205.515625 241.574219 206.25 239.304688 206.25 Z M 239.304688 206.25 " fill-opacity="1" fill-rule="nonzero"/><path fill="#77b255" d="M 60.640625 163.15625 C 59.65625 163.15625 58.652344 163.011719 57.660156 162.722656 C 52.179688 161.074219 49.070312 155.304688 50.71875 149.824219 C 62.457031 110.738281 73.09375 48.367188 60.019531 32.101562 C 58.558594 30.257812 56.355469 28.445312 51.296875 28.828125 C 41.582031 29.574219 42.503906 50.074219 42.515625 50.28125 C 42.949219 55.992188 38.660156 60.964844 32.960938 61.386719 C 27.171875 61.742188 22.28125 57.535156 21.859375 51.828125 C 20.789062 37.542969 25.234375 10.027344 49.746094 8.171875 C 60.683594 7.34375 69.769531 11.144531 76.179688 19.121094 C 100.742188 49.691406 75.808594 138.316406 70.566406 155.78125 C 69.21875 160.265625 65.097656 163.15625 60.640625 163.15625 Z M 60.640625 163.15625 " fill-opacity="1" fill-rule="nonzero"/><path fill="#5c913b" d="M 280.730469 95.820312 C 280.730469 96.84375 280.632812 97.851562 280.433594 98.851562 C 280.234375 99.855469 279.941406 100.824219 279.550781 101.769531 C 279.160156 102.710938 278.679688 103.605469 278.113281 104.453125 C 277.546875 105.304688 276.902344 106.085938 276.179688 106.808594 C 275.460938 107.53125 274.675781 108.175781 273.824219 108.742188 C 272.976562 109.308594 272.082031 109.789062 271.140625 110.175781 C 270.195312 110.566406 269.226562 110.863281 268.226562 111.0625 C 267.222656 111.261719 266.214844 111.359375 265.191406 111.359375 C 264.171875 111.359375 263.164062 111.261719 262.160156 111.0625 C 261.160156 110.863281 260.191406 110.566406 259.246094 110.175781 C 258.304688 109.789062 257.410156 109.308594 256.558594 108.742188 C 255.710938 108.175781 254.925781 107.53125 254.207031 106.808594 C 253.484375 106.085938 252.839844 105.304688 252.273438 104.453125 C 251.707031 103.605469 251.226562 102.710938 250.835938 101.769531 C 250.445312 100.824219 250.152344 99.855469 249.953125 98.851562 C 249.753906 97.851562 249.65625 96.84375 249.65625 95.820312 C 249.65625 94.800781 249.753906 93.792969 249.953125 92.789062 C 250.152344 91.789062 250.445312 90.816406 250.835938 89.875 C 251.226562 88.933594 251.707031 88.039062 252.273438 87.1875 C 252.839844 86.339844 253.484375 85.554688 254.207031 84.835938 C 254.925781 84.113281 255.710938 83.46875 256.558594 82.902344 C 257.410156 82.335938 258.304688 81.855469 259.246094 81.464844 C 260.191406 81.074219 261.160156 80.78125 262.160156 80.582031 C 263.164062 80.382812 264.171875 80.28125 265.191406 80.28125 C 266.214844 80.28125 267.222656 80.382812 268.226562 80.582031 C 269.226562 80.78125 270.195312 81.074219 271.140625 81.464844 C 272.082031 81.855469 272.976562 82.335938 273.824219 82.902344 C 274.675781 83.46875 275.460938 84.113281 276.179688 84.835938 C 276.902344 85.554688 277.546875 86.339844 278.113281 87.1875 C 278.679688 88.039062 279.160156 88.933594 279.550781 89.875 C 279.941406 90.816406 280.234375 91.789062 280.433594 92.789062 C 280.632812 93.792969 280.730469 94.800781 280.730469 95.820312 Z M 280.730469 95.820312 " fill-opacity="1" fill-rule="nonzero"/><path fill="#9266cc" d="M 42.472656 183.875 C 42.472656 184.554688 42.4375 185.230469 42.371094 185.90625 C 42.304688 186.582031 42.207031 187.25 42.074219 187.917969 C 41.941406 188.582031 41.777344 189.238281 41.582031 189.886719 C 41.382812 190.539062 41.15625 191.175781 40.894531 191.804688 C 40.636719 192.429688 40.347656 193.042969 40.027344 193.640625 C 39.707031 194.238281 39.359375 194.820312 38.980469 195.382812 C 38.605469 195.949219 38.199219 196.492188 37.769531 197.019531 C 37.339844 197.542969 36.882812 198.042969 36.402344 198.523438 C 35.925781 199.003906 35.421875 199.460938 34.898438 199.890625 C 34.375 200.320312 33.828125 200.722656 33.265625 201.101562 C 32.699219 201.476562 32.117188 201.828125 31.519531 202.144531 C 30.921875 202.464844 30.308594 202.753906 29.683594 203.015625 C 29.054688 203.273438 28.417969 203.503906 27.769531 203.699219 C 27.117188 203.898438 26.460938 204.0625 25.796875 204.195312 C 25.128906 204.328125 24.460938 204.425781 23.785156 204.492188 C 23.109375 204.558594 22.433594 204.59375 21.753906 204.59375 C 21.074219 204.59375 20.398438 204.558594 19.722656 204.492188 C 19.046875 204.425781 18.378906 204.328125 17.710938 204.195312 C 17.046875 204.0625 16.390625 203.898438 15.738281 203.699219 C 15.089844 203.503906 14.453125 203.273438 13.824219 203.015625 C 13.199219 202.753906 12.585938 202.464844 11.988281 202.144531 C 11.390625 201.828125 10.808594 201.476562 10.242188 201.101562 C 9.679688 200.722656 9.136719 200.320312 8.609375 199.890625 C 8.085938 199.460938 7.582031 199.003906 7.105469 198.523438 C 6.625 198.042969 6.167969 197.542969 5.738281 197.019531 C 5.308594 196.492188 4.90625 195.949219 4.527344 195.382812 C 4.152344 194.820312 3.800781 194.238281 3.480469 193.640625 C 3.164062 193.042969 2.871094 192.429688 2.613281 191.804688 C 2.351562 191.175781 2.125 190.539062 1.929688 189.886719 C 1.730469 189.238281 1.566406 188.582031 1.433594 187.917969 C 1.300781 187.25 1.203125 186.582031 1.136719 185.90625 C 1.070312 185.230469 1.035156 184.554688 1.035156 183.875 C 1.035156 183.195312 1.070312 182.519531 1.136719 181.84375 C 1.203125 181.167969 1.300781 180.496094 1.433594 179.832031 C 1.566406 179.167969 1.730469 178.507812 1.929688 177.859375 C 2.125 177.210938 2.351562 176.574219 2.613281 175.945312 C 2.871094 175.320312 3.164062 174.707031 3.480469 174.109375 C 3.800781 173.507812 4.152344 172.929688 4.527344 172.363281 C 4.90625 171.800781 5.308594 171.253906 5.738281 170.730469 C 6.167969 170.207031 6.625 169.703125 7.105469 169.222656 C 7.582031 168.746094 8.085938 168.289062 8.609375 167.859375 C 9.136719 167.429688 9.679688 167.023438 10.242188 166.648438 C 10.808594 166.269531 11.390625 165.921875 11.988281 165.601562 C 12.585938 165.28125 13.199219 164.992188 13.824219 164.734375 C 14.453125 164.472656 15.089844 164.246094 15.738281 164.046875 C 16.390625 163.851562 17.046875 163.6875 17.710938 163.554688 C 18.378906 163.421875 19.046875 163.324219 19.722656 163.253906 C 20.398438 163.1875 21.074219 163.15625 21.753906 163.15625 C 22.433594 163.15625 23.109375 163.1875 23.785156 163.253906 C 24.460938 163.324219 25.128906 163.421875 25.796875 163.554688 C 26.460938 163.6875 27.117188 163.851562 27.769531 164.046875 C 28.417969 164.246094 29.054688 164.472656 29.683594 164.734375 C 30.308594 164.992188 30.921875 165.28125 31.519531 165.601562 C 32.117188 165.921875 32.699219 166.269531 33.265625 166.648438 C 33.828125 167.023438 34.375 167.429688 34.898438 167.859375 C 35.421875 168.289062 35.925781 168.746094 36.402344 169.222656 C 36.882812 169.703125 37.339844 170.207031 37.769531 170.730469 C 38.199219 171.253906 38.605469 171.800781 38.980469 172.363281 C 39.359375 172.929688 39.707031 173.507812 40.027344 174.109375 C 40.347656 174.707031 40.636719 175.320312 40.894531 175.945312 C 41.15625 176.574219 41.382812 177.210938 41.582031 177.859375 C 41.777344 178.507812 41.941406 179.167969 42.074219 179.832031 C 42.207031 180.496094 42.304688 181.167969 42.371094 181.84375 C 42.4375 182.519531 42.472656 183.195312 42.472656 183.875 Z M 42.472656 183.875 " fill-opacity="1" fill-rule="nonzero"/><path fill="#5c913b" d="M 353.246094 199.414062 C 353.246094 200.433594 353.144531 201.445312 352.945312 202.445312 C 352.75 203.445312 352.453125 204.417969 352.0625 205.359375 C 351.671875 206.300781 351.195312 207.199219 350.628906 208.046875 C 350.058594 208.894531 349.417969 209.679688 348.695312 210.402344 C 347.972656 211.121094 347.1875 211.765625 346.339844 212.332031 C 345.492188 212.898438 344.597656 213.378906 343.652344 213.769531 C 342.710938 214.160156 341.738281 214.453125 340.738281 214.652344 C 339.738281 214.851562 338.726562 214.953125 337.707031 214.953125 C 336.6875 214.953125 335.675781 214.851562 334.675781 214.652344 C 333.675781 214.453125 332.703125 214.160156 331.761719 213.769531 C 330.816406 213.378906 329.921875 212.898438 329.074219 212.332031 C 328.226562 211.765625 327.441406 211.121094 326.71875 210.402344 C 326 209.679688 325.355469 208.894531 324.789062 208.046875 C 324.21875 207.199219 323.742188 206.300781 323.351562 205.359375 C 322.960938 204.417969 322.667969 203.445312 322.46875 202.445312 C 322.269531 201.445312 322.167969 200.433594 322.167969 199.414062 C 322.167969 198.394531 322.269531 197.382812 322.46875 196.382812 C 322.667969 195.378906 322.960938 194.410156 323.351562 193.464844 C 323.742188 192.523438 324.21875 191.628906 324.789062 190.78125 C 325.355469 189.933594 326 189.148438 326.71875 188.425781 C 327.441406 187.703125 328.226562 187.058594 329.074219 186.492188 C 329.921875 185.925781 330.816406 185.449219 331.761719 185.058594 C 332.703125 184.667969 333.675781 184.371094 334.675781 184.171875 C 335.675781 183.972656 336.6875 183.875 337.707031 183.875 C 338.726562 183.875 339.738281 183.972656 340.738281 184.171875 C 341.738281 184.371094 342.710938 184.667969 343.652344 185.058594 C 344.597656 185.449219 345.492188 185.925781 346.339844 186.492188 C 347.1875 187.058594 347.972656 187.703125 348.695312 188.425781 C 349.417969 189.148438 350.058594 189.933594 350.628906 190.78125 C 351.195312 191.628906 351.671875 192.523438 352.0625 193.464844 C 352.453125 194.410156 352.75 195.378906 352.945312 196.382812 C 353.144531 197.382812 353.246094 198.394531 353.246094 199.414062 Z M 353.246094 199.414062 " fill-opacity="1" fill-rule="nonzero"/><path fill="#5c913b" d="M 260.015625 323.722656 C 260.015625 324.742188 259.914062 325.753906 259.714844 326.753906 C 259.515625 327.753906 259.222656 328.726562 258.832031 329.667969 C 258.441406 330.613281 257.960938 331.507812 257.394531 332.355469 C 256.828125 333.203125 256.183594 333.988281 255.460938 334.710938 C 254.742188 335.429688 253.957031 336.074219 253.109375 336.640625 C 252.257812 337.210938 251.363281 337.6875 250.421875 338.078125 C 249.480469 338.46875 248.507812 338.761719 247.507812 338.960938 C 246.507812 339.160156 245.496094 339.261719 244.476562 339.261719 C 243.453125 339.261719 242.445312 339.160156 241.445312 338.960938 C 240.441406 338.761719 239.472656 338.46875 238.527344 338.078125 C 237.585938 337.6875 236.691406 337.210938 235.84375 336.640625 C 234.992188 336.074219 234.210938 335.429688 233.488281 334.710938 C 232.765625 333.988281 232.121094 333.203125 231.554688 332.355469 C 230.988281 331.507812 230.507812 330.613281 230.121094 329.667969 C 229.730469 328.726562 229.433594 327.753906 229.234375 326.753906 C 229.035156 325.753906 228.9375 324.742188 228.9375 323.722656 C 228.9375 322.703125 229.035156 321.691406 229.234375 320.691406 C 229.433594 319.691406 229.730469 318.71875 230.121094 317.777344 C 230.507812 316.832031 230.988281 315.9375 231.554688 315.089844 C 232.121094 314.242188 232.765625 313.457031 233.488281 312.734375 C 234.210938 312.011719 234.992188 311.371094 235.84375 310.800781 C 236.691406 310.234375 237.585938 309.757812 238.527344 309.367188 C 239.472656 308.976562 240.441406 308.679688 241.445312 308.480469 C 242.445312 308.28125 243.453125 308.183594 244.476562 308.183594 C 245.496094 308.183594 246.507812 308.28125 247.507812 308.480469 C 248.507812 308.679688 249.480469 308.976562 250.421875 309.367188 C 251.363281 309.757812 252.257812 310.234375 253.109375 310.800781 C 253.957031 311.371094 254.742188 312.011719 255.460938 312.734375 C 256.183594 313.457031 256.828125 314.242188 257.394531 315.089844 C 257.960938 315.9375 258.441406 316.832031 258.832031 317.777344 C 259.222656 318.71875 259.515625 319.691406 259.714844 320.691406 C 259.914062 321.691406 260.015625 322.703125 260.015625 323.722656 Z M 260.015625 323.722656 " fill-opacity="1" fill-rule="nonzero"/><path fill="#ffcc4d" d="M 311.808594 38.847656 C 311.808594 39.523438 311.777344 40.203125 311.710938 40.878906 C 311.644531 41.550781 311.542969 42.222656 311.410156 42.886719 C 311.277344 43.554688 311.113281 44.210938 310.917969 44.859375 C 310.71875 45.511719 310.492188 46.148438 310.230469 46.773438 C 309.972656 47.402344 309.683594 48.015625 309.363281 48.613281 C 309.042969 49.210938 308.695312 49.792969 308.316406 50.355469 C 307.941406 50.921875 307.535156 51.464844 307.105469 51.988281 C 306.675781 52.515625 306.222656 53.015625 305.742188 53.496094 C 305.261719 53.976562 304.757812 54.429688 304.234375 54.863281 C 303.710938 55.292969 303.164062 55.695312 302.601562 56.074219 C 302.039062 56.449219 301.457031 56.796875 300.859375 57.117188 C 300.257812 57.4375 299.648438 57.726562 299.019531 57.988281 C 298.394531 58.246094 297.753906 58.476562 297.105469 58.671875 C 296.457031 58.871094 295.796875 59.035156 295.132812 59.167969 C 294.46875 59.300781 293.796875 59.398438 293.121094 59.464844 C 292.445312 59.53125 291.769531 59.566406 291.089844 59.566406 C 290.414062 59.566406 289.734375 59.53125 289.058594 59.464844 C 288.386719 59.398438 287.714844 59.300781 287.050781 59.167969 C 286.382812 59.035156 285.726562 58.871094 285.078125 58.671875 C 284.425781 58.476562 283.789062 58.246094 283.164062 57.988281 C 282.535156 57.726562 281.921875 57.4375 281.324219 57.117188 C 280.726562 56.796875 280.144531 56.449219 279.582031 56.074219 C 279.015625 55.695312 278.472656 55.292969 277.949219 54.863281 C 277.421875 54.429688 276.921875 53.976562 276.441406 53.496094 C 275.960938 53.015625 275.507812 52.515625 275.074219 51.988281 C 274.644531 51.464844 274.242188 50.921875 273.863281 50.355469 C 273.488281 49.792969 273.140625 49.210938 272.820312 48.613281 C 272.5 48.015625 272.210938 47.402344 271.949219 46.773438 C 271.691406 46.148438 271.460938 45.511719 271.265625 44.859375 C 271.066406 44.210938 270.902344 43.554688 270.769531 42.886719 C 270.636719 42.222656 270.539062 41.550781 270.472656 40.878906 C 270.40625 40.203125 270.371094 39.523438 270.371094 38.847656 C 270.371094 38.167969 270.40625 37.492188 270.472656 36.816406 C 270.539062 36.140625 270.636719 35.46875 270.769531 34.804688 C 270.902344 34.140625 271.066406 33.480469 271.265625 32.832031 C 271.460938 32.183594 271.691406 31.546875 271.949219 30.917969 C 272.210938 30.292969 272.5 29.679688 272.820312 29.082031 C 273.140625 28.480469 273.488281 27.902344 273.863281 27.335938 C 274.242188 26.773438 274.644531 26.226562 275.074219 25.703125 C 275.507812 25.179688 275.960938 24.675781 276.441406 24.195312 C 276.921875 23.71875 277.421875 23.261719 277.949219 22.832031 C 278.472656 22.402344 279.015625 21.996094 279.582031 21.621094 C 280.144531 21.242188 280.726562 20.894531 281.324219 20.574219 C 281.921875 20.253906 282.535156 19.964844 283.164062 19.707031 C 283.789062 19.445312 284.425781 19.21875 285.078125 19.019531 C 285.726562 18.824219 286.382812 18.660156 287.050781 18.527344 C 287.714844 18.394531 288.386719 18.292969 289.058594 18.226562 C 289.734375 18.160156 290.414062 18.128906 291.089844 18.128906 C 291.769531 18.128906 292.445312 18.160156 293.121094 18.226562 C 293.796875 18.292969 294.46875 18.394531 295.132812 18.527344 C 295.796875 18.660156 296.457031 18.824219 297.105469 19.019531 C 297.753906 19.21875 298.394531 19.445312 299.019531 19.707031 C 299.648438 19.964844 300.257812 20.253906 300.859375 20.574219 C 301.457031 20.894531 302.039062 21.242188 302.601562 21.621094 C 303.164062 21.996094 303.710938 22.402344 304.234375 22.832031 C 304.757812 23.261719 305.261719 23.71875 305.742188 24.195312 C 306.222656 24.675781 306.675781 25.179688 307.105469 25.703125 C 307.535156 26.226562 307.941406 26.773438 308.316406 27.335938 C 308.695312 27.902344 309.042969 28.480469 309.363281 29.082031 C 309.683594 29.679688 309.972656 30.292969 310.230469 30.917969 C 310.492188 31.546875 310.71875 32.183594 310.917969 32.832031 C 311.113281 33.480469 311.277344 34.140625 311.410156 34.804688 C 311.542969 35.46875 311.644531 36.140625 311.710938 36.816406 C 311.777344 37.492188 311.808594 38.167969 311.808594 38.847656 Z M 311.808594 38.847656 " fill-opacity="1" fill-rule="nonzero"/><path fill="#ffcc4d" d="M 353.246094 85.460938 C 353.246094 86.484375 353.144531 87.492188 352.945312 88.492188 C 352.75 89.496094 352.453125 90.464844 352.0625 91.410156 C 351.671875 92.351562 351.195312 93.246094 350.628906 94.09375 C 350.058594 94.945312 349.417969 95.730469 348.695312 96.449219 C 347.972656 97.171875 347.1875 97.816406 346.339844 98.382812 C 345.492188 98.949219 344.597656 99.429688 343.652344 99.820312 C 342.710938 100.210938 341.738281 100.503906 340.738281 100.703125 C 339.738281 100.902344 338.726562 101 337.707031 101 C 336.6875 101 335.675781 100.902344 334.675781 100.703125 C 333.675781 100.503906 332.703125 100.210938 331.761719 99.820312 C 330.816406 99.429688 329.921875 98.949219 329.074219 98.382812 C 328.226562 97.816406 327.441406 97.171875 326.71875 96.449219 C 326 95.730469 325.355469 94.945312 324.789062 94.09375 C 324.21875 93.246094 323.742188 92.351562 323.351562 91.410156 C 322.960938 90.464844 322.667969 89.496094 322.46875 88.492188 C 322.269531 87.492188 322.167969 86.484375 322.167969 85.460938 C 322.167969 84.441406 322.269531 83.433594 322.46875 82.429688 C 322.667969 81.429688 322.960938 80.457031 323.351562 79.515625 C 323.742188 78.574219 324.21875 77.679688 324.789062 76.828125 C 325.355469 75.980469 326 75.195312 326.71875 74.476562 C 327.441406 73.753906 328.226562 73.109375 329.074219 72.542969 C 329.921875 71.976562 330.816406 71.496094 331.761719 71.105469 C 332.703125 70.714844 333.675781 70.421875 334.675781 70.222656 C 335.675781 70.023438 336.6875 69.925781 337.707031 69.925781 C 338.726562 69.925781 339.738281 70.023438 340.738281 70.222656 C 341.738281 70.421875 342.710938 70.714844 343.652344 71.105469 C 344.597656 71.496094 345.492188 71.976562 346.339844 72.542969 C 347.1875 73.109375 347.972656 73.753906 348.695312 74.476562 C 349.417969 75.195312 350.058594 75.980469 350.628906 76.828125 C 351.195312 77.679688 351.671875 78.574219 352.0625 79.515625 C 352.453125 80.457031 352.75 81.429688 352.945312 82.429688 C 353.144531 83.433594 353.246094 84.441406 353.246094 85.460938 Z M 353.246094 85.460938 " fill-opacity="1" fill-rule="nonzero"/><path fill="#ffcc4d" d="M 322.167969 126.898438 C 322.167969 127.917969 322.070312 128.929688 321.871094 129.929688 C 321.671875 130.929688 321.375 131.902344 320.984375 132.84375 C 320.59375 133.789062 320.117188 134.683594 319.550781 135.53125 C 318.984375 136.378906 318.339844 137.164062 317.617188 137.886719 C 316.894531 138.609375 316.109375 139.253906 315.261719 139.820312 C 314.414062 140.386719 313.519531 140.863281 312.574219 141.253906 C 311.632812 141.644531 310.660156 141.941406 309.660156 142.140625 C 308.660156 142.339844 307.648438 142.4375 306.628906 142.4375 C 305.609375 142.4375 304.597656 142.339844 303.597656 142.140625 C 302.597656 141.941406 301.625 141.644531 300.683594 141.253906 C 299.742188 140.863281 298.84375 140.386719 297.996094 139.820312 C 297.148438 139.253906 296.363281 138.609375 295.640625 137.886719 C 294.921875 137.164062 294.277344 136.378906 293.710938 135.53125 C 293.144531 134.683594 292.664062 133.789062 292.273438 132.84375 C 291.882812 131.902344 291.589844 130.929688 291.390625 129.929688 C 291.191406 128.929688 291.089844 127.917969 291.089844 126.898438 C 291.089844 125.878906 291.191406 124.867188 291.390625 123.867188 C 291.589844 122.867188 291.882812 121.894531 292.273438 120.953125 C 292.664062 120.011719 293.144531 119.113281 293.710938 118.265625 C 294.277344 117.417969 294.921875 116.632812 295.640625 115.910156 C 296.363281 115.191406 297.148438 114.546875 297.996094 113.980469 C 298.84375 113.414062 299.742188 112.933594 300.683594 112.542969 C 301.625 112.152344 302.597656 111.859375 303.597656 111.660156 C 304.597656 111.460938 305.609375 111.359375 306.628906 111.359375 C 307.648438 111.359375 308.660156 111.460938 309.660156 111.660156 C 310.660156 111.859375 311.632812 112.152344 312.574219 112.542969 C 313.519531 112.933594 314.414062 113.414062 315.261719 113.980469 C 316.109375 114.546875 316.894531 115.191406 317.617188 115.910156 C 318.339844 116.632812 318.984375 117.417969 319.550781 118.265625 C 320.117188 119.113281 320.59375 120.011719 320.984375 120.953125 C 321.375 121.894531 321.671875 122.867188 321.871094 123.867188 C 322.070312 124.867188 322.167969 125.878906 322.167969 126.898438 Z M 322.167969 126.898438 " fill-opacity="1" fill-rule="nonzero"/><path fill="#ffcc4d" d="M 94.269531 240.847656 C 94.269531 241.871094 94.167969 242.878906 93.96875 243.878906 C 93.769531 244.882812 93.476562 245.851562 93.085938 246.796875 C 92.695312 247.738281 92.214844 248.632812 91.648438 249.480469 C 91.082031 250.332031 90.4375 251.117188 89.714844 251.835938 C 88.996094 252.558594 88.210938 253.203125 87.363281 253.769531 C 86.515625 254.335938 85.617188 254.816406 84.675781 255.207031 C 83.734375 255.597656 82.761719 255.890625 81.761719 256.089844 C 80.761719 256.289062 79.75 256.386719 78.730469 256.386719 C 77.710938 256.386719 76.699219 256.289062 75.699219 256.089844 C 74.695312 255.890625 73.726562 255.597656 72.78125 255.207031 C 71.839844 254.816406 70.945312 254.335938 70.097656 253.769531 C 69.25 253.203125 68.464844 252.558594 67.742188 251.835938 C 67.019531 251.117188 66.375 250.332031 65.808594 249.480469 C 65.242188 248.632812 64.765625 247.738281 64.375 246.796875 C 63.984375 245.851562 63.6875 244.882812 63.488281 243.882812 C 63.289062 242.878906 63.191406 241.871094 63.191406 240.847656 C 63.191406 239.828125 63.289062 238.820312 63.488281 237.816406 C 63.6875 236.816406 63.984375 235.84375 64.375 234.902344 C 64.765625 233.960938 65.242188 233.066406 65.808594 232.214844 C 66.375 231.367188 67.019531 230.582031 67.742188 229.863281 C 68.464844 229.140625 69.25 228.496094 70.097656 227.929688 C 70.945312 227.363281 71.839844 226.882812 72.78125 226.492188 C 73.726562 226.101562 74.695312 225.808594 75.699219 225.609375 C 76.699219 225.410156 77.710938 225.3125 78.730469 225.3125 C 79.75 225.3125 80.761719 225.410156 81.761719 225.609375 C 82.761719 225.808594 83.734375 226.101562 84.675781 226.492188 C 85.617188 226.882812 86.515625 227.363281 87.363281 227.929688 C 88.210938 228.496094 88.996094 229.140625 89.714844 229.863281 C 90.4375 230.582031 91.082031 231.367188 91.648438 232.214844 C 92.214844 233.066406 92.695312 233.960938 93.085938 234.902344 C 93.476562 235.84375 93.769531 236.816406 93.96875 237.816406 C 94.167969 238.820312 94.269531 239.828125 94.269531 240.847656 Z M 94.269531 240.847656 " fill-opacity="1" fill-rule="nonzero"/></svg>