<svg xmlns="http://www.w3.org/2000/svg" xmlns:xlink="http://www.w3.org/1999/xlink" width="500" zoomAndPan="magnify" viewBox="0 0 375 374.999991" height="500" preserveAspectRatio="xMidYMid meet" version="1.0"><path fill="#ccd6dd" d="M 375 187.5 C 375 190.570312 374.925781 193.636719 374.773438 196.699219 C 374.625 199.765625 374.398438 202.824219 374.097656 205.878906 C 373.796875 208.933594 373.421875 211.976562 372.96875 215.011719 C 372.519531 218.046875 371.996094 221.070312 371.398438 224.078125 C 370.796875 227.089844 370.125 230.082031 369.378906 233.058594 C 368.636719 236.035156 367.816406 238.992188 366.925781 241.929688 C 366.035156 244.863281 365.074219 247.777344 364.039062 250.667969 C 363.003906 253.554688 361.902344 256.417969 360.726562 259.253906 C 359.554688 262.089844 358.308594 264.890625 356.996094 267.667969 C 355.6875 270.441406 354.308594 273.179688 352.859375 275.886719 C 351.414062 278.59375 349.902344 281.261719 348.324219 283.894531 C 346.746094 286.527344 345.105469 289.117188 343.402344 291.667969 C 341.695312 294.222656 339.929688 296.730469 338.101562 299.195312 C 336.273438 301.660156 334.386719 304.078125 332.4375 306.449219 C 330.492188 308.820312 328.488281 311.144531 326.429688 313.417969 C 324.367188 315.691406 322.253906 317.914062 320.082031 320.082031 C 317.914062 322.253906 315.691406 324.367188 313.417969 326.429688 C 311.144531 328.488281 308.820312 330.492188 306.449219 332.4375 C 304.078125 334.386719 301.660156 336.273438 299.195312 338.101562 C 296.730469 339.929688 294.222656 341.695312 291.667969 343.402344 C 289.117188 345.105469 286.527344 346.746094 283.894531 348.324219 C 281.261719 349.902344 278.59375 351.414062 275.886719 352.859375 C 273.179688 354.308594 270.441406 355.6875 267.667969 356.996094 C 264.890625 358.308594 262.089844 359.554688 259.253906 360.726562 C 256.417969 361.902344 253.554688 363.003906 250.667969 364.039062 C 247.777344 365.074219 244.863281 366.035156 241.929688 366.925781 C 238.992188 367.816406 236.035156 368.636719 233.058594 369.378906 C 230.082031 370.125 227.089844 370.796875 224.078125 371.398438 C 221.070312 371.996094 218.046875 372.519531 215.011719 372.96875 C 211.976562 373.421875 208.933594 373.796875 205.878906 374.097656 C 202.824219 374.398438 199.765625 374.625 196.699219 374.773438 C 193.636719 374.925781 190.570312 375 187.5 375 C 184.429688 375 181.363281 374.925781 178.300781 374.773438 C 175.234375 374.625 172.175781 374.398438 169.121094 374.097656 C 166.066406 373.796875 163.023438 373.421875 159.988281 372.96875 C 156.953125 372.519531 153.929688 371.996094 150.921875 371.398438 C 147.910156 370.796875 144.917969 370.125 141.941406 369.378906 C 138.964844 368.636719 136.007812 367.816406 133.070312 366.925781 C 130.136719 366.035156 127.222656 365.074219 124.332031 364.039062 C 121.445312 363.003906 118.582031 361.902344 115.746094 360.726562 C 112.910156 359.554688 110.105469 358.308594 107.332031 356.996094 C 104.558594 355.6875 101.820312 354.308594 99.113281 352.859375 C 96.40625 351.414062 93.738281 349.902344 91.105469 348.324219 C 88.472656 346.746094 85.882812 345.105469 83.332031 343.402344 C 80.777344 341.695312 78.269531 339.929688 75.804688 338.101562 C 73.339844 336.273438 70.921875 334.386719 68.550781 332.4375 C 66.179688 330.492188 63.855469 328.488281 61.582031 326.429688 C 59.308594 324.367188 57.085938 322.253906 54.917969 320.082031 C 52.746094 317.914062 50.632812 315.691406 48.570312 313.417969 C 46.511719 311.144531 44.507812 308.820312 42.558594 306.449219 C 40.613281 304.078125 38.726562 301.660156 36.898438 299.195312 C 35.070312 296.730469 33.304688 294.222656 31.597656 291.667969 C 29.894531 289.117188 28.253906 286.527344 26.675781 283.894531 C 25.097656 281.261719 23.585938 278.59375 22.140625 275.886719 C 20.691406 273.179688 19.3125 270.441406 18.003906 267.667969 C 16.691406 264.890625 15.445312 262.089844 14.273438 259.253906 C 13.097656 256.417969 11.996094 253.554688 10.960938 250.667969 C 9.925781 247.777344 8.964844 244.863281 8.074219 241.929688 C 7.183594 238.992188 6.363281 236.035156 5.621094 233.058594 C 4.875 230.082031 4.203125 227.089844 3.601562 224.078125 C 3.003906 221.070312 2.480469 218.046875 2.03125 215.011719 C 1.578125 211.976562 1.203125 208.933594 0.902344 205.878906 C 0.601562 202.824219 0.375 199.765625 0.226562 196.699219 C 0.0742188 193.636719 0 190.570312 0 187.5 C 0 184.429688 0.0742188 181.363281 0.226562 178.300781 C 0.375 175.234375 0.601562 172.175781 0.902344 169.121094 C 1.203125 166.066406 1.578125 163.023438 2.03125 159.988281 C 2.480469 156.953125 3.003906 153.929688 3.601562 150.921875 C 4.203125 147.910156 4.875 144.917969 5.621094 141.941406 C 6.363281 138.964844 7.183594 136.007812 8.074219 133.070312 C 8.964844 130.136719 9.925781 127.222656 10.960938 124.332031 C 11.996094 121.445312 13.097656 118.582031 14.273438 115.746094 C 15.445312 112.910156 16.691406 110.105469 18.003906 107.332031 C 19.3125 104.558594 20.691406 101.820312 22.140625 99.113281 C 23.585938 96.40625 25.097656 93.738281 26.675781 91.105469 C 28.253906 88.472656 29.894531 85.882812 31.597656 83.332031 C 33.304688 80.777344 35.070312 78.269531 36.898438 75.804688 C 38.726562 73.339844 40.613281 70.921875 42.558594 68.550781 C 44.507812 66.179688 46.511719 63.855469 48.570312 61.582031 C 50.632812 59.308594 52.746094 57.085938 54.917969 54.917969 C 57.085938 52.746094 59.308594 50.632812 61.582031 48.570312 C 63.855469 46.511719 66.179688 44.507812 68.550781 42.558594 C 70.921875 40.613281 73.339844 38.726562 75.804688 36.898438 C 78.269531 35.070312 80.777344 33.304688 83.332031 31.597656 C 85.882812 29.894531 88.472656 28.253906 91.105469 26.675781 C 93.738281 25.097656 96.40625 23.585938 99.113281 22.140625 C 101.820312 20.691406 104.558594 19.3125 107.332031 18.003906 C 110.105469 16.691406 112.910156 15.445312 115.746094 14.273438 C 118.582031 13.097656 121.445312 11.996094 124.332031 10.960938 C 127.222656 9.925781 130.136719 8.964844 133.070312 8.074219 C 136.007812 7.183594 138.964844 6.363281 141.941406 5.617188 C 144.917969 4.875 147.910156 4.203125 150.921875 3.601562 C 153.929688 3.003906 156.953125 2.480469 159.988281 2.03125 C 163.023438 1.578125 166.066406 1.203125 169.121094 0.902344 C 172.175781 0.601562 175.234375 0.375 178.300781 0.226562 C 181.363281 0.0742188 184.429688 0 187.5 0 C 190.570312 0 193.636719 0.0742188 196.699219 0.226562 C 199.765625 0.375 202.824219 0.601562 205.878906 0.902344 C 208.933594 1.203125 211.976562 1.578125 215.011719 2.03125 C 218.046875 2.480469 221.070312 3.003906 224.078125 3.601562 C 227.089844 4.203125 230.082031 4.875 233.058594 5.617188 C 236.035156 6.363281 238.992188 7.183594 241.929688 8.074219 C 244.863281 8.964844 247.777344 9.925781 250.667969 10.960938 C 253.554688 11.996094 256.417969 13.097656 259.253906 14.273438 C 262.089844 15.445312 264.890625 16.691406 267.667969 18.003906 C 270.441406 19.3125 273.179688 20.691406 275.886719 22.140625 C 278.59375 23.585938 281.261719 25.097656 283.894531 26.675781 C 286.527344 28.253906 289.117188 29.894531 291.667969 31.597656 C 294.222656 33.304688 296.730469 35.070312 299.195312 36.898438 C 301.660156 38.726562 304.078125 40.613281 306.449219 42.558594 C 308.820312 44.507812 311.144531 46.511719 313.417969 48.570312 C 315.691406 50.632812 317.914062 52.746094 320.082031 54.917969 C 322.253906 57.085938 324.367188 59.308594 326.429688 61.582031 C 328.488281 63.855469 330.492188 66.179688 332.4375 68.550781 C 334.386719 70.921875 336.273438 73.339844 338.101562 75.804688 C 339.929688 78.269531 341.695312 80.777344 343.402344 83.332031 C 345.105469 85.882812 346.746094 88.472656 348.324219 91.105469 C 349.902344 93.738281 351.414062 96.40625 352.859375 99.113281 C 354.308594 101.820312 355.6875 104.558594 356.996094 107.332031 C 358.308594 110.105469 359.554688 112.910156 360.726562 115.746094 C 361.902344 118.582031 363.003906 121.445312 364.039062 124.332031 C 365.074219 127.222656 366.035156 130.136719 366.925781 133.070312 C 367.816406 136.007812 368.636719 138.964844 369.378906 141.941406 C 370.125 144.917969 370.796875 147.910156 371.398438 150.921875 C 371.996094 153.929688 372.519531 156.953125 372.96875 159.988281 C 373.421875 163.023438 373.796875 166.066406 374.097656 169.121094 C 374.398438 172.175781 374.625 175.234375 374.773438 178.300781 C 374.925781 181.363281 375 184.429688 375 187.5 Z M 375 187.5 " fill-opacity="1" fill-rule="nonzero"/><path fill="#3b88c3" d="M 333.332031 187.5 C 333.332031 189.886719 333.273438 192.273438 333.15625 194.65625 C 333.039062 197.039062 332.863281 199.417969 332.632812 201.792969 C 332.398438 204.167969 332.105469 206.539062 331.753906 208.898438 C 331.40625 211.257812 330.996094 213.609375 330.53125 215.949219 C 330.066406 218.292969 329.542969 220.621094 328.960938 222.933594 C 328.382812 225.25 327.746094 227.550781 327.054688 229.832031 C 326.359375 232.117188 325.613281 234.382812 324.808594 236.628906 C 324.003906 238.875 323.144531 241.101562 322.230469 243.308594 C 321.320312 245.511719 320.351562 247.695312 319.332031 249.851562 C 318.3125 252.007812 317.238281 254.140625 316.113281 256.246094 C 314.988281 258.351562 313.8125 260.425781 312.585938 262.472656 C 311.359375 264.519531 310.082031 266.535156 308.757812 268.519531 C 307.429688 270.503906 306.054688 272.457031 304.632812 274.371094 C 303.210938 276.289062 301.746094 278.171875 300.230469 280.015625 C 298.714844 281.859375 297.15625 283.667969 295.554688 285.4375 C 293.953125 287.203125 292.308594 288.933594 290.621094 290.621094 C 288.933594 292.308594 287.203125 293.953125 285.4375 295.554688 C 283.667969 297.15625 281.859375 298.714844 280.015625 300.230469 C 278.171875 301.746094 276.289062 303.210938 274.371094 304.632812 C 272.457031 306.054688 270.503906 307.429688 268.519531 308.757812 C 266.535156 310.082031 264.519531 311.359375 262.472656 312.585938 C 260.425781 313.8125 258.351562 314.988281 256.246094 316.113281 C 254.140625 317.238281 252.007812 318.3125 249.851562 319.332031 C 247.695312 320.351562 245.511719 321.320312 243.308594 322.230469 C 241.101562 323.144531 238.875 324.003906 236.628906 324.808594 C 234.382812 325.613281 232.117188 326.359375 229.832031 327.054688 C 227.550781 327.746094 225.25 328.382812 222.933594 328.960938 C 220.621094 329.542969 218.292969 330.066406 215.949219 330.53125 C 213.609375 330.996094 211.257812 331.40625 208.898438 331.753906 C 206.539062 332.105469 204.167969 332.398438 201.792969 332.632812 C 199.417969 332.863281 197.039062 333.039062 194.65625 333.15625 C 192.273438 333.273438 189.886719 333.332031 187.5 333.332031 C 185.113281 333.332031 182.726562 333.273438 180.34375 333.15625 C 177.960938 333.039062 175.582031 332.863281 173.207031 332.632812 C 170.832031 332.398438 168.460938 332.105469 166.101562 331.753906 C 163.742188 331.40625 161.390625 330.996094 159.050781 330.53125 C 156.707031 330.066406 154.378906 329.542969 152.066406 328.960938 C 149.75 328.382812 147.449219 327.746094 145.167969 327.054688 C 142.882812 326.359375 140.617188 325.613281 138.371094 324.808594 C 136.125 324.003906 133.898438 323.144531 131.691406 322.230469 C 129.488281 321.320312 127.304688 320.351562 125.148438 319.332031 C 122.992188 318.3125 120.859375 317.238281 118.753906 316.113281 C 116.648438 314.988281 114.574219 313.8125 112.527344 312.585938 C 110.480469 311.359375 108.464844 310.082031 106.480469 308.757812 C 104.496094 307.429688 102.542969 306.054688 100.628906 304.632812 C 98.710938 303.210938 96.828125 301.746094 94.984375 300.230469 C 93.140625 298.714844 91.332031 297.15625 89.5625 295.554688 C 87.796875 293.953125 86.066406 292.308594 84.378906 290.621094 C 82.691406 288.933594 81.046875 287.203125 79.445312 285.4375 C 77.84375 283.667969 76.285156 281.859375 74.769531 280.015625 C 73.253906 278.171875 71.789062 276.289062 70.367188 274.371094 C 68.945312 272.457031 67.570312 270.503906 66.242188 268.519531 C 64.917969 266.535156 63.640625 264.519531 62.414062 262.472656 C 61.1875 260.425781 60.011719 258.351562 58.886719 256.246094 C 57.761719 254.140625 56.6875 252.007812 55.667969 249.851562 C 54.648438 247.695312 53.679688 245.511719 52.765625 243.308594 C 51.855469 241.101562 50.996094 238.875 50.191406 236.628906 C 49.386719 234.382812 48.640625 232.117188 47.945312 229.832031 C 47.253906 227.550781 46.617188 225.25 46.039062 222.933594 C 45.457031 220.621094 44.933594 218.292969 44.46875 215.949219 C 44.003906 213.609375 43.59375 211.257812 43.246094 208.898438 C 42.894531 206.539062 42.601562 204.167969 42.367188 201.792969 C 42.136719 199.417969 41.960938 197.039062 41.84375 194.65625 C 41.726562 192.273438 41.667969 189.886719 41.667969 187.5 C 41.667969 185.113281 41.726562 182.726562 41.84375 180.34375 C 41.960938 177.960938 42.136719 175.582031 42.367188 173.207031 C 42.601562 170.832031 42.894531 168.460938 43.246094 166.101562 C 43.59375 163.742188 44.003906 161.390625 44.46875 159.050781 C 44.933594 156.707031 45.457031 154.378906 46.039062 152.066406 C 46.617188 149.75 47.253906 147.449219 47.945312 145.167969 C 48.640625 142.882812 49.386719 140.617188 50.191406 138.371094 C 50.996094 136.121094 51.855469 133.898438 52.765625 131.691406 C 53.679688 129.488281 54.648438 127.304688 55.667969 125.148438 C 56.6875 122.992188 57.761719 120.859375 58.886719 118.753906 C 60.011719 116.648438 61.1875 114.574219 62.414062 112.527344 C 63.640625 110.480469 64.917969 108.464844 66.242188 106.480469 C 67.570312 104.496094 68.945312 102.542969 70.367188 100.628906 C 71.789062 98.710938 73.253906 96.828125 74.769531 94.984375 C 76.285156 93.140625 77.84375 91.332031 79.445312 89.5625 C 81.046875 87.796875 82.691406 86.066406 84.378906 84.378906 C 86.066406 82.691406 87.796875 81.046875 89.5625 79.445312 C 91.332031 77.84375 93.140625 76.285156 94.984375 74.769531 C 96.828125 73.253906 98.710938 71.789062 100.628906 70.367188 C 102.542969 68.945312 104.496094 67.570312 106.480469 66.242188 C 108.464844 64.917969 110.480469 63.640625 112.527344 62.414062 C 114.574219 61.1875 116.648438 60.011719 118.753906 58.886719 C 120.859375 57.761719 122.992188 56.6875 125.148438 55.667969 C 127.304688 54.648438 129.488281 53.679688 131.691406 52.765625 C 133.898438 51.855469 136.125 50.996094 138.371094 50.191406 C 140.617188 49.386719 142.882812 48.640625 145.167969 47.945312 C 147.449219 47.253906 149.75 46.617188 152.066406 46.035156 C 154.378906 45.457031 156.707031 44.933594 159.050781 44.46875 C 161.390625 44.003906 163.742188 43.59375 166.101562 43.246094 C 168.460938 42.894531 170.832031 42.601562 173.207031 42.367188 C 175.582031 42.136719 177.960938 41.960938 180.34375 41.84375 C 182.726562 41.726562 185.113281 41.667969 187.5 41.667969 C 189.886719 41.667969 192.273438 41.726562 194.65625 41.84375 C 197.039062 41.960938 199.417969 42.136719 201.792969 42.367188 C 204.167969 42.601562 206.539062 42.894531 208.898438 43.246094 C 211.257812 43.59375 213.609375 44.003906 215.949219 44.46875 C 218.292969 44.933594 220.621094 45.457031 222.933594 46.035156 C 225.25 46.617188 227.550781 47.253906 229.832031 47.945312 C 232.117188 48.640625 234.382812 49.386719 236.628906 50.191406 C 238.875 50.996094 241.101562 51.855469 243.308594 52.765625 C 245.511719 53.679688 247.695312 54.648438 249.851562 55.667969 C 252.007812 56.6875 254.140625 57.761719 256.246094 58.886719 C 258.351562 60.011719 260.425781 61.1875 262.472656 62.414062 C 264.519531 63.640625 266.535156 64.917969 268.519531 66.242188 C 270.503906 67.570312 272.457031 68.945312 274.371094 70.367188 C 276.289062 71.789062 278.171875 73.253906 280.015625 74.769531 C 281.859375 76.285156 283.667969 77.84375 285.4375 79.445312 C 287.203125 81.046875 288.933594 82.691406 290.621094 84.378906 C 292.308594 86.066406 293.953125 87.796875 295.554688 89.5625 C 297.15625 91.332031 298.714844 93.140625 300.230469 94.984375 C 301.746094 96.828125 303.210938 98.710938 304.632812 100.628906 C 306.054688 102.542969 307.429688 104.496094 308.757812 106.480469 C 310.082031 108.464844 311.359375 110.480469 312.585938 112.527344 C 313.8125 114.574219 314.988281 116.648438 316.113281 118.753906 C 317.238281 120.859375 318.3125 122.992188 319.332031 125.148438 C 320.351562 127.304688 321.320312 129.488281 322.230469 131.691406 C 323.144531 133.898438 324.003906 136.121094 324.808594 138.371094 C 325.613281 140.617188 326.359375 142.882812 327.054688 145.167969 C 327.746094 147.449219 328.382812 149.75 328.960938 152.066406 C 329.542969 154.378906 330.066406 156.707031 330.53125 159.050781 C 330.996094 161.390625 331.40625 163.742188 331.753906 166.101562 C 332.105469 168.460938 332.398438 170.832031 332.632812 173.207031 C 332.863281 175.582031 333.039062 177.960938 333.15625 180.34375 C 333.273438 182.726562 333.332031 185.113281 333.332031 187.5 Z M 333.332031 187.5 " fill-opacity="1" fill-rule="nonzero"/><path fill="#dd2e44" d="M 291.667969 187.5 C 291.667969 189.203125 291.625 190.910156 291.542969 192.609375 C 291.457031 194.3125 291.332031 196.011719 291.164062 197.710938 C 290.996094 199.40625 290.789062 201.097656 290.539062 202.785156 C 290.289062 204.472656 289.996094 206.148438 289.664062 207.820312 C 289.332031 209.492188 288.960938 211.15625 288.542969 212.808594 C 288.128906 214.464844 287.675781 216.105469 287.179688 217.738281 C 286.6875 219.371094 286.152344 220.988281 285.578125 222.59375 C 285.003906 224.199219 284.390625 225.789062 283.738281 227.363281 C 283.085938 228.9375 282.394531 230.496094 281.664062 232.035156 C 280.9375 233.578125 280.171875 235.101562 279.367188 236.605469 C 278.5625 238.105469 277.722656 239.589844 276.847656 241.050781 C 275.96875 242.515625 275.058594 243.953125 274.113281 245.371094 C 273.164062 246.789062 272.183594 248.183594 271.167969 249.550781 C 270.152344 250.921875 269.101562 252.265625 268.023438 253.582031 C 266.941406 254.902344 265.828125 256.191406 264.683594 257.453125 C 263.539062 258.71875 262.363281 259.953125 261.15625 261.15625 C 259.953125 262.363281 258.71875 263.539062 257.453125 264.683594 C 256.191406 265.828125 254.902344 266.941406 253.582031 268.023438 C 252.265625 269.101562 250.921875 270.152344 249.550781 271.167969 C 248.183594 272.183594 246.789062 273.164062 245.371094 274.113281 C 243.953125 275.058594 242.515625 275.96875 241.050781 276.847656 C 239.589844 277.722656 238.105469 278.5625 236.605469 279.367188 C 235.101562 280.171875 233.578125 280.9375 232.035156 281.664062 C 230.496094 282.394531 228.9375 283.085938 227.363281 283.738281 C 225.789062 284.390625 224.199219 285.003906 222.59375 285.578125 C 220.988281 286.152344 219.371094 286.6875 217.738281 287.179688 C 216.105469 287.675781 214.464844 288.128906 212.808594 288.542969 C 211.15625 288.960938 209.492188 289.332031 207.820312 289.664062 C 206.148438 289.996094 204.472656 290.289062 202.785156 290.539062 C 201.097656 290.789062 199.40625 290.996094 197.710938 291.164062 C 196.011719 291.332031 194.3125 291.457031 192.609375 291.542969 C 190.910156 291.625 189.203125 291.667969 187.5 291.667969 C 185.796875 291.667969 184.089844 291.625 182.390625 291.542969 C 180.6875 291.457031 178.988281 291.332031 177.289062 291.164062 C 175.59375 290.996094 173.902344 290.789062 172.214844 290.539062 C 170.527344 290.289062 168.851562 289.996094 167.179688 289.664062 C 165.507812 289.332031 163.84375 288.960938 162.191406 288.542969 C 160.535156 288.128906 158.894531 287.675781 157.261719 287.179688 C 155.628906 286.6875 154.011719 286.152344 152.40625 285.578125 C 150.800781 285.003906 149.210938 284.390625 147.636719 283.738281 C 146.0625 283.085938 144.503906 282.394531 142.964844 281.664062 C 141.421875 280.9375 139.898438 280.171875 138.394531 279.367188 C 136.894531 278.5625 135.410156 277.722656 133.949219 276.847656 C 132.484375 275.96875 131.046875 275.058594 129.628906 274.113281 C 128.210938 273.164062 126.816406 272.183594 125.449219 271.167969 C 124.078125 270.152344 122.734375 269.101562 121.417969 268.023438 C 120.097656 266.941406 118.808594 265.828125 117.546875 264.683594 C 116.28125 263.539062 115.046875 262.363281 113.84375 261.15625 C 112.636719 259.953125 111.460938 258.71875 110.316406 257.453125 C 109.171875 256.191406 108.058594 254.902344 106.976562 253.582031 C 105.898438 252.265625 104.847656 250.921875 103.832031 249.550781 C 102.816406 248.183594 101.835938 246.789062 100.886719 245.371094 C 99.941406 243.953125 99.03125 242.515625 98.152344 241.050781 C 97.277344 239.589844 96.4375 238.105469 95.632812 236.605469 C 94.828125 235.101562 94.0625 233.578125 93.335938 232.035156 C 92.605469 230.496094 91.914062 228.9375 91.261719 227.363281 C 90.609375 225.789062 89.996094 224.199219 89.421875 222.59375 C 88.847656 220.988281 88.3125 219.371094 87.820312 217.738281 C 87.324219 216.105469 86.871094 214.464844 86.453125 212.808594 C 86.039062 211.15625 85.667969 209.492188 85.335938 207.820312 C 85.003906 206.148438 84.710938 204.472656 84.460938 202.785156 C 84.210938 201.097656 84.003906 199.40625 83.835938 197.710938 C 83.667969 196.011719 83.542969 194.3125 83.457031 192.609375 C 83.375 190.910156 83.332031 189.203125 83.332031 187.5 C 83.332031 185.796875 83.375 184.089844 83.457031 182.390625 C 83.542969 180.6875 83.667969 178.988281 83.835938 177.289062 C 84.003906 175.59375 84.210938 173.902344 84.460938 172.214844 C 84.710938 170.527344 85.003906 168.851562 85.335938 167.179688 C 85.667969 165.507812 86.039062 163.84375 86.453125 162.191406 C 86.871094 160.535156 87.324219 158.894531 87.820312 157.261719 C 88.3125 155.628906 88.847656 154.011719 89.421875 152.40625 C 89.996094 150.800781 90.609375 149.210938 91.261719 147.636719 C 91.914062 146.0625 92.605469 144.503906 93.335938 142.964844 C 94.0625 141.421875 94.828125 139.898438 95.632812 138.394531 C 96.4375 136.894531 97.277344 135.410156 98.152344 133.949219 C 99.03125 132.484375 99.941406 131.046875 100.886719 129.628906 C 101.835938 128.210938 102.816406 126.816406 103.832031 125.449219 C 104.847656 124.078125 105.898438 122.734375 106.976562 121.417969 C 108.058594 120.097656 109.171875 118.808594 110.316406 117.546875 C 111.460938 116.28125 112.636719 115.046875 113.84375 113.84375 C 115.046875 112.636719 116.28125 111.460938 117.546875 110.316406 C 118.808594 109.171875 120.097656 108.058594 121.417969 106.976562 C 122.734375 105.898438 124.078125 104.847656 125.449219 103.832031 C 126.816406 102.816406 128.210938 101.835938 129.628906 100.886719 C 131.046875 99.941406 132.484375 99.03125 133.949219 98.152344 C 135.410156 97.277344 136.894531 96.4375 138.394531 95.632812 C 139.898438 94.828125 141.421875 94.0625 142.964844 93.335938 C 144.503906 92.605469 146.0625 91.914062 147.636719 91.261719 C 149.210938 90.609375 150.800781 89.996094 152.40625 89.421875 C 154.011719 88.847656 155.628906 88.3125 157.261719 87.820312 C 158.894531 87.324219 160.535156 86.871094 162.191406 86.453125 C 163.84375 86.039062 165.507812 85.667969 167.179688 85.335938 C 168.851562 85.003906 170.527344 84.710938 172.214844 84.460938 C 173.902344 84.210938 175.59375 84.003906 177.289062 83.835938 C 178.988281 83.667969 180.6875 83.542969 182.390625 83.457031 C 184.089844 83.375 185.796875 83.332031 187.5 83.332031 C 189.203125 83.332031 190.910156 83.375 192.609375 83.457031 C 194.3125 83.542969 196.011719 83.667969 197.710938 83.835938 C 199.40625 84.003906 201.097656 84.210938 202.785156 84.460938 C 204.472656 84.710938 206.148438 85.003906 207.820312 85.335938 C 209.492188 85.667969 211.15625 86.039062 212.808594 86.453125 C 214.464844 86.871094 216.105469 87.324219 217.738281 87.820312 C 219.371094 88.3125 220.988281 88.847656 222.59375 89.421875 C 224.199219 89.996094 225.789062 90.609375 227.363281 91.261719 C 228.9375 91.914062 230.496094 92.605469 232.035156 93.335938 C 233.578125 94.0625 235.101562 94.828125 236.605469 95.632812 C 238.105469 96.4375 239.589844 97.277344 241.050781 98.152344 C 242.515625 99.03125 243.953125 99.941406 245.371094 100.886719 C 246.789062 101.835938 248.183594 102.816406 249.550781 103.832031 C 250.921875 104.847656 252.265625 105.898438 253.582031 106.976562 C 254.902344 108.058594 256.191406 109.171875 257.453125 110.316406 C 258.71875 111.460938 259.953125 112.636719 261.15625 113.84375 C 262.363281 115.046875 263.539062 116.28125 264.683594 117.546875 C 265.828125 118.808594 266.941406 120.097656 268.023438 121.417969 C 269.101562 122.734375 270.152344 124.078125 271.167969 125.449219 C 272.183594 126.816406 273.164062 128.210938 274.113281 129.628906 C 275.058594 131.046875 275.96875 132.484375 276.847656 133.949219 C 277.722656 135.410156 278.5625 136.894531 279.367188 138.394531 C 280.171875 139.898438 280.9375 141.421875 281.664062 142.964844 C 282.394531 144.503906 283.085938 146.0625 283.738281 147.636719 C 284.390625 149.210938 285.003906 150.800781 285.578125 152.40625 C 286.152344 154.011719 286.6875 155.628906 287.179688 157.261719 C 287.675781 158.894531 288.128906 160.535156 288.542969 162.191406 C 288.960938 163.84375 289.332031 165.507812 289.664062 167.179688 C 289.996094 168.851562 290.289062 170.527344 290.539062 172.214844 C 290.789062 173.902344 290.996094 175.59375 291.164062 177.289062 C 291.332031 178.988281 291.457031 180.6875 291.542969 182.390625 C 291.625 184.089844 291.667969 185.796875 291.667969 187.5 Z M 291.667969 187.5 " fill-opacity="1" fill-rule="nonzero"/><path fill="#ffac33" d="M 250 187.5 C 250 189.546875 249.898438 191.589844 249.699219 193.625 C 249.5 195.664062 249.199219 197.683594 248.800781 199.691406 C 248.398438 201.699219 247.902344 203.683594 247.308594 205.644531 C 246.714844 207.601562 246.027344 209.527344 245.242188 211.417969 C 244.460938 213.308594 243.585938 215.15625 242.621094 216.960938 C 241.65625 218.765625 240.605469 220.519531 239.46875 222.222656 C 238.328125 223.925781 237.113281 225.566406 235.8125 227.148438 C 234.515625 228.730469 233.140625 230.246094 231.695312 231.695312 C 230.246094 233.140625 228.730469 234.515625 227.148438 235.8125 C 225.566406 237.113281 223.925781 238.328125 222.222656 239.46875 C 220.519531 240.605469 218.765625 241.65625 216.960938 242.621094 C 215.15625 243.585938 213.308594 244.460938 211.417969 245.242188 C 209.527344 246.027344 207.601562 246.714844 205.644531 247.308594 C 203.683594 247.902344 201.699219 248.398438 199.691406 248.800781 C 197.683594 249.199219 195.664062 249.5 193.625 249.699219 C 191.589844 249.898438 189.546875 250 187.5 250 C 185.453125 250 183.410156 249.898438 181.375 249.699219 C 179.335938 249.5 177.316406 249.199219 175.308594 248.800781 C 173.300781 248.398438 171.316406 247.902344 169.355469 247.308594 C 167.398438 246.714844 165.472656 246.027344 163.582031 245.242188 C 161.691406 244.460938 159.84375 243.585938 158.039062 242.621094 C 156.234375 241.65625 154.480469 240.605469 152.777344 239.46875 C 151.074219 238.328125 149.433594 237.113281 147.851562 235.8125 C 146.269531 234.515625 144.753906 233.140625 143.304688 231.695312 C 141.859375 230.246094 140.484375 228.730469 139.1875 227.148438 C 137.886719 225.566406 136.671875 223.925781 135.53125 222.222656 C 134.394531 220.519531 133.34375 218.765625 132.378906 216.960938 C 131.414062 215.15625 130.539062 213.308594 129.757812 211.417969 C 128.972656 209.527344 128.285156 207.601562 127.691406 205.644531 C 127.097656 203.683594 126.601562 201.699219 126.199219 199.691406 C 125.800781 197.683594 125.5 195.664062 125.300781 193.625 C 125.101562 191.589844 125 189.546875 125 187.5 C 125 185.453125 125.101562 183.410156 125.300781 181.375 C 125.5 179.335938 125.800781 177.3125 126.199219 175.308594 C 126.601562 173.300781 127.097656 171.316406 127.691406 169.355469 C 128.285156 167.398438 128.972656 165.472656 129.757812 163.582031 C 130.539062 161.691406 131.414062 159.84375 132.378906 158.039062 C 133.34375 156.234375 134.394531 154.480469 135.53125 152.777344 C 136.671875 151.074219 137.886719 149.433594 139.1875 147.851562 C 140.484375 146.269531 141.859375 144.753906 143.304688 143.304688 C 144.753906 141.859375 146.269531 140.484375 147.851562 139.1875 C 149.433594 137.886719 151.074219 136.671875 152.777344 135.53125 C 154.480469 134.394531 156.234375 133.34375 158.039062 132.378906 C 159.84375 131.414062 161.691406 130.539062 163.582031 129.757812 C 165.472656 128.972656 167.398438 128.285156 169.355469 127.691406 C 171.316406 127.097656 173.300781 126.601562 175.308594 126.199219 C 177.316406 125.800781 179.335938 125.5 181.375 125.300781 C 183.410156 125.101562 185.453125 125 187.5 125 C 189.546875 125 191.589844 125.101562 193.625 125.300781 C 195.664062 125.5 197.683594 125.800781 199.691406 126.199219 C 201.699219 126.601562 203.683594 127.097656 205.644531 127.691406 C 207.601562 128.285156 209.527344 128.972656 211.417969 129.757812 C 213.308594 130.539062 215.15625 131.414062 216.960938 132.378906 C 218.765625 133.34375 220.519531 134.394531 222.222656 135.53125 C 223.925781 136.671875 225.566406 137.886719 227.148438 139.1875 C 228.730469 140.484375 230.246094 141.859375 231.695312 143.304688 C 233.140625 144.753906 234.515625 146.269531 235.8125 147.851562 C 237.113281 149.433594 238.328125 151.074219 239.46875 152.777344 C 240.605469 154.480469 241.65625 156.234375 242.621094 158.039062 C 243.585938 159.84375 244.460938 161.691406 245.242188 163.582031 C 246.027344 165.472656 246.714844 167.398438 247.308594 169.355469 C 247.902344 171.316406 248.398438 173.300781 248.800781 175.308594 C 249.199219 177.3125 249.5 179.335938 249.699219 181.375 C 249.898438 183.410156 250 185.453125 250 187.5 Z M 250 187.5 " fill-opacity="1" fill-rule="nonzero"/><path fill="#000000" d="M 363.167969 304.15625 C 358.792969 307.34375 350.074219 310.324219 343.019531 310.324219 C 322.550781 310.324219 294.542969 302.855469 277.042969 285.46875 L 246.269531 245.136719 C 243.417969 242.269531 242.550781 239.144531 244.082031 235.425781 C 245.625 231.6875 236.480469 229.167969 240.519531 229.167969 L 293.207031 229.167969 C 312.65625 229.167969 338.082031 242.25 354.925781 260.605469 L 358.792969 264.261719 C 366.832031 273.042969 371.113281 281.230469 371.105469 289.113281 C 371.105469 295.582031 368.269531 300.4375 363.167969 304.15625 Z M 363.167969 304.15625 " fill-opacity="1" fill-rule="nonzero"/><path fill="#000000" d="M 294.84375 366.707031 C 286.8125 366.707031 277.84375 362.363281 268.90625 354.167969 L 263.824219 350.230469 C 245.125 333.09375 229.167969 307.199219 229.167969 287.394531 L 229.167969 233.605469 C 229.167969 229.480469 234.375 238.957031 238.175781 237.386719 C 241.957031 235.824219 247.707031 236.699219 250.625 239.613281 L 283.605469 272.15625 C 301.300781 289.980469 315.488281 320.269531 315.488281 341.113281 C 315.488281 348.292969 314 354.1875 310.78125 358.636719 C 306.988281 363.832031 301.4375 366.707031 294.84375 366.707031 Z M 294.84375 366.707031 " fill-opacity="1" fill-rule="nonzero"/><path fill="#c1694f" d="M 326.511719 332.957031 C 323.84375 332.957031 321.4375 331.6875 319.394531 329.65625 L 173.5625 183.824219 C 169.488281 179.75 169.488281 173.167969 173.5625 169.082031 C 177.636719 165.011719 184.21875 165.019531 188.292969 169.082031 L 334.125 314.917969 C 338.199219 318.988281 338.0625 325.707031 333.988281 329.78125 C 331.96875 331.8125 329.1875 332.957031 326.511719 332.957031 Z M 326.511719 332.957031 " fill-opacity="1" fill-rule="nonzero"/></svg>