<svg xmlns="http://www.w3.org/2000/svg" xmlns:xlink="http://www.w3.org/1999/xlink" width="500" zoomAndPan="magnify" viewBox="0 0 375 374.999991" height="500" preserveAspectRatio="xMidYMid meet" version="1.0"><path fill="#77b255" d="M 375 333.332031 C 375 356.34375 356.34375 375 333.332031 375 L 41.667969 375 C 18.65625 375 0 356.34375 0 333.332031 L 0 41.667969 C 0 18.65625 18.65625 0 41.667969 0 L 333.332031 0 C 356.34375 0 375 18.65625 375 41.667969 Z M 375 333.332031 " fill-opacity="1" fill-rule="nonzero"/><path fill="#ffffff" d="M 305 66.269531 C 292.957031 58.449219 276.832031 61.875 268.980469 73.9375 L 155.582031 248.71875 L 103.199219 200.28125 C 92.636719 190.511719 76.15625 191.167969 66.394531 201.71875 C 56.636719 212.28125 57.28125 228.761719 67.84375 238.519531 L 142.9375 307.957031 C 147.9375 312.59375 154.292969 314.886719 160.605469 314.886719 C 167.613281 314.886719 176.582031 311.949219 182.46875 303.019531 C 185.925781 297.75 312.675781 102.292969 312.675781 102.292969 C 320.5 90.21875 317.0625 74.09375 305 66.269531 Z M 305 66.269531 " fill-opacity="1" fill-rule="nonzero"/></svg>