<svg xmlns="http://www.w3.org/2000/svg" xmlns:xlink="http://www.w3.org/1999/xlink" width="500" zoomAndPan="magnify" viewBox="0 0 375 374.999991" height="500" preserveAspectRatio="xMidYMid meet" version="1.0"><path fill="#8899a6" d="M 161.730469 107.523438 L 215.046875 54.207031 C 215.046875 54.207031 268.363281 0.886719 321.683594 54.207031 C 375 107.523438 321.683594 160.839844 321.683594 160.839844 L 250.59375 231.929688 C 250.59375 231.929688 197.273438 285.25 143.957031 231.929688 C 133.960938 221.933594 127.765625 208.648438 127.765625 208.648438 L 157.5625 178.898438 C 157.5625 178.898438 156.363281 191.019531 170.617188 205.273438 C 170.617188 205.273438 197.273438 231.929688 223.933594 205.273438 L 295.023438 134.183594 C 295.023438 134.183594 321.683594 107.523438 295.023438 80.863281 C 268.363281 54.207031 241.707031 80.863281 241.707031 80.863281 L 208.570312 114 C 208.570312 114 192.09375 100.484375 158.398438 110.855469 Z M 161.730469 107.523438 " fill-opacity="1" fill-rule="nonzero"/><path fill="#8899a6" d="M 213.671875 267.476562 L 160.351562 320.792969 C 160.351562 320.792969 107.035156 374.113281 53.71875 320.792969 C 0.398438 267.476562 53.71875 214.160156 53.71875 214.160156 L 124.808594 143.070312 C 124.808594 143.070312 178.125 89.75 231.441406 143.070312 C 241.441406 153.066406 247.632812 166.351562 247.632812 166.351562 L 217.828125 196.109375 C 217.828125 196.109375 219.027344 183.980469 204.773438 169.726562 C 204.773438 169.726562 178.117188 143.070312 151.457031 169.726562 L 80.367188 240.816406 C 80.367188 240.816406 53.707031 267.476562 80.367188 294.136719 C 107.027344 320.792969 133.683594 294.136719 133.683594 294.136719 L 166.820312 261 C 166.820312 261 183.296875 274.515625 216.992188 264.144531 Z M 213.671875 267.476562 " fill-opacity="1" fill-rule="nonzero"/></svg>