<svg xmlns="http://www.w3.org/2000/svg" xmlns:xlink="http://www.w3.org/1999/xlink" width="500" zoomAndPan="magnify" viewBox="0 0 375 374.999991" height="500" preserveAspectRatio="xMidYMid meet" version="1.0"><defs><clipPath id="f9d10583e5"><path d="M 20.796875 0 L 354.546875 0 L 354.546875 375 L 20.796875 375 Z M 20.796875 0 " clip-rule="nonzero"/></clipPath></defs><g clip-path="url(#f9d10583e5)"><path fill="#fdd888" d="M 332.59375 249.355469 C 326.359375 180.417969 291.945312 145.832031 291.945312 145.832031 L 229.382812 62.5 L 145.960938 62.5 L 83.394531 145.832031 C 83.394531 145.832031 68.597656 160.761719 56.625 190.363281 C 35.886719 197.238281 20.828125 216.550781 20.828125 239.582031 C 20.828125 254.667969 27.34375 268.144531 37.605469 277.65625 C 33.683594 284.96875 31.253906 293.199219 31.253906 302.082031 C 31.253906 322.480469 43.101562 339.957031 60.191406 348.5 C 73.570312 368.519531 91.445312 375 104.25 375 L 271.089844 375 C 285.472656 375 306.265625 366.886719 319.871094 340.519531 C 340.007812 333.324219 354.511719 314.269531 354.511719 291.667969 C 354.511719 274.1875 345.816406 258.8125 332.59375 249.355469 Z M 187.671875 62.5 C 193.40625 62.5 198.703125 60.855469 203.3125 58.167969 C 207.929688 60.855469 213.230469 62.5 218.953125 62.5 C 236.230469 62.5 260.664062 38.082031 260.664062 20.832031 C 260.664062 20.832031 260.664062 0 239.808594 0 C 231.589844 0 229.382812 10.417969 218.953125 10.417969 C 208.527344 10.417969 208.527344 0 187.671875 0 C 166.816406 0 166.816406 10.417969 156.386719 10.417969 C 145.960938 10.417969 143.757812 0 135.53125 0 C 114.675781 0 114.675781 20.832031 114.675781 20.832031 C 114.675781 38.082031 139.121094 62.5 156.386719 62.5 C 162.113281 62.5 167.410156 60.855469 172.027344 58.167969 C 176.648438 60.855469 181.945312 62.5 187.671875 62.5 Z M 187.671875 62.5 " fill-opacity="1" fill-rule="nonzero"/></g><path fill="#bf6952" d="M 250.238281 62.5 C 250.238281 68.25 245.574219 72.917969 239.808594 72.917969 L 135.53125 72.917969 C 129.777344 72.917969 125.105469 68.25 125.105469 62.5 C 125.105469 56.75 129.777344 52.082031 135.53125 52.082031 L 239.808594 52.082031 C 245.574219 52.082031 250.238281 56.75 250.238281 62.5 Z M 250.238281 62.5 " fill-opacity="1" fill-rule="nonzero"/><path fill="#67757f" d="M 249.203125 255.644531 C 249.203125 209.011719 159.722656 212.050781 159.722656 183.917969 C 159.722656 170.292969 173.289062 163.636719 189.035156 163.636719 C 215.5 163.636719 220.214844 179.980469 232.195312 179.980469 C 240.675781 179.980469 244.761719 174.84375 244.761719 169.082031 C 244.761719 155.707031 223.65625 145.582031 203.417969 142.082031 L 203.417969 129.167969 C 203.417969 121.113281 196.636719 114.582031 188.253906 114.582031 C 179.859375 114.582031 173.070312 121.113281 173.070312 129.167969 L 173.070312 142.53125 C 151.007812 147.355469 132.019531 162.0625 132.019531 186.03125 C 132.019531 230.8125 221.476562 229 221.476562 260.457031 C 221.476562 271.363281 209.191406 282.261719 189.035156 282.261719 C 158.785156 282.261719 148.710938 262.582031 136.429688 262.582031 C 130.445312 262.582031 125.09375 267.417969 125.09375 274.707031 C 125.09375 286.300781 145.304688 300.238281 173.09375 304.125 L 173.082031 304.230469 L 173.082031 318.792969 C 173.082031 326.832031 179.882812 333.375 188.265625 333.375 C 196.648438 333.375 203.4375 326.832031 203.4375 318.792969 L 203.4375 304.230469 C 203.4375 304.050781 203.355469 303.917969 203.34375 303.761719 C 228.347656 299.28125 249.203125 283.636719 249.203125 255.644531 Z M 249.203125 255.644531 " fill-opacity="1" fill-rule="nonzero"/></svg>