<svg xmlns="http://www.w3.org/2000/svg" xmlns:xlink="http://www.w3.org/1999/xlink" width="500" zoomAndPan="magnify" viewBox="0 0 375 374.999991" height="500" preserveAspectRatio="xMidYMid meet" version="1.0"><defs><clipPath id="0c4a7a3c9e"><path d="M 5 16 L 370 16 L 370 359.589844 L 5 359.589844 Z M 5 16 " clip-rule="nonzero"/></clipPath></defs><g clip-path="url(#0c4a7a3c9e)"><path fill="#bb1a34" d="M 23.203125 218.257812 C 16.972656 218.257812 13.578125 215.671875 11.820312 213.5 C 10.09375 211.371094 8.308594 207.597656 9.550781 201.742188 L 37.09375 73.46875 L 19.789062 74.449219 L 19.65625 74.449219 C 14.4375 74.449219 10.652344 72.753906 8.277344 69.816406 C 6.054688 67.070312 5.257812 63.546875 6.046875 59.921875 C 7.5625 52.835938 14.960938 46.9375 22.878906 46.503906 L 63.347656 44.214844 C 64.132812 44.164062 64.863281 44.132812 65.539062 44.132812 C 67.023438 44.132812 70.949219 44.132812 73.445312 47.222656 C 75.988281 50.371094 75.128906 54.378906 74.847656 55.691406 L 43.304688 202.648438 C 41.417969 211.574219 34.023438 217.679688 24.464844 218.214844 Z M 131.671875 198.066406 C 117.144531 198.066406 105.066406 192.625 96.746094 182.328125 C 85.003906 167.800781 81.9375 145.46875 87.882812 117.746094 C 98.304688 69.167969 130.371094 35.109375 167.667969 32.996094 C 183.722656 32.097656 197.011719 37.5625 205.96875 48.636719 C 217.710938 63.164062 220.78125 85.492188 214.832031 113.214844 C 204.414062 161.773438 172.34375 195.835938 135.027344 197.953125 C 133.894531 198.035156 132.773438 198.066406 131.671875 198.066406 Z M 166.144531 59.296875 L 164.761719 59.335938 C 145.171875 60.457031 128.867188 82.597656 121.140625 118.554688 C 116.316406 141.046875 117.296875 157.917969 123.890625 166.074219 C 126.886719 169.789062 131.128906 171.675781 136.5 171.675781 L 137.914062 171.636719 C 157.5 170.535156 173.796875 148.40625 181.511719 112.4375 C 186.339844 89.945312 185.371094 73.066406 178.785156 64.910156 C 175.796875 61.183594 171.535156 59.296875 166.144531 59.296875 Z M 283.179688 181.519531 C 268.648438 181.519531 256.554688 176.078125 248.222656 165.769531 C 236.480469 151.242188 233.410156 128.914062 239.359375 101.191406 C 249.789062 52.601562 281.855469 18.550781 319.15625 16.453125 C 335.339844 15.542969 348.464844 21.023438 357.421875 32.089844 C 369.164062 46.617188 372.234375 68.945312 366.289062 96.660156 C 355.878906 145.207031 323.820312 179.269531 286.5 181.417969 C 285.371094 181.5 284.269531 181.519531 283.179688 181.519531 Z M 317.621094 42.738281 L 316.246094 42.78125 C 296.648438 43.902344 280.34375 66.039062 272.628906 101.988281 C 267.800781 124.492188 268.78125 141.371094 275.375 149.519531 C 278.375 153.234375 282.632812 155.121094 288.003906 155.121094 L 289.417969 155.082031 C 308.996094 153.980469 325.304688 131.839844 333.019531 95.882812 C 337.855469 73.398438 336.886719 56.519531 330.292969 48.363281 C 327.28125 44.628906 323.023438 42.738281 317.621094 42.738281 Z M 116.820312 359.601562 C 108.640625 359.601562 100.949219 354.59375 97.910156 346.488281 C 93.992188 336.046875 99.28125 324.410156 109.722656 320.492188 C 113.125 319.21875 194.527344 289.117188 317.074219 278.898438 C 328.191406 277.929688 337.945312 286.238281 338.875 297.34375 C 339.804688 308.457031 331.535156 318.210938 320.425781 319.140625 C 203.402344 328.890625 124.6875 358.015625 123.898438 358.308594 C 121.578125 359.175781 119.171875 359.601562 116.820312 359.601562 Z M 25.957031 299.019531 C 17.839844 299.019531 10.175781 294.09375 7.097656 286.066406 C 3.097656 275.660156 8.289062 263.976562 18.699219 259.992188 C 24.171875 257.878906 155.167969 208.242188 347.980469 198.097656 C 359.21875 197.398438 368.628906 206.0625 369.214844 217.195312 C 369.8125 228.332031 361.25 237.839844 350.113281 238.425781 C 164.09375 248.21875 34.46875 297.191406 33.175781 297.6875 C 30.804688 298.585938 28.359375 299.019531 25.957031 299.019531 Z M 25.957031 299.019531 " fill-opacity="1" fill-rule="nonzero"/></g></svg>