<svg xmlns="http://www.w3.org/2000/svg" xmlns:xlink="http://www.w3.org/1999/xlink" width="500" zoomAndPan="magnify" viewBox="0 0 375 374.999991" height="500" preserveAspectRatio="xMidYMid meet" version="1.0"><path fill="#fdd888" d="M 343.75 325.222656 C 343.75 348.117188 325 366.847656 302.082031 366.847656 L 72.917969 366.847656 C 50 366.847656 31.25 348.117188 31.25 325.222656 L 31.25 148.304688 C 31.25 125.410156 50 106.675781 72.917969 106.675781 L 302.082031 106.675781 C 325 106.675781 343.75 125.410156 343.75 148.304688 Z M 343.75 325.222656 " fill-opacity="1" fill-rule="nonzero"/><path fill="#fdd888" d="M 375 117.082031 C 375 139.976562 356.25 158.710938 333.332031 158.710938 L 41.667969 158.710938 C 18.75 158.710938 0 139.976562 0 117.082031 C 0 94.1875 18.75 75.453125 41.667969 75.453125 L 333.332031 75.453125 C 356.25 75.453125 375 94.1875 375 117.082031 Z M 375 117.082031 " fill-opacity="1" fill-rule="nonzero"/><path fill="#fcab40" d="M 31.25 158.710938 L 343.75 158.710938 L 343.75 179.523438 L 31.25 179.523438 Z M 31.25 158.710938 " fill-opacity="1" fill-rule="nonzero"/><path fill="#da2f47" d="M 197.917969 33.828125 L 177.082031 33.828125 C 159.824219 33.828125 145.832031 47.804688 145.832031 65.046875 L 145.832031 366.847656 L 229.167969 366.847656 L 229.167969 65.046875 C 229.167969 47.8125 215.175781 33.828125 197.917969 33.828125 Z M 197.917969 33.828125 " fill-opacity="1" fill-rule="nonzero"/><path fill="#da2f47" d="M 166.667969 75.453125 C 178.125 75.453125 179.824219 70.085938 170.425781 63.519531 L 100.40625 14.542969 C 91.011719 7.976562 78.6875 10.734375 73 20.671875 L 52 57.386719 C 46.3125 67.328125 51.042969 75.453125 62.5 75.453125 Z M 208.332031 75.453125 C 196.875 75.453125 195.175781 70.085938 204.574219 63.519531 L 274.605469 14.542969 C 283.988281 7.976562 296.324219 10.734375 302.011719 20.671875 L 323.011719 57.378906 C 328.6875 67.328125 323.957031 75.453125 312.5 75.453125 Z M 208.332031 75.453125 " fill-opacity="1" fill-rule="nonzero"/></svg>